<?xml version="1.0" encoding="UTF-8" standalone="no"?>
<svg
   xmlns:dc="http://purl.org/dc/elements/1.1/"
   xmlns:cc="http://creativecommons.org/ns#"
   xmlns:rdf="http://www.w3.org/1999/02/22-rdf-syntax-ns#"
   xmlns:svg="http://www.w3.org/2000/svg"
   xmlns="http://www.w3.org/2000/svg"
   xmlns:xlink="http://www.w3.org/1999/xlink"
   xmlns:sodipodi="http://sodipodi.sourceforge.net/DTD/sodipodi-0.dtd"
   xmlns:inkscape="http://www.inkscape.org/namespaces/inkscape"
   width="138.99155mm"
   height="35.061771mm"
   viewBox="0 0 138.99155 35.061771"
   version="1.1"
   id="svg1661"
   inkscape:version="1.0.1 (3bc2e813f5, 2020-09-07)"
   sodipodi:docname="logo_text_hz.svg">
  <defs
     id="defs1655">
    <linearGradient
       id="linear-gradient"
       x1="623.95001"
       y1="213.17999"
       x2="648.98999"
       y2="240"
       gradientTransform="rotate(-2.25,1976.6573,-458.12922)"
       gradientUnits="userSpaceOnUse">
      <stop
         offset="0"
         stop-color="#147865"
         id="stop4" />
      <stop
         offset="0.36"
         stop-color="#09725e"
         stop-opacity="0"
         id="stop6" />
    </linearGradient>
    <linearGradient
       id="linear-gradient-2"
       x1="552.90002"
       y1="114.65"
       x2="577.92999"
       y2="161.22"
       gradientTransform="matrix(0.26368225,-0.02181763,0.02181763,0.26368225,-98.060511,55.980369)"
       xlink:href="#linear-gradient" />
    <linearGradient
       id="linear-gradient-3"
       x1="627.62"
       y1="119.95"
       x2="652.27002"
       y2="165.82001"
       gradientTransform="matrix(0.26368225,-0.02181763,0.02181763,0.26368225,-98.060511,55.980369)"
       xlink:href="#linear-gradient" />
    <linearGradient
       inkscape:collect="always"
       xlink:href="#linear-gradient"
       id="linearGradient2427"
       gradientUnits="userSpaceOnUse"
       gradientTransform="matrix(0.26437935,-0.01038749,0.01038749,0.26437935,-104.68039,33.689223)"
       x1="623.95001"
       y1="213.17999"
       x2="648.98999"
       y2="240" />
  </defs>
  <sodipodi:namedview
     id="base"
     pagecolor="#ffffff"
     bordercolor="#666666"
     borderopacity="0"
     inkscape:pageopacity="0"
     inkscape:pageshadow="2"
     inkscape:zoom="1.979899"
     inkscape:cx="269.77462"
     inkscape:cy="-35.360912"
     inkscape:document-units="mm"
     inkscape:current-layer="g2588"
     inkscape:document-rotation="0"
     showgrid="false"
     showguides="false"
     inkscape:guide-bbox="true"
     fit-margin-top="0"
     fit-margin-left="0"
     fit-margin-right="0"
     fit-margin-bottom="0"
     inkscape:window-width="1920"
     inkscape:window-height="1064"
     inkscape:window-x="0"
     inkscape:window-y="16"
     inkscape:window-maximized="0"
     inkscape:snap-global="true"
     inkscape:pagecheckerboard="true">
    <sodipodi:guide
       position="62.640454,30.197981"
       orientation="0,-1"
       id="guide2590" />
    <sodipodi:guide
       position="43.325526,4.7534014"
       orientation="0,-1"
       id="guide2592" />
    <sodipodi:guide
       position="4.8191962,38.549261"
       orientation="1,0"
       id="guide2626" />
    <sodipodi:guide
       position="47.719492,42.707"
       orientation="1,0"
       id="guide2628" />
    <sodipodi:guide
       position="52.633182,39.021731"
       orientation="1,0"
       id="guide2630" />
    <sodipodi:guide
       position="133.99336,25.537971"
       orientation="1,0"
       id="guide2632" />
    <sodipodi:guide
       position="138.99154,38.323561"
       orientation="1,0"
       id="guide2634" />
    <sodipodi:guide
       position="-29.934185,30.197991"
       orientation="0,-1"
       id="guide2636" />
    <sodipodi:guide
       position="63.744918,35.061771"
       orientation="0,-1"
       id="guide2638" />
    <sodipodi:guide
       position="15.737759,1.5263557e-06"
       orientation="0,-1"
       id="guide2640" />
    <sodipodi:guide
       position="0,14.904921"
       orientation="1,0"
       id="guide2642" />
  </sodipodi:namedview>
  <metadata
     id="metadata1658">
    <rdf:RDF>
      <cc:Work
         rdf:about="">
        <dc:format>image/svg+xml</dc:format>
        <dc:type
           rdf:resource="http://purl.org/dc/dcmitype/StillImage" />
        <dc:title></dc:title>
      </cc:Work>
    </rdf:RDF>
  </metadata>
  <g
     inkscape:label="Layer 1"
     inkscape:groupmode="layer"
     id="layer1"
     transform="translate(0,4.9224892)">
    <g
       id="g2546"
       transform="translate(-38.078569,-68.037907)">
      <path
         class="cls-3"
         d="m 71.132593,75.808243 c 0.201687,0.0054 0.392586,0.09227 0.529166,0.240771 l 7.874,8.307917 4.431771,-4.198938 -7.876646,-8.307916 c -6.031128,-6.53086 -16.372404,1.96383 -9.966854,9.44827 l 3.156479,3.323167 c 0.143536,0.144358 0.221085,0.341582 0.214313,0.545042 -0.0064,0.202012 -0.09418,0.392859 -0.243417,0.529166 -0.144273,0.143385 -0.341811,0.220099 -0.545042,0.211667 -0.09086,-0.0021 -0.180543,-0.02097 -0.264583,-0.05556 -0.100912,-0.04121 -0.191318,-0.104499 -0.264584,-0.185209 -0.867833,-0.904875 -1.748895,-1.799166 -2.619375,-2.701396 -0.164755,-0.153046 -0.291581,-0.342379 -0.370416,-0.552979 -0.110347,-0.372321 -0.08503,-0.771716 0.07144,-1.127125 l -4.733399,-4.992689 v 0 l -4.521729,-4.7625 c -6.285745,-6.655857 -16.26168,2.384257 -9.972146,9.453562 l 3.339042,3.484563 0.01588,-0.01587 4.320646,4.455583 4.3815,-4.249208 -4.270375,-4.405313 v 0 L 50.460696,76.78191 c -0.706572,-0.739092 0.402032,-1.797425 1.108604,-1.058333 l 7.874001,8.30527 v 0 l 1.656291,1.748896 v 0 c -0.07508,0.246554 -0.101149,0.505426 -0.07673,0.762 0.03823,0.370678 0.182451,0.722492 0.415396,1.013354 0.711506,0.824354 1.47979,1.597943 2.299229,2.315105 0.912813,0.79375 1.383771,1.2065 2.145771,1.550458 0.834001,0.370119 1.733563,0.569822 2.645834,0.587375 6.09608,0.134866 9.34095,-7.140755 5.167313,-11.586104 l -3.151187,-3.323167 c -0.293967,-0.304625 -0.280852,-0.791155 0.0291,-1.0795 0.148965,-0.144215 0.351222,-0.219941 0.558271,-0.209021 z"
         id="path154"
         style="fill:#00bfff;stroke-width:0.264583"
         sodipodi:nodetypes="scccccccccccccccccccccccccccccsccccccccss" />
      <path
         class="cls-7"
         d="m 65.258842,81.29041 a 1.6271875,1.6271875 0 0 0 -0.07144,1.127125 c 0.187854,0.529167 0.656166,0.693208 1.299104,1.349375 a 5.7388125,5.7388125 0 0 1 0.809625,1.058333 l -3.921125,4.654021 c -0.584729,-0.579437 -1.042458,-1.100667 -1.383771,-1.510771 -0.568854,-0.685271 -0.79375,-1.034521 -0.809625,-1.49225 a 1.7700625,1.7700625 0 0 1 0.145521,-0.767291 z"
         id="path156"
         style="mix-blend-mode:difference;fill:url(#linearGradient2427);stroke-width:0.264583" />
      <path
         class="cls-8"
         d="m 56.276238,86.216952 c -0.762,-0.706438 -1.971146,-1.801813 -3.508375,-3.09298 -3.598333,-3.024187 -5.008563,-3.812645 -5.378979,-5.662083 -0.04498,-0.232833 -0.394229,-2.116667 0.79375,-3.476625 1.322916,-1.508125 3.585104,-1.254125 3.820583,-1.225021 a 4.7968958,4.7968958 0 0 1 1.256771,0.346604 c 0.79375,0.338667 1.262063,0.79375 2.010833,1.5875 0.64823,0.677334 1.394355,1.49225 2.20398,2.436813"
         id="path158"
         style="mix-blend-mode:difference;fill:url(#linear-gradient-2);stroke-width:0.264583" />
      <path
         class="cls-9"
         d="m 75.855405,85.902097 c -0.762,-0.706437 -1.971146,-1.804458 -3.508375,-3.095625 -3.608917,-3.029479 -5.095875,-3.82852 -5.381625,-5.659437 -0.01588,-0.108479 -0.264584,-1.881188 0.894291,-3.249083 1.322917,-1.571625 3.513668,-1.431396 3.730626,-1.415521 1.132417,0.08467 2.06375,0.595312 5.540375,3.833812"
         id="path160"
         style="mix-blend-mode:difference;fill:url(#linear-gradient-3);stroke-width:0.264583" />
      <path
         d="m 50.987217,69.392097 h 0.211667 c 1.825991,0.01871 3.563012,0.791467 4.799542,2.135188 l 4.521729,4.7625 v 0 l 4.733396,4.992687 c -0.156473,0.355409 -0.181787,0.754804 -0.07144,1.127125 0.07883,0.210601 0.205661,0.399934 0.370417,0.55298 0.870479,0.902229 1.751541,1.79652 2.619375,2.701395 0.07327,0.08071 0.163671,0.143994 0.264583,0.185209 0.08404,0.03459 0.173727,0.05343 0.264583,0.05556 h 0.02381 c 0.197667,0.0034 0.388391,-0.07286 0.529167,-0.211666 0.149232,-0.136307 0.237022,-0.327155 0.243417,-0.529167 0.0068,-0.20346 -0.07078,-0.400684 -0.214313,-0.545042 L 66.134613,81.295702 C 61.98868,76.931943 65.071048,69.725488 71.090259,69.709597 h 0.211667 c 1.825991,0.01871 3.563012,0.791467 4.799542,2.135188 l 7.866062,8.313208 -4.421187,4.198938 -7.884584,-8.307917 c -0.13658,-0.148502 -0.327479,-0.235361 -0.529166,-0.240771 h -0.02117 c -0.413482,0.004 -0.750504,0.332865 -0.764646,0.746125 -0.0075,0.20307 0.0691,0.400239 0.211667,0.545042 l 3.151187,3.323167 c 4.144782,4.365745 1.061564,11.571985 -4.958292,11.58875 h -0.211663 c -0.912271,-0.01755 -1.811833,-0.217256 -2.645834,-0.587375 -0.762,-0.343959 -1.232958,-0.751417 -2.145771,-1.550459 -0.819439,-0.717162 -1.587723,-1.49075 -2.299229,-2.315104 -0.232945,-0.290862 -0.377161,-0.642676 -0.415396,-1.013354 -0.02442,-0.256574 0.0016,-0.515446 0.07673,-0.762 v 0 l -1.656292,-1.748896 v 0 l -7.874,-8.305271 C 51.444042,75.57935 51.252685,75.492283 51.050717,75.488097 h -0.02646 c -0.67101,0.0013 -1.015026,0.804579 -0.552979,1.291167 l 3.357562,3.471334 v 0 l 4.270375,4.405312 -4.3815,4.249208 -4.331229,-4.455583 -0.01588,0.01588 -3.339042,-3.481917 C 41.887639,76.61867 44.968616,69.413823 50.98721,69.394748 m 0,-1.322916 v 0 c -7.159252,0.05068 -10.821616,8.607124 -5.916076,13.821828 l 3.344333,3.489854 0.910167,0.949854 0.02117,-0.02117 3.410479,3.516312 0.912812,0.944563 0.949854,-0.92075 4.3815,-4.249209 0.05292,-0.04763 0.333375,0.351896 v 0 l 0.298979,0.314854 c -0.0049,0.15006 -4.64e-4,0.300278 0.01323,0.449792 0.06386,0.622456 0.304381,1.21367 0.693209,1.703917 l 0.01852,0.02381 0.02117,0.02381 c 0.751589,0.870592 1.563198,1.687505 2.428875,2.44475 0.949854,0.830791 1.524,1.322916 2.471209,1.759479 1.000751,0.444159 2.080301,0.683459 3.175,0.703791 h 0.243416 c 4.427097,-0.01144 8.041325,-3.543584 8.154459,-7.96925 0.02041,-0.692087 -0.04266,-1.384111 -0.187854,-2.061104 l 1.852083,1.963209 0.910167,0.960437 0.960437,-0.910167 4.450292,-4.196291 0.957792,-0.910167 -0.910167,-0.960437 -7.876646,-8.3185 C 75.58364,69.33064 73.513541,68.409432 71.336325,68.381389 h -0.246066 c -4.432298,0.0059 -8.052139,3.543547 -8.15975,7.974542 v 0.563562 l -1.452563,-1.531937 -0.912812,-0.963084 v 0 l -3.611563,-3.81 C 55.4753,69.015796 53.405203,68.094583 51.227988,68.066535 Z"
         id="path162"
         style="fill:none;stroke-width:0.264583"
         sodipodi:nodetypes="cccccccccccccccccccccccccccccccccsccccccccccccccccsccccccccccccccccccccccccccccccccccccccc" />
    </g>
    <g
       id="g2588"
       transform="matrix(1.9885109,0,0,1.9885109,-126.36212,-147.39736)">
      <path
         class="cls-3"
         d="M 94.635267,81.787008 V 78.876591 A 1.3229167,1.3229167 0 0 0 94.1061,77.834133 1.9129375,1.9129375 0 0 0 92.846684,77.39757 1.762125,1.762125 0 0 0 91.67458,77.805029 1.381125,1.381125 0 0 0 91.145413,78.805154 v 2.981854 h -0.264584 v -4.672542 h 0.264584 v 0.881063 a 1.6060208,1.6060208 0 0 1 0.298979,-0.343959 2.0399375,2.0399375 0 0 1 1.391708,-0.505354 2.159,2.159 0 0 1 1.42875,0.505354 1.5663333,1.5663333 0 0 1 0.605896,1.227667 v 2.910421 z"
         id="path74"
         style="fill:#00bfff;stroke-width:0.264583" />
      <path
         class="cls-3"
         d="m 91.137475,77.148862 v 0.968375 a 1.5636875,1.5636875 0 0 1 0.351896,-0.441854 2.0055417,2.0055417 0 0 1 1.370542,-0.497417 2.1166667,2.1166667 0 0 1 1.407583,0.497417 1.5345833,1.5345833 0 0 1 0.595313,1.203854 v 2.873371 h -0.1905 v -2.865433 a 1.3520208,1.3520208 0 0 0 -0.529167,-1.058334 1.9420417,1.9420417 0 0 0 -1.280583,-0.441854 1.8018125,1.8018125 0 0 0 -1.195917,0.41275 1.4155208,1.4155208 0 0 0 -0.529167,1.023938 v 2.939523 H 90.9311 v -4.603753 h 0.206375 m 0.06615,-0.06614 h -0.330729 v 4.736043 h 0.338667 V 78.82368 a 1.3520208,1.3520208 0 0 1 0.505354,-0.973667 1.7277292,1.7277292 0 0 1 1.150937,-0.396875 1.8706042,1.8706042 0 0 1 1.23825,0.428625 1.2885208,1.2885208 0 0 1 0.508,1.016 v 2.931585 h 0.322792 v -2.950106 a 1.603375,1.603375 0 0 0 -0.619125,-1.254125 2.1881042,2.1881042 0 0 0 -1.449917,-0.513292 2.0716875,2.0716875 0 0 0 -1.412875,0.529167 1.5875,1.5875 0 0 0 -0.243416,0.264583 v -0.79375 z"
         id="path76"
         style="fill:#00bfff;stroke-width:0.264583" />
      <path
         class="cls-3"
         d="m 104.10206,81.787008 c -2.54188,-0.01129 -3.2239,-3.505227 -0.87733,-4.474543 2.34658,-0.969316 4.32917,1.987387 2.53627,3.789273 -0.4341,0.448485 -1.03488,0.696656 -1.65894,0.68527 z m 0,-4.407958 c -2.29007,-0.01694 -2.92207,3.088345 -0.81208,3.971329 2.10999,0.882983 3.89216,-1.74098 2.27258,-3.360142 -0.38169,-0.396456 -0.9102,-0.617627 -1.4605,-0.611187 z"
         id="path82"
         style="fill:#00bfff;stroke-width:0.264583"
         sodipodi:nodetypes="cscccscc" />
      <path
         class="cls-3"
         d="m 104.10206,77.148862 c 2.52396,-0.0023 3.21312,3.46712 0.88446,4.432659 -2.32865,0.965539 -4.29668,-1.973579 -2.51165,-3.757971 0.42668,-0.438889 1.01514,-0.682885 1.62719,-0.674688 m 0,4.400026 c 2.32218,0.01271 2.96582,-3.179331 0.82445,-4.070295 -1.07069,-0.445481 -2.06662,0.04382 -2.58121,0.813859 -0.25729,0.385021 -0.39623,0.84908 -0.36799,1.319275 0.0282,0.470195 0.22368,0.946527 0.63514,1.356093 0.38802,0.400607 0.93193,0.588195 1.48961,0.581068 m 0,-4.466172 c -2.56937,0.01662 -3.25338,3.548758 -0.88045,4.526288 2.37294,0.977531 4.37532,-2.011506 2.5632,-3.833079 -0.44116,-0.453478 -1.05019,-0.704366 -1.68275,-0.693209 z m 0,4.400022 c -2.23013,-1.61e-4 -2.83755,-3.065404 -0.78,-3.918627 2.05754,-0.853222 3.79755,1.742357 2.22198,3.320667 -0.37698,0.390602 -0.89921,0.607159 -1.44198,0.59796 z"
         id="path84"
         style="fill:#00bfff;stroke-width:0.264583"
         sodipodi:nodetypes="cscccssscccscccscc" />
      <path
         class="cls-3"
         d="m 110.34623,81.787008 v -0.26458 h 2.48708 a 1.1853333,1.1853333 0 1 0 0,-2.368024 h -0.0318 v 0 h -1.44198 a 0.94720833,0.94720833 0 0 1 -0.69321,-0.306917 0.9921875,0.9921875 0 0 1 -0.28575,-0.709083 1.0107083,1.0107083 0 0 1 1.00806,-1.008063 h 2.1299 v 0.264584 h -2.1299 a 0.71966667,0.71966667 0 0 0 -0.52916,0.216958 0.73025,0.73025 0 0 0 -0.21696,0.529167 0.74083333,0.74083333 0 0 0 0.21696,0.529166 0.71172917,0.71172917 0 0 0 0.52916,0.219604 h 1.52665 a 1.4684375,1.4684375 0 0 1 1.3679,1.457858 1.4075833,1.4075833 0 0 1 -0.39952,0.99748 1.4261042,1.4261042 0 0 1 -0.96838,0.45773 h -2.5691 z"
         id="path86"
         style="fill:#00bfff;stroke-width:0.264583" />
      <path
         class="cls-3"
         d="M 113.48154,77.148862 V 77.3473 h -2.09815 a 0.73289583,0.73289583 0 0 0 -0.52916,0.227541 0.746125,0.746125 0 0 0 -0.22755,0.547688 0.7699375,0.7699375 0 0 0 0.22755,0.555625 0.73554167,0.73554167 0 0 0 0.52916,0.230187 h 1.52665 a 1.3890625,1.3890625 0 0 1 0.94456,0.447146 1.4261042,1.4261042 0 0 1 -0.94456,2.397121 h -2.52942 v -0.20372 h 2.45269 a 1.217086,1.217086 0 1 0 0,-2.434172 v 0 h -1.47373 a 0.91545833,0.91545833 0 0 1 -0.6694,-0.296333 0.95779167,0.95779167 0 0 1 -0.26458,-0.687917 0.9763125,0.9763125 0 0 1 0.97367,-0.973666 h 2.09814 m 0.0661,-0.06615 h -2.16429 a 1.0398125,1.0398125 0 0 0 -1.03981,1.039812 1.031875,1.031875 0 0 0 0.29369,0.732896 0.98160417,0.98160417 0 0 0 0.71702,0.3175 h 1.40758 0.0662 a 1.15094,1.15094 0 0 1 0,2.30188 h -2.51354 v 0.33602 h 2.59556 a 1.49225,1.49225 0 0 0 0,-2.976567 h -1.52929 a 0.66410417,0.66410417 0 0 1 -0.49477,-0.211666 0.6905625,0.6905625 0 0 1 -0.20902,-0.508 0.67997917,0.67997917 0 0 1 0.20902,-0.502709 0.66675,0.66675 0 0 1 0.49477,-0.206375 h 2.16429 v -0.330729 z"
         id="path88"
         style="fill:#00bfff;stroke-width:0.264583" />
      <polygon
         class="cls-3"
         points="1430.66,1719.13 1430.66,1742.03 1429.64,1742.03 1429.64,1719 1430.58,1719 "
         id="polygon90"
         style="fill:#00bfff"
         transform="matrix(0.26458333,0,0,0.26458333,-262.95705,-379.1251)" />
      <path
         class="cls-3"
         d="m 115.54,75.725404 v 6.027204 h -0.20638 V 75.725404 H 115.54 m 0.0661,-0.06615 h -0.33867 v 6.159504 h 0.33867 v -6.170087 z"
         id="path92"
         style="fill:#00bfff;stroke-width:0.264583" />
      <path
         class="cls-3"
         d="m 117.30741,81.787008 v -4.672542 h 0.26459 v 4.672542 z m 0.127,-5.434542 a 0.1349375,0.1349375 0 0 1 0,-0.264583 0.1349375,0.1349375 0 1 1 0,0.264583 z"
         id="path94"
         style="fill:#00bfff;stroke-width:0.264583" />
      <path
         class="cls-3"
         d="m 117.43441,76.114341 q 0.11113,0 0.11113,0.103188 0,0.103187 -0.11113,0.103187 -0.0952,0 -0.0952,-0.103187 0,-0.103188 0.0952,-0.103188 m 0.11113,1.034521 v 4.603746 h -0.21431 v -4.603746 h 0.20637 m -0.11112,-1.100667 a 0.1693335,0.1693335 0 0 0 0,0.338667 0.1693335,0.1693335 0 1 0 0,-0.338667 z m 0.17727,1.034521 h -0.33867 v 4.736042 h 0.33867 z"
         id="path96"
         style="fill:#00bfff;stroke-width:0.264583" />
      <path
         class="cls-3"
         d="m 123.72091,81.787008 v -1.26206 a 2.3389167,2.3389167 0 1 1 0,-2.148419 v -2.682875 h 0.26459 v 6.085414 z m -2.07962,-4.407958 a 2.0822708,2.0822708 0 1 0 1.46314,0.611187 1.9976042,1.9976042 0 0 0 -1.46314,-0.611187 z"
         id="path98"
         style="fill:#00bfff;stroke-width:0.264583" />
      <path
         class="cls-3"
         d="m 123.94581,75.725404 v 6.027204 h -0.19844 v -1.37847 a 2.1007917,2.1007917 0 0 1 -0.47625,0.70379 2.301875,2.301875 0 1 1 0,-3.254378 2.1007917,2.1007917 0 0 1 0.47625,0.703791 v -2.801937 h 0.19844 m -2.30981,5.820834 a 2.1007917,2.1007917 0 0 0 2.11666,-2.098147 2.0981458,2.0981458 0 1 0 -2.11666,2.098147 m 2.38125,-5.889626 h -0.33602 v 2.587625 a 2.3547917,2.3547917 0 0 0 -0.36248,-0.470958 2.38125,2.38125 0 1 0 0,3.349629 2.4182917,2.4182917 0 0 0 0.36248,-0.46832 v 1.16152 h 0.33073 v -6.167433 z m -2.38125,5.820836 a 2.0372917,2.0372917 0 1 1 1.44198,-0.59796 1.9632083,1.9632083 0 0 1 -1.44198,0.59796 z"
         id="path100"
         style="fill:#00bfff;stroke-width:0.264583" />
      <path
         class="cls-3"
         d="m 127.62087,81.787008 a 2.3389167,2.3389167 0 1 1 2.32834,-2.500313 v 0.03704 h -4.3868 c 0,0.03175 0,0.07408 0,0.127 a 2.0690417,2.0690417 0 0 0 2.06375,2.063753 2.0849167,2.0849167 0 0 0 1.05834,-0.29369 1.9764375,1.9764375 0 0 0 0.77258,-0.79375 v -0.0185 h 0.30956 l -0.0265,0.0503 a 2.5982083,2.5982083 0 0 1 -0.89693,0.94721 2.2463125,2.2463125 0 0 1 -1.22238,0.381 z m 2.03465,-2.735792 a 2.0769792,2.0769792 0 0 0 -2.03465,-1.672166 1.9976042,1.9976042 0 0 0 -1.32291,0.492125 2.0399375,2.0399375 0 0 0 -0.69586,1.180041 z"
         id="path102"
         style="fill:#00bfff;stroke-width:0.264583" />
      <path
         class="cls-3"
         d="m 127.62087,77.148862 a 2.2992292,2.2992292 0 0 1 2.29659,2.140479 h -4.38415 a 1.1641667,1.1641667 0 0 0 0,0.161396 2.1007917,2.1007917 0 0 0 2.0955,2.098151 2.1166667,2.1166667 0 0 0 1.08479,-0.29898 1.9923125,1.9923125 0 0 0 0.79375,-0.79375 h 0.21167 a 2.5347083,2.5347083 0 0 1 -0.88636,0.93398 2.1722292,2.1722292 0 0 1 -1.19591,0.37041 2.301875,2.301875 0 0 1 0,-4.603748 m -2.08227,1.931458 h 4.14073 a 2.1007917,2.1007917 0 0 0 -3.43959,-1.23825 2.06375,2.06375 0 0 0 -0.71437,1.23825 m 2.06639,-2.00025 a 2.38125,2.38125 0 1 0 1.23296,4.35504 2.6167292,2.6167292 0 0 0 0.90752,-0.95779 l 0.0529,-0.0979 h -0.36248 l -0.0185,0.0344 a 1.9685,1.9685 0 0 1 -0.75936,0.77788 2.0902083,2.0902083 0 0 1 -1.05833,0.28839 2.0372917,2.0372917 0 0 1 -2.02935,-2.031999 v -0.103188 h 4.39737 v -0.07144 a 2.3627292,2.3627292 0 0 0 -2.36273,-2.201334 z m -1.98702,1.934104 a 2.0081875,2.0081875 0 0 1 0.67734,-1.121833 1.9632083,1.9632083 0 0 1 1.30968,-0.481542 2.047875,2.047875 0 0 1 1.99496,1.603375 z"
         id="path104"
         style="fill:#00bfff;stroke-width:0.264583" />
      <rect
         class="cls-3"
         x="90.894066"
         y="81.707626"
         width="0.27252084"
         height="5.1567292"
         id="rect106"
         style="fill:#00bfff;stroke-width:0.264583" />
      <path
         class="cls-3"
         d="m 91.137475,81.734088 v 5.09059 h -0.203729 v -5.09059 h 0.203729 m 0.06615,-0.0662 h -0.330729 v 5.22288 h 0.336021 v -5.21758 z"
         id="path108"
         style="fill:#00bfff;stroke-width:0.264583" />
      <rect
         class="cls-3"
         x="115.30453"
         y="81.514488"
         width="0.77787501"
         height="0.27252084"
         id="rect110"
         style="fill:#00bfff;stroke-width:0.264583" />
      <path
         class="cls-3"
         d="m 116.05064,81.546238 v 0.20637 h -0.71173 v -0.20637 h 0.71173 m 0.0661,-0.0661 h -0.84402 v 0.33867 h 0.84402 v -0.34925 z"
         id="path112"
         style="fill:#00bfff;stroke-width:0.264583" />
      <rect
         class="cls-3"
         x="117.4397"
         y="83.041138"
         width="0.77787501"
         height="0.27252084"
         id="rect114"
         style="fill:#00bfff;stroke-width:0.264583" />
      <path
         class="cls-3"
         d="m 118.18583,83.072888 v 0.20372 h -0.71173 v -0.20372 h 0.71173 m 0.0662,-0.0661 h -0.84402 v 0.33602 h 0.84402 z"
         id="path116"
         style="fill:#00bfff;stroke-width:0.264583" />
      <rect
         class="cls-3"
         x="117.96092"
         y="83.940727"
         width="0.5715"
         height="0.27252084"
         id="rect118"
         style="fill:#00bfff;stroke-width:0.264583" />
      <path
         class="cls-3"
         d="m 118.50068,83.972468 v 0.20373 h -0.50535 v -0.20373 h 0.50535 m 0.0661,-0.0661 h -0.63765 v 0.33602 h 0.63765 z"
         id="path120"
         style="fill:#00bfff;stroke-width:0.264583" />
      <rect
         class="cls-3"
         x="117.47145"
         y="79.352829"
         width="2.0134792"
         height="0.27252084"
         id="rect122"
         style="fill:#00bfff;stroke-width:0.264583" />
      <path
         class="cls-3"
         d="m 119.44789,79.384591 v 0.206375 h -1.94733 v -0.206375 h 1.94733 m 0.0661,-0.06615 h -2.07963 v 0.338667 h 2.07963 z"
         id="path124"
         style="fill:#00bfff;stroke-width:0.264583" />
      <rect
         class="cls-3"
         x="117.95036"
         y="83.051735"
         width="0.27252084"
         height="1.4472708"
         id="rect126"
         style="fill:#00bfff;stroke-width:0.264583" />
      <path
         class="cls-3"
         d="m 118.18848,83.083468 v 1.38112 h -0.20638 v -1.38112 h 0.20638 m 0.0662,-0.0662 h -0.33867 v 1.51342 h 0.33867 z"
         id="path128"
         style="fill:#00bfff;stroke-width:0.264583" />
      <rect
         class="cls-3"
         x="105.54669"
         y="81.519775"
         width="5.3710413"
         height="0.27252084"
         id="rect130"
         style="fill:#00bfff;stroke-width:0.264583" />
      <path
         class="cls-3"
         d="m 110.88333,81.551528 v 0.20638 h -5.29167 v -0.20638 h 5.29167 m 0.0661,-0.0661 h -5.43455 v 0.33867 h 5.43455 z"
         id="path132"
         style="fill:#00bfff;stroke-width:0.264583" />
      <rect
         class="cls-3"
         x="117.3074"
         y="80.289467"
         width="0.27252084"
         height="5.1567292"
         id="rect134"
         style="fill:#00bfff;stroke-width:0.264583" />
      <path
         class="cls-3"
         d="m 117.54818,80.323858 v 5.08794 h -0.21695 v -5.08794 h 0.20637 m 0.0662,-0.0661 h -0.33867 v 5.22023 h 0.33867 z"
         id="path136"
         style="fill:#00bfff;stroke-width:0.264583" />
      <rect
         class="cls-3"
         x="115.29658"
         y="74.161705"
         width="0.27252084"
         height="3.5612917"
         id="rect138"
         style="fill:#00bfff;stroke-width:0.264583" />
      <path
         class="cls-3"
         d="m 115.53735,74.193466 v 3.495146 h -0.20637 v -3.495146 h 0.20637 m 0.0661,-0.06615 h -0.33867 v 3.638021 h 0.33867 z"
         id="path140"
         style="fill:#00bfff;stroke-width:0.264583" />
      <rect
         class="cls-3"
         x="90.052673"
         y="83.922188"
         width="1.0556875"
         height="0.22225"
         id="rect142"
         style="fill:#00bfff;stroke-width:0.264583" />
      <path
         class="cls-3"
         d="m 91.073975,83.953948 v 0.16139 h -0.994833 v -0.1561 h 0.986896 m 0.06615,-0.0662 H 90.013 v 0.2884 h 1.124479 v -0.2884 z"
         id="path144"
         style="fill:#00bfff;stroke-width:0.264583" />
      <rect
         class="cls-3"
         x="90.047379"
         y="83.922188"
         width="0.22225"
         height="1.0556875"
         id="rect146"
         style="fill:#00bfff;stroke-width:0.264583" />
      <path
         class="cls-3"
         d="m 90.237892,83.953948 v 0.98689 h -0.15875 v -0.98689 h 0.15875 m 0.06615,-0.0661 H 90.013 v 1.11918 h 0.291042 z"
         id="path148"
         style="fill:#00bfff;stroke-width:0.264583" />
      <rect
         class="cls-3"
         x="90.047379"
         y="84.477806"
         width="0.22225"
         height="1.0556875"
         id="rect150"
         style="fill:#00bfff;stroke-width:0.264583" />
      <path
         class="cls-3"
         d="m 90.237892,84.509568 v 0.9869 h -0.15875 v -0.9869 h 0.15875 m 0.06615,-0.0661 H 90.013 v 1.11919 h 0.291042 z"
         id="path152"
         style="fill:#00bfff;stroke-width:0.264583" />
      <path
         class="cls-3"
         d="m 98.410888,81.736493 a 2.3389166,2.3389166 0 1 1 2.328342,-2.500313 v 0.03704 h -4.386806 c 0,0.03175 0,0.07408 0,0.127 a 2.0690416,2.0690416 0 0 0 2.063754,2.063753 2.0849167,2.0849167 0 0 0 1.058338,-0.29369 1.9764374,1.9764374 0 0 0 0.772584,-0.79375 v -0.0185 h 0.30956 l -0.0265,0.0503 a 2.5982083,2.5982083 0 0 1 -0.896934,0.94721 2.2463124,2.2463124 0 0 1 -1.222378,0.381 z m 2.034652,-2.735792 a 2.0769792,2.0769792 0 0 0 -2.034652,-1.672166 1.9976041,1.9976041 0 0 0 -1.322914,0.492125 2.0399375,2.0399375 0 0 0 -0.69586,1.180041 z"
         id="path102-6"
         style="fill:#00bfff;stroke-width:0.264583" />
      <path
         class="cls-3"
         d="m 98.410888,77.098347 a 2.2992292,2.2992292 0 0 1 2.296592,2.140479 h -4.384156 a 1.1641667,1.1641667 0 0 0 0,0.161396 2.1007917,2.1007917 0 0 0 2.095504,2.098151 2.1166666,2.1166666 0 0 0 1.084788,-0.29898 1.9923125,1.9923125 0 0 0 0.793754,-0.79375 h 0.21167 a 2.5347083,2.5347083 0 0 1 -0.886364,0.93398 2.1722292,2.1722292 0 0 1 -1.195908,0.37041 2.301875,2.301875 0 0 1 0,-4.603748 m -2.082274,1.931458 h 4.140736 a 2.1007917,2.1007917 0 0 0 -3.439596,-1.23825 2.06375,2.06375 0 0 0 -0.71437,1.23825 m 2.06639,-2.00025 a 2.38125,2.38125 0 1 0 1.232962,4.35504 2.6167292,2.6167292 0 0 0 0.907524,-0.95779 l 0.0529,-0.0979 h -0.36248 l -0.0185,0.0344 a 1.9685,1.9685 0 0 1 -0.759366,0.77788 2.0902083,2.0902083 0 0 1 -1.05833,0.28839 2.0372917,2.0372917 0 0 1 -2.02935,-2.031999 v -0.103188 h 4.397376 v -0.07144 a 2.3627291,2.3627291 0 0 0 -2.362736,-2.201334 z m -1.98702,1.934104 a 2.0081875,2.0081875 0 0 1 0.67734,-1.121833 1.9632083,1.9632083 0 0 1 1.30968,-0.481542 2.047875,2.047875 0 0 1 1.994966,1.603375 z"
         id="path104-7"
         style="fill:#00bfff;stroke-width:0.264583" />
    </g>
  </g>
</svg>
