<svg xmlns="http://www.w3.org/2000/svg" xmlns:xlink="http://www.w3.org/1999/xlink" viewBox="0 0 2148.21 2014.39"><defs><style>.cls-1{isolation:isolate;}.cls-2,.cls-5{fill:none;}.cls-3{fill:#00bfff;}.cls-4{fill:#09cca6;}.cls-5{stroke:#fff;stroke-miterlimit:10;}.cls-6{fill:#fff;}.cls-7,.cls-8,.cls-9{mix-blend-mode:difference;}.cls-7{fill:url(#linear-gradient);}.cls-8{fill:url(#linear-gradient-2);}.cls-9{fill:url(#linear-gradient-3);}</style><linearGradient id="linear-gradient" x1="623.95" y1="213.18" x2="648.99" y2="240" gradientTransform="translate(19.51 77.25) rotate(-2.25)" gradientUnits="userSpaceOnUse"><stop offset="0" stop-color="#147865"/><stop offset="0.36" stop-color="#09725e" stop-opacity="0"/></linearGradient><linearGradient id="linear-gradient-2" x1="552.9" y1="114.65" x2="577.93" y2="161.22" gradientTransform="translate(44.53 161.5) rotate(-4.73)" xlink:href="#linear-gradient"/><linearGradient id="linear-gradient-3" x1="627.62" y1="119.95" x2="652.27" y2="165.82" gradientTransform="translate(44.53 161.5) rotate(-4.73)" xlink:href="#linear-gradient"/></defs><title>Neo_slide_logo_1_SVG</title><g class="cls-1"><g id="Layer_4" data-name="Layer 4"><path class="cls-2" d="M-752.31-1319.67s4.43-10.62,4.43-.89" transform="translate(752.31 1407.83)"/></g><g id="Layer_2" data-name="Layer 2"><rect x="542.68" y="1391.39" width="623" height="623"/><rect x="1151.68" y="1391.39" width="623" height="623"/><path class="cls-3" d="M-31.81,278.71V305.2h-1.75V278.78a12.43,12.43,0,0,0-4.9-9.83,17.82,17.82,0,0,0-11.79-4.08,16.51,16.51,0,0,0-11,3.81,13,13,0,0,0-4.87,9.43V305.2H-68V262.77h1.89v8.92a14.19,14.19,0,0,1,3.25-4.05A18.39,18.39,0,0,1-50.25,263a19.5,19.5,0,0,1,13,4.6C-33.63,270.74-31.81,274.44-31.81,278.71Z" transform="translate(752.31 1407.83)"/><path class="cls-3" d="M22.17,282.5H-18A12.44,12.44,0,0,0-18,284a18.62,18.62,0,0,0,5.68,13.65A18.61,18.61,0,0,0,1.3,303.3a19.66,19.66,0,0,0,10-2.73,18.5,18.5,0,0,0,7.23-7.4h2a23.51,23.51,0,0,1-8.17,8.61,20.16,20.16,0,0,1-11,3.42,20.41,20.41,0,0,1-15-6.22,20.45,20.45,0,0,1-6.22-15,20.44,20.44,0,0,1,6.22-15,20.41,20.41,0,0,1,15-6.22,20.47,20.47,0,0,1,14.46,5.68,20.41,20.41,0,0,1,6.68,14.05ZM1.3,264.6a18.64,18.64,0,0,0-12.47,4.59,19,19,0,0,0-6.58,11.42H20.41a18.79,18.79,0,0,0-6.65-11.45A18.83,18.83,0,0,0,1.3,264.6Z" transform="translate(752.31 1407.83)"/><path class="cls-3" d="M53.23,305.2a21.22,21.22,0,0,1,0-42.43,21.22,21.22,0,1,1,0,42.43Zm13.71-7.57a19.24,19.24,0,0,0,0-27.33,19.27,19.27,0,0,0-27.33,0,19.35,19.35,0,0,0,13.65,33A18.68,18.68,0,0,0,66.94,297.63Z" transform="translate(752.31 1407.83)"/><path class="cls-3" d="M143.21,283.11a13,13,0,0,1,0,18,12.76,12.76,0,0,1-8.71,4.12H111.2v-1.9h22.56a11.21,11.21,0,1,0,0-22.42v-.07H120.18a8.45,8.45,0,0,1-6.18-2.74,8.85,8.85,0,0,1-2.53-6.31,9,9,0,0,1,9-9h19.32v1.83H120.45a6.81,6.81,0,0,0-5,2.09,6.91,6.91,0,0,0-2.09,5.07,7,7,0,0,0,2.09,5.1,6.8,6.8,0,0,0,5,2.12h14A12.73,12.73,0,0,1,143.21,283.11Z" transform="translate(752.31 1407.83)"/><path class="cls-3" d="M158.74,303.3v1.9h-1.89V249.66h1.89V303.3Z" transform="translate(752.31 1407.83)"/><path class="cls-3" d="M175.32,254.19c0-.63.29-.95.88-.95s1,.32,1,.95-.34.95-1,.95S175.32,254.82,175.32,254.19Zm1.89,25.67V305.2h-1.89V262.77h1.89Z" transform="translate(752.31 1407.83)"/><path class="cls-3" d="M234.42,249.66h1.82V305.2h-1.82V292.5A20.27,20.27,0,0,1,230,299a21.22,21.22,0,1,1,0-30,20.16,20.16,0,0,1,4.39,6.48ZM215,303.3a19.36,19.36,0,1,0-13.65-5.67A18.68,18.68,0,0,0,215,303.3Z" transform="translate(752.31 1407.83)"/><path class="cls-3" d="M290.93,282.5H250.8a12.44,12.44,0,0,0-.07,1.48,19.38,19.38,0,0,0,19.33,19.32,19.66,19.66,0,0,0,10-2.73,18.5,18.5,0,0,0,7.23-7.4h2a23.51,23.51,0,0,1-8.17,8.61,20.16,20.16,0,0,1-11,3.42,21.24,21.24,0,1,1,21.14-22.7Zm-20.87-17.9a18.64,18.64,0,0,0-12.47,4.59A19,19,0,0,0,251,280.61h38.16a19.49,19.49,0,0,0-19.11-16Z" transform="translate(752.31 1407.83)"/><rect class="cls-3" x="684.28" y="1712.91" width="1.89" height="46.9"/><rect class="cls-3" x="159.22" y="300.96" width="1.89" height="6.56" transform="translate(608.23 1872.25) rotate(-90)"/><rect class="cls-3" x="178.88" y="315.02" width="1.89" height="6.56" transform="translate(613.84 1905.96) rotate(-90)"/><rect class="cls-3" x="182.75" y="324.25" width="1.89" height="4.66" transform="translate(609.42 1918.12) rotate(-90)"/><rect class="cls-3" x="184.87" y="275.36" width="1.89" height="17.95" transform="translate(653.8 1877.98) rotate(-90)"/><rect class="cls-3" x="933.56" y="1725.3" width="1.89" height="12.71"/><rect class="cls-3" x="90.46" y="279.85" width="1.89" height="48.87" transform="translate(539.43 1803.53) rotate(-90)"/><rect class="cls-3" x="927.65" y="1699.85" width="1.89" height="46.9"/><rect class="cls-3" x="909.12" y="1628.69" width="1.89" height="46.9"/><rect class="cls-3" x="676.52" y="1733.3" width="9.11" height="1.45"/><rect class="cls-3" x="-79.67" y="329.3" width="9.11" height="1.45" transform="translate(347.17 1662.74) rotate(-90)"/><rect class="cls-3" x="-79.67" y="334.42" width="9.11" height="1.45" transform="translate(342.05 1667.86) rotate(-90)"/><rect class="cls-4" x="1894.89" width="5.61" height="1.92"/><path class="cls-5" d="M3956-1945.5" transform="translate(752.31 1407.83)"/><path d="M1180.81,26.28c1.13,0,2.29,0,3.45.12a41.92,41.92,0,0,1,29.81,14.85l27.32,31.46,0,0,28.6,32.93a10.33,10.33,0,0,0-.76,7.11,9.21,9.21,0,0,0,2.19,3.61c5.26,6,10.59,11.85,15.84,17.83a4.92,4.92,0,0,0,1.63,1.25,4.62,4.62,0,0,0,1.68.42h.37a4.84,4.84,0,0,0,3.62-8l-19-21.9A42,42,0,0,1,1265,74.31a41.93,41.93,0,0,1,14.86-29.81A41.66,41.66,0,0,1,1308,33.85c1.13,0,2.29,0,3.45.12a41.92,41.92,0,0,1,29.81,14.85l47.57,54.78L1359.64,129l-47.57-54.78a4.67,4.67,0,0,0-3.31-1.67h-.37a4.92,4.92,0,0,0-4.82,4.51,4.74,4.74,0,0,0,1.19,3.52l19,21.9a41.9,41.9,0,0,1,10.53,31.6,43.45,43.45,0,0,1-43,40.46c-1.14,0-2.29,0-3.46-.12a43.24,43.24,0,0,1-16.65-4.45c-4.73-2.39-7.6-5.1-13.16-10.4a150.86,150.86,0,0,1-13.93-15.3,12.47,12.47,0,0,1-2.34-6.54,12.21,12.21,0,0,1,.7-4.8l0,0-10-11.54,0,0-47.57-54.78a4.67,4.67,0,0,0-3.31-1.67h-.37a4.92,4.92,0,0,0-4.82,4.51,4.86,4.86,0,0,0,1.19,3.58l20.31,23h0l25.84,29-28.93,25.66-26.12-29.42-.12.09-20.18-23a42,42,0,0,1-10.53-31.6,41.93,41.93,0,0,1,14.86-29.81,41.66,41.66,0,0,1,28.14-10.65m0-5h0a46.71,46.71,0,0,0-31.42,11.87,47,47,0,0,0-16.57,33.24,47,47,0,0,0,11.75,35.22l20.19,23,3.28,3.74.14-.12L1191,154l3.32,3.74,3.74-3.32,28.93-25.7,2.89-2.57,2,2.34,0,0,5,5.8a16.68,16.68,0,0,0-.19,3.74,17.36,17.36,0,0,0,3.28,9.19l.07.09.07.09a153.8,153.8,0,0,0,14.39,15.8c5.57,5.31,8.92,8.51,14.35,11.26a48.72,48.72,0,0,0,18.56,5c1.28.09,2.56.13,3.81.13a48.44,48.44,0,0,0,48-45.11,46.73,46.73,0,0,0-8.11-30.55l24.66,28.41,3.28,3.77,3.78-3.28,29.21-25.37,3.77-3.28-3.27-3.77-47.57-54.78A47,47,0,0,0,1311.82,29c-1.27-.09-2.55-.13-3.8-.13a46.71,46.71,0,0,0-31.42,11.87A46.92,46.92,0,0,0,1260,74a50,50,0,0,0,.81,13.48l-15.66-18-3.28-3.77,0,0-24-27.68a47,47,0,0,0-33.24-16.56c-1.27-.09-2.55-.13-3.8-.13Z" transform="translate(752.31 1407.83)"/><path d="M1300.58,260.16a4.72,4.72,0,0,1,3.31,1.68l47.57,54.77,29.21-25.37-47.57-54.77a43.53,43.53,0,0,0-65.73,57.08l19,21.91a4.77,4.77,0,0,1-.48,6.82,4.62,4.62,0,0,1-3.51,1.19,4.67,4.67,0,0,1-1.68-.42,4.79,4.79,0,0,1-1.63-1.25c-5.25-6-10.57-11.87-15.84-17.83a9.28,9.28,0,0,1-2.19-3.6,10.36,10.36,0,0,1,.76-7.12l-28.59-32.92,0,0-27.32-31.45A43.53,43.53,0,0,0,1140.16,286l20.18,23,.12-.1,26.12,29.4,28.93-25.44L1189.68,284h0l-20.3-23.14a4.93,4.93,0,0,1-1.19-3.64,4.8,4.8,0,0,1,1.67-3.37,4.75,4.75,0,0,1,6.82.43l47.57,54.77,0,0,10,11.53h0a12.12,12.12,0,0,0-.7,4.79,12.41,12.41,0,0,0,2.35,6.55,148.24,148.24,0,0,0,13.93,15.29c5.55,5.3,8.42,8,13.15,10.41A43.23,43.23,0,0,0,1279.7,362a43.52,43.52,0,0,0,35.92-71.93l-19-21.91a4.79,4.79,0,0,1,.48-6.82A4.67,4.67,0,0,1,1300.58,260.16Z" transform="translate(752.31 1407.83)"/><path class="cls-6" d="M1274.68,559c-1.19,0-2.41,0-3.63-.13a46.09,46.09,0,0,1-17.61-4.71c-5.1-2.58-8.17-5.51-13.75-10.83a153.32,153.32,0,0,1-14.16-15.55l-.07-.09a14.68,14.68,0,0,1-2.42-12.18l-7.5-8.63-1.65-1.85-47.57-54.78a2.15,2.15,0,0,0-1.6-.81h-.19a2.15,2.15,0,0,0-1.5.59,2.29,2.29,0,0,0-.23,3.3l20.28,22.88,27.49,30.95-32.67,29-26.13-29.42-.13.11L1129.82,482a46,46,0,0,1,34.34-76.21c1.19,0,2.41,0,3.63.13a44.5,44.5,0,0,1,31.52,15.71L1225,451.18l1.65,1.85,24.61,28.34a46.08,46.08,0,0,1,40.11-68c1.19,0,2.41,0,3.63.13a44.5,44.5,0,0,1,31.52,15.71l49.21,56.66-33,28.65-49.21-56.66a2.21,2.21,0,0,0-1.61-.83h-.18a2.17,2.17,0,0,0-1.51.59,2.29,2.29,0,0,0-.23,3.3l19,21.91a46,46,0,0,1-34.36,76.2Zm-19-70.38A7.71,7.71,0,0,0,1255,494a6.81,6.81,0,0,0,1.63,2.64l6.76,7.6q4.58,5.11,9.12,10.27a2.41,2.41,0,0,0,.8.63,2.24,2.24,0,0,0,.8.2h.21a2.43,2.43,0,0,0,2.31-2.2,2.18,2.18,0,0,0-.58-1.7l-19-21.9c-.4-.46-.79-.93-1.17-1.39Z" transform="translate(752.31 1407.83)"/><path d="M1164.16,408.27c1.14,0,2.29,0,3.46.12a41.92,41.92,0,0,1,29.8,14.86l27.32,31.45,0,0,28.59,32.93a10.34,10.34,0,0,0-.76,7.11,9.33,9.33,0,0,0,2.19,3.61c5.27,6,10.6,11.86,15.84,17.83a4.92,4.92,0,0,0,1.63,1.25,4.72,4.72,0,0,0,1.68.42l.38,0a4.84,4.84,0,0,0,3.62-8l-19-21.91a43.52,43.52,0,0,1,32.46-72.06c1.14,0,2.29,0,3.46.12a42,42,0,0,1,29.81,14.86l47.56,54.77L1343,511l-47.57-54.77a4.68,4.68,0,0,0-3.31-1.68h-.37a4.84,4.84,0,0,0-3.62,8l19,21.91a43.52,43.52,0,0,1-32.47,72.05c-1.13,0-2.29,0-3.45-.12a43.41,43.41,0,0,1-16.66-4.44c-4.73-2.39-7.6-5.11-13.15-10.41a148.52,148.52,0,0,1-13.93-15.3,12.33,12.33,0,0,1-2.35-6.54,12.12,12.12,0,0,1,.7-4.79h0l-10-11.53,0,0-47.57-54.77a4.68,4.68,0,0,0-3.31-1.68h-.37a4.9,4.9,0,0,0-4.81,4.51,4.8,4.8,0,0,0,1.19,3.59l20.3,23h0L1207,507l-28.93,25.66L1152,503.24l-.11.09-20.18-23a43.52,43.52,0,0,1,32.46-72.06m0-5h0a48.55,48.55,0,0,0-36.24,80.34l20.2,23,3.28,3.74.14-.12L1174.37,536l3.32,3.74,3.74-3.32,28.93-25.69,2.89-2.58,2,2.34,0,0,5,5.8a17.22,17.22,0,0,0,3.08,12.93l.07.09.07.09a155.06,155.06,0,0,0,14.4,15.81c5.56,5.3,8.92,8.51,14.35,11.25a48.44,48.44,0,0,0,18.56,5c1.27.09,2.55.13,3.8.13a48.59,48.59,0,0,0,39.87-75.65l24.67,28.4,3.28,3.77,3.77-3.27,29.21-25.37,3.78-3.28-3.28-3.78-47.57-54.77A46.88,46.88,0,0,0,1295.18,411c-1.28-.09-2.56-.14-3.81-.14a48.46,48.46,0,0,0-48,45.11,49.61,49.61,0,0,0,.82,13.48l-15.67-18-3.27-3.78,0,0-24-27.68A46.88,46.88,0,0,0,1168,403.41c-1.28-.09-2.56-.14-3.81-.14Z" transform="translate(752.31 1407.83)"/><path class="cls-3" d="M599.22,334.2v-11a5,5,0,0,0-2-3.94,7.23,7.23,0,0,0-4.76-1.65,6.66,6.66,0,0,0-4.43,1.54,5.22,5.22,0,0,0-2,3.78V334.2h-1V316.54h1v3.33a6.07,6.07,0,0,1,1.13-1.3,7.71,7.71,0,0,1,5.26-1.91,8.16,8.16,0,0,1,5.4,1.91,5.92,5.92,0,0,1,2.29,4.64v11Z" transform="translate(752.31 1407.83)"/><path class="cls-3" d="M586,316.67v3.66a5.91,5.91,0,0,1,1.33-1.67,7.58,7.58,0,0,1,5.18-1.88,8,8,0,0,1,5.32,1.88,5.8,5.8,0,0,1,2.25,4.55v10.86h-.72V323.24a5.11,5.11,0,0,0-2-4,7.34,7.34,0,0,0-4.84-1.67,6.81,6.81,0,0,0-4.52,1.56,5.35,5.35,0,0,0-2,3.87v11.11h-.78v-17.4H586m.25-.25H585v17.9h1.28V323a5.11,5.11,0,0,1,1.91-3.68,6.53,6.53,0,0,1,4.35-1.5,7.07,7.07,0,0,1,4.68,1.62,4.87,4.87,0,0,1,1.92,3.84v11.08h1.22V323.21a6.06,6.06,0,0,0-2.34-4.74,8.27,8.27,0,0,0-5.48-1.94,7.83,7.83,0,0,0-5.34,2,6,6,0,0,0-.92,1v-3Z" transform="translate(752.31 1407.83)"/><path class="cls-3" d="M613.65,334.2a8.84,8.84,0,1,1,8.79-9.45v.14H605.86c0,.12,0,.28,0,.48a7.84,7.84,0,0,0,7.81,7.8,7.87,7.87,0,0,0,4-1.11,7.47,7.47,0,0,0,2.92-3l0-.07h1.09l-.1.19a9.94,9.94,0,0,1-3.4,3.58A8.46,8.46,0,0,1,613.65,334.2Zm7.69-10.34a7.83,7.83,0,0,0-15.36,0Z" transform="translate(752.31 1407.83)"/><path class="cls-3" d="M613.65,316.67a8.68,8.68,0,0,1,8.67,8.09H605.75a4.4,4.4,0,0,0,0,.61,8,8,0,0,0,7.93,7.93,8.07,8.07,0,0,0,4.1-1.13,7.56,7.56,0,0,0,3-3h.81a9.69,9.69,0,0,1-3.36,3.53,8.21,8.21,0,0,1-4.51,1.4,8.7,8.7,0,1,1,0-17.4M605.83,324h15.66a7.95,7.95,0,0,0-13-4.68,7.8,7.8,0,0,0-2.7,4.68m7.82-7.56a9,9,0,1,0,0,17.9,8.54,8.54,0,0,0,4.65-1.44,10,10,0,0,0,3.44-3.62l.2-.37h-1.38l-.07.13a7.37,7.37,0,0,1-2.87,2.94,7.86,7.86,0,0,1-4,1.09,7.7,7.7,0,0,1-7.68-7.68c0-.15,0-.27,0-.36h16.61l0-.27a8.91,8.91,0,0,0-8.92-8.32Zm-7.51,7.31a7.59,7.59,0,0,1,2.56-4.24,7.41,7.41,0,0,1,4.95-1.82,7.74,7.74,0,0,1,7.53,6.06Z" transform="translate(752.31 1407.83)"/><path class="cls-3" d="M635,334.2a8.79,8.79,0,1,1,6.27-2.59A8.51,8.51,0,0,1,635,334.2Zm0-16.66a7.89,7.89,0,1,0,5.52,2.31A7.54,7.54,0,0,0,635,317.54Z" transform="translate(752.31 1407.83)"/><path class="cls-3" d="M635,316.67a8.71,8.71,0,1,1-6.15,2.55,8.42,8.42,0,0,1,6.15-2.55m0,16.63a8,8,0,1,0-5.6-2.33,7.66,7.66,0,0,0,5.6,2.33m0-16.88a8.89,8.89,0,1,0,6.36,2.62,8.66,8.66,0,0,0-6.36-2.62Zm0,16.63a7.7,7.7,0,1,1,5.45-2.26,7.4,7.4,0,0,1-5.45,2.26Z" transform="translate(752.31 1407.83)"/><path class="cls-3" d="M658.6,334.2v-1H668a4.48,4.48,0,1,0,0-8.95h-.12v0h-5.45a3.58,3.58,0,0,1-2.62-1.16,3.75,3.75,0,0,1-1.08-2.68,3.82,3.82,0,0,1,3.81-3.81h8.05v1h-8.05a2.72,2.72,0,0,0-2,.82,2.76,2.76,0,0,0-.82,2,2.8,2.8,0,0,0,.82,2,2.69,2.69,0,0,0,2,.83h5.77a5.55,5.55,0,0,1,5.17,5.51,5.32,5.32,0,0,1-1.51,3.77,5.39,5.39,0,0,1-3.66,1.73H658.6Z" transform="translate(752.31 1407.83)"/><path class="cls-3" d="M670.45,316.67v.75h-7.93a2.77,2.77,0,0,0-2,.86,2.82,2.82,0,0,0-.86,2.07,2.91,2.91,0,0,0,.86,2.1,2.78,2.78,0,0,0,2,.87h5.77a5.25,5.25,0,0,1,3.57,1.69,5.39,5.39,0,0,1-3.57,9.06h-9.56v-.77H668a4.6,4.6,0,1,0,0-9.2v0h-5.57a3.46,3.46,0,0,1-2.53-1.12,3.62,3.62,0,0,1-1-2.6,3.69,3.69,0,0,1,3.68-3.68h7.93m.25-.25h-8.18a3.93,3.93,0,0,0-3.93,3.93,3.9,3.9,0,0,0,1.11,2.77,3.71,3.71,0,0,0,2.71,1.2h5.32l.25,0a4.35,4.35,0,0,1,0,8.7h-9.5v1.27h9.81a5.64,5.64,0,0,0,0-11.25h-5.78a2.51,2.51,0,0,1-1.87-.8,2.61,2.61,0,0,1-.79-1.92,2.57,2.57,0,0,1,.79-1.9,2.52,2.52,0,0,1,1.87-.78h8.18v-1.25Z" transform="translate(752.31 1407.83)"/><polygon class="cls-3" points="1429.64 1742.03 1429.64 1719 1430.58 1719 1430.66 1719.13 1430.66 1742.03 1429.64 1742.03"/><path class="cls-3" d="M678.23,311.29v22.78h-.78V311.29h.78m.25-.25H677.2v23.28h1.28V311Z" transform="translate(752.31 1407.83)"/><path class="cls-3" d="M684.91,334.2V316.54h1V334.2Zm.48-20.54a.51.51,0,0,1,0-1,.51.51,0,1,1,0,1Z" transform="translate(752.31 1407.83)"/><path class="cls-3" d="M685.39,312.76q.42,0,.42.39t-.42.39q-.36,0-.36-.39t.36-.39m.42,3.91v17.4H685v-17.4h.78m-.42-4.16a.64.64,0,0,0,0,1.28.64.64,0,1,0,0-1.28Zm.67,3.91h-1.28v17.9h1.28v-17.9Z" transform="translate(752.31 1407.83)"/><path class="cls-3" d="M709.15,334.2v-4.77a8.84,8.84,0,1,1,0-8.12V311.17h1v23Zm-7.86-16.66a7.87,7.87,0,1,0,5.53,2.31A7.55,7.55,0,0,0,701.29,317.54Z" transform="translate(752.31 1407.83)"/><path class="cls-3" d="M710,311.29v22.78h-.75v-5.21a7.94,7.94,0,0,1-1.8,2.66,8.7,8.7,0,1,1,0-12.3,7.94,7.94,0,0,1,1.8,2.66V311.29H710m-8.73,22a7.94,7.94,0,0,0,8-7.93,7.93,7.93,0,1,0-8,7.93m9-22.26H709v9.78a8.9,8.9,0,0,0-1.37-1.78,9,9,0,1,0,0,12.66,9.14,9.14,0,0,0,1.37-1.77v4.39h1.25V311Zm-9,22a7.7,7.7,0,1,1,5.45-2.26,7.42,7.42,0,0,1-5.45,2.26Z" transform="translate(752.31 1407.83)"/><path class="cls-3" d="M723.89,334.2a8.84,8.84,0,1,1,8.8-9.45v.14H716.11c0,.12,0,.28,0,.48a7.82,7.82,0,0,0,7.8,7.8,7.88,7.88,0,0,0,4-1.11,7.47,7.47,0,0,0,2.92-3l0-.07H732l-.1.19a9.82,9.82,0,0,1-3.39,3.58A8.49,8.49,0,0,1,723.89,334.2Zm7.69-10.34a7.85,7.85,0,0,0-7.69-6.32,7.55,7.55,0,0,0-5,1.86,7.71,7.71,0,0,0-2.63,4.46Z" transform="translate(752.31 1407.83)"/><path class="cls-3" d="M723.89,316.67a8.69,8.69,0,0,1,8.68,8.09H716a4.4,4.4,0,0,0,0,.61,7.94,7.94,0,0,0,7.92,7.93,8,8,0,0,0,4.1-1.13,7.53,7.53,0,0,0,3-3h.8a9.58,9.58,0,0,1-3.35,3.53,8.21,8.21,0,0,1-4.52,1.4,8.7,8.7,0,0,1,0-17.4M716.08,324h15.65a7.94,7.94,0,0,0-13-4.68,7.8,7.8,0,0,0-2.7,4.68m7.81-7.56a9,9,0,1,0,4.66,16.46,9.89,9.89,0,0,0,3.43-3.62l.2-.37h-1.37l-.07.13a7.44,7.44,0,0,1-2.87,2.94,7.9,7.9,0,0,1-4,1.09,7.7,7.7,0,0,1-7.67-7.68V325h16.62l0-.27a8.93,8.93,0,0,0-8.93-8.32Zm-7.51,7.31a7.59,7.59,0,0,1,2.56-4.24,7.42,7.42,0,0,1,4.95-1.82,7.74,7.74,0,0,1,7.54,6.06Z" transform="translate(752.31 1407.83)"/><rect class="cls-3" x="1337.39" y="1741.73" width="1.03" height="19.49"/><path class="cls-3" d="M586,334v19.24h-.77V334H586m.25-.25H585v19.74h1.27V333.77Z" transform="translate(752.31 1407.83)"/><rect class="cls-3" x="1429.65" y="1741" width="2.94" height="1.03"/><path class="cls-3" d="M680.16,333.29v.78h-2.69v-.78h2.69m.25-.25h-3.19v1.28h3.19V333Z" transform="translate(752.31 1407.83)"/><rect class="cls-3" x="1437.72" y="1746.77" width="2.94" height="1.03"/><path class="cls-3" d="M688.23,339.06v.77h-2.69v-.77h2.69m.25-.25h-3.19v1.27h3.19v-1.27Z" transform="translate(752.31 1407.83)"/><rect class="cls-3" x="1439.69" y="1750.17" width="2.16" height="1.03"/><path class="cls-3" d="M689.42,342.46v.77h-1.91v-.77h1.91m.25-.25h-2.41v1.27h2.41v-1.27Z" transform="translate(752.31 1407.83)"/><rect class="cls-3" x="1437.84" y="1732.83" width="7.61" height="1.03"/><path class="cls-3" d="M693,325.12v.78h-7.36v-.78H693m.25-.25h-7.86v1.28h7.86v-1.28Z" transform="translate(752.31 1407.83)"/><rect class="cls-3" x="1439.65" y="1746.81" width="1.03" height="5.47"/><path class="cls-3" d="M688.24,339.1v5.22h-.78V339.1h.78m.25-.25h-1.28v5.72h1.28v-5.72Z" transform="translate(752.31 1407.83)"/><rect class="cls-3" x="1392.77" y="1741.02" width="20.3" height="1.03"/><path class="cls-3" d="M660.63,333.31v.78h-20v-.78h20m.25-.25H640.34v1.28h20.54v-1.28Z" transform="translate(752.31 1407.83)"/><rect class="cls-3" x="1437.22" y="1736.37" width="1.03" height="19.49"/><path class="cls-3" d="M685.82,328.67V347.9H685V328.67h.78m.25-.25h-1.28v19.73h1.28V328.42Z" transform="translate(752.31 1407.83)"/><rect class="cls-3" x="1429.62" y="1713.21" width="1.03" height="13.46"/><path class="cls-3" d="M678.22,305.5v13.21h-.78V305.5h.78m.25-.25h-1.28V319h1.28V305.25Z" transform="translate(752.31 1407.83)"/><rect class="cls-3" x="1334.21" y="1750.1" width="3.99" height="0.84"/><path class="cls-3" d="M585.76,342.39V343H582v-.59h3.73m.25-.25h-4.23v1.09H586v-1.09Z" transform="translate(752.31 1407.83)"/><rect class="cls-3" x="1334.19" y="1750.1" width="0.84" height="3.99"/><path class="cls-3" d="M582.6,342.39v3.73H582v-3.73h.6m.25-.25h-1.1v4.23h1.1v-4.23Z" transform="translate(752.31 1407.83)"/><rect class="cls-3" x="1334.19" y="1752.2" width="0.84" height="3.99"/><path class="cls-3" d="M582.6,344.49v3.73H582v-3.73h.6m.25-.25h-1.1v4.23h1.1v-4.23Z" transform="translate(752.31 1407.83)"/><path class="cls-3" d="M684,236.44a2.82,2.82,0,0,1,2,.91l29.76,31.4,16.75-15.87-29.77-31.4a26,26,0,0,0-37.67,35.71L677,269.75a2.79,2.79,0,0,1,.81,2.06,2.83,2.83,0,0,1-.92,2,2.76,2.76,0,0,1-2.06.8,2.8,2.8,0,0,1-1-.21,2.76,2.76,0,0,1-1-.7c-3.28-3.42-6.61-6.8-9.9-10.21a5.47,5.47,0,0,1-1.4-2.09,6.2,6.2,0,0,1,.27-4.26l-17.89-18.87h0l-17.09-18A26,26,0,0,0,589.13,256l12.62,13.17.06-.06,16.33,16.84,16.56-16.06-16.14-16.65h0l-12.69-13.12a2.88,2.88,0,1,1,4.19-4l29.76,31.39h0l6.26,6.61h0a7.46,7.46,0,0,0-.29,2.88,7.33,7.33,0,0,0,1.57,3.83,88.28,88.28,0,0,0,8.69,8.75c3.45,3,5.23,4.56,8.11,5.86a25.88,25.88,0,0,0,10,2.22,26,26,0,0,0,19.53-43.79l-11.91-12.56a2.86,2.86,0,0,1,.11-4.08A2.82,2.82,0,0,1,684,236.44Z" transform="translate(752.31 1407.83)"/><path class="cls-7" d="M661.8,257.16a6.15,6.15,0,0,0-.27,4.26c.71,2,2.48,2.62,4.91,5.1a21.69,21.69,0,0,1,3.06,4l-14.82,17.59c-2.21-2.19-3.94-4.16-5.23-5.71-2.15-2.59-3-3.91-3.06-5.64a6.69,6.69,0,0,1,.55-2.9Z" transform="translate(752.31 1407.83)"/><path class="cls-8" d="M627.85,275.78c-2.88-2.67-7.45-6.81-13.26-11.69-13.6-11.43-18.93-14.41-20.33-21.4-.17-.88-1.49-8,3-13.14,5-5.7,13.55-4.74,14.44-4.63a18.13,18.13,0,0,1,4.75,1.31c3,1.28,4.77,3,7.6,6,2.45,2.56,5.27,5.64,8.33,9.21" transform="translate(752.31 1407.83)"/><path class="cls-9" d="M701.85,274.59c-2.88-2.67-7.45-6.82-13.26-11.7-13.64-11.45-19.26-14.47-20.34-21.39-.06-.41-1-7.11,3.38-12.28,5-5.94,13.28-5.41,14.1-5.35,4.28.32,7.8,2.25,20.94,14.49" transform="translate(752.31 1407.83)"/><path d="M607.86,212.19h.8a25,25,0,0,1,18.14,8.07l17.09,18h0l17.89,18.87a6.2,6.2,0,0,0-.27,4.26,5.47,5.47,0,0,0,1.4,2.09c3.29,3.41,6.62,6.79,9.9,10.21a2.76,2.76,0,0,0,1,.7,2.8,2.8,0,0,0,1,.21h.09a2.78,2.78,0,0,0,2-.8,2.83,2.83,0,0,0,.92-2,2.79,2.79,0,0,0-.81-2.06l-11.9-12.56a25.93,25.93,0,0,1,18.73-43.79h.8a25,25,0,0,1,18.14,8.07l29.77,31.4L715.8,268.75,686,237.35a2.82,2.82,0,0,0-2-.91h-.08a2.92,2.92,0,0,0-2.89,2.82,2.79,2.79,0,0,0,.8,2.06l11.91,12.56A25.94,25.94,0,0,1,675,297.68h-.8a25.88,25.88,0,0,1-10-2.22c-2.88-1.3-4.66-2.84-8.11-5.86a88.28,88.28,0,0,1-8.69-8.75,7.33,7.33,0,0,1-1.57-3.83,7.46,7.46,0,0,1,.29-2.88h0l-6.26-6.61h0l-29.76-31.39a2.78,2.78,0,0,0-2-.91H608a2.89,2.89,0,0,0-2.09,4.88l12.69,13.12h0l16.14,16.65-16.56,16.06L601.81,269.1l-.06.06L589.13,256a25.94,25.94,0,0,1,18.73-43.8m0-5h0a31,31,0,0,0-22.36,52.24l12.64,13.19,3.44,3.59.08-.08,12.89,13.29L618,293l3.59-3.48,16.56-16.06.2-.18,1.26,1.33h0l1.13,1.19a13.74,13.74,0,0,0,.05,1.7,12.4,12.4,0,0,0,2.62,6.44l.07.09.08.09a93.15,93.15,0,0,0,9.18,9.24c3.59,3.14,5.76,5,9.34,6.65a31,31,0,0,0,12,2.66H675a30.91,30.91,0,0,0,30.82-30.12,32.57,32.57,0,0,0-.71-7.79l7,7.42,3.44,3.63,3.63-3.44L736,256.51l3.62-3.44-3.44-3.63L706.41,218a30,30,0,0,0-21.64-9.63h-.93A30.89,30.89,0,0,0,653,238.51c0,.72,0,1.43,0,2.13l-5.49-5.79-3.45-3.64v0l-13.65-14.4a30,30,0,0,0-21.64-9.63Z" transform="translate(752.31 1407.83)"/></g></g></svg>