<svg xmlns="http://www.w3.org/2000/svg" xmlns:xlink="http://www.w3.org/1999/xlink" viewBox="0 0 3086.81 2015.39"><defs><style>.cls-1{isolation:isolate;}.cls-2,.cls-8{fill:none;}.cls-3,.cls-6{fill:#fff;}.cls-4{fill:#00bfff;}.cls-5{stroke:#000;}.cls-5,.cls-6,.cls-8{stroke-miterlimit:10;}.cls-6,.cls-8{stroke:#fff;}.cls-7{fill:#09cca6;}.cls-12,.cls-13,.cls-14,.cls-17,.cls-20,.cls-9{opacity:0.67;}.cls-9{fill:url(#linear-gradient);}.cls-10{fill:url(#linear-gradient-2);}.cls-11{fill:url(#linear-gradient-3);}.cls-12{fill:url(#linear-gradient-4);}.cls-13{fill:url(#linear-gradient-5);}.cls-14{fill:url(#linear-gradient-6);}.cls-15{fill:url(#linear-gradient-7);}.cls-16{fill:url(#linear-gradient-8);}.cls-17{fill:url(#linear-gradient-9);}.cls-18{fill:url(#linear-gradient-10);}.cls-19{fill:url(#linear-gradient-11);}.cls-20{fill:url(#linear-gradient-12);}.cls-21{fill:url(#linear-gradient-13);}.cls-22{fill:url(#linear-gradient-14);}.cls-23,.cls-24,.cls-25,.cls-26,.cls-27,.cls-28,.cls-29,.cls-30{mix-blend-mode:difference;}.cls-23{fill:url(#linear-gradient-15);}.cls-24{fill:url(#linear-gradient-16);}.cls-25{fill:url(#linear-gradient-17);}.cls-26{fill:url(#linear-gradient-18);}.cls-27{fill:url(#linear-gradient-19);}.cls-28{fill:url(#linear-gradient-20);}.cls-29{fill:url(#linear-gradient-21);}.cls-30{fill:url(#linear-gradient-22);}</style><linearGradient id="linear-gradient" x1="1329.19" y1="238.87" x2="1354.23" y2="265.69" gradientTransform="translate(19.51 77.25) rotate(-2.25)" gradientUnits="userSpaceOnUse"><stop offset="0"/><stop offset="0.36" stop-opacity="0"/></linearGradient><linearGradient id="linear-gradient-2" x1="1255.46" y1="169.76" x2="1280.48" y2="216.32" gradientTransform="translate(44.53 161.5) rotate(-4.73)" xlink:href="#linear-gradient"/><linearGradient id="linear-gradient-3" x1="1331.17" y1="175.14" x2="1355.82" y2="221.01" gradientTransform="translate(44.53 161.5) rotate(-4.73)" xlink:href="#linear-gradient"/><linearGradient id="linear-gradient-4" x1="1030.87" y1="-282.76" x2="1055.92" y2="-255.94" xlink:href="#linear-gradient"/><linearGradient id="linear-gradient-5" x1="1031.99" y1="-283.81" x2="1057.04" y2="-256.98" xlink:href="#linear-gradient"/><linearGradient id="linear-gradient-6" x1="1023.13" y1="-275.53" x2="1048.18" y2="-248.71" xlink:href="#linear-gradient"/><linearGradient id="linear-gradient-7" x1="971.95" y1="-357.4" x2="996.98" y2="-310.84" gradientTransform="translate(44.53 161.5) rotate(-4.73)" xlink:href="#linear-gradient"/><linearGradient id="linear-gradient-8" x1="1047.67" y1="-352.03" x2="1072.32" y2="-306.16" gradientTransform="translate(44.53 161.5) rotate(-4.73)" xlink:href="#linear-gradient"/><linearGradient id="linear-gradient-9" x1="2000.38" y1="280.24" x2="2025.42" y2="307.06" xlink:href="#linear-gradient"/><linearGradient id="linear-gradient-10" x1="1924.23" y1="240.14" x2="1949.25" y2="286.7" gradientTransform="translate(44.53 161.5) rotate(-4.73)" xlink:href="#linear-gradient"/><linearGradient id="linear-gradient-11" x1="1999.94" y1="245.52" x2="2024.59" y2="291.39" gradientTransform="translate(44.53 161.5) rotate(-4.73)" xlink:href="#linear-gradient"/><linearGradient id="linear-gradient-12" x1="781.69" y1="-287.01" x2="806.74" y2="-260.19" xlink:href="#linear-gradient"/><linearGradient id="linear-gradient-13" x1="731.24" y1="-379.32" x2="756.26" y2="-332.76" gradientTransform="translate(44.53 161.5) rotate(-4.73)" xlink:href="#linear-gradient"/><linearGradient id="linear-gradient-14" x1="806.95" y1="-373.95" x2="831.6" y2="-328.08" gradientTransform="translate(44.53 161.5) rotate(-4.73)" xlink:href="#linear-gradient"/><linearGradient id="linear-gradient-15" x1="702.13" y1="228.26" x2="727.18" y2="255.08" gradientTransform="translate(19.51 77.25) rotate(-2.25)" gradientUnits="userSpaceOnUse"><stop offset="0" stop-color="#147865"/><stop offset="0.36" stop-color="#09725e" stop-opacity="0"/></linearGradient><linearGradient id="linear-gradient-16" x1="630.36" y1="133.1" x2="655.39" y2="179.66" gradientTransform="translate(44.53 161.5) rotate(-4.73)" xlink:href="#linear-gradient-15"/><linearGradient id="linear-gradient-17" x1="705.08" y1="138.4" x2="729.73" y2="184.27" gradientTransform="translate(44.53 161.5) rotate(-4.73)" xlink:href="#linear-gradient-15"/><linearGradient id="linear-gradient-18" x1="516.92" y1="-311.95" x2="541.96" y2="-285.13" xlink:href="#linear-gradient-15"/><linearGradient id="linear-gradient-19" x1="518.04" y1="-312.99" x2="543.08" y2="-286.17" xlink:href="#linear-gradient-15"/><linearGradient id="linear-gradient-20" x1="509.18" y1="-304.72" x2="534.22" y2="-277.9" xlink:href="#linear-gradient-15"/><linearGradient id="linear-gradient-21" x1="460.66" y1="-407.73" x2="485.68" y2="-361.17" gradientTransform="translate(44.53 161.5) rotate(-4.73)" xlink:href="#linear-gradient-15"/><linearGradient id="linear-gradient-22" x1="535.37" y1="-402.44" x2="560.03" y2="-356.57" gradientTransform="translate(44.53 161.5) rotate(-4.73)" xlink:href="#linear-gradient-15"/></defs><title>Neo_slide_logo_svg</title><g class="cls-1"><g id="Layer_4" data-name="Layer 4"><path class="cls-2" d="M-752.31-1319.67s4.43-10.62,4.43-.89" transform="translate(752.31 1407.83)"/></g><g id="Layer_2" data-name="Layer 2"><rect x="542.68" y="1391.39" width="623" height="623"/><rect x="1811.81" y="1392.39" width="623" height="623"/><rect x="1176.81" y="1387.39" width="623" height="623"/><rect class="cls-3" x="2463.81" y="1392.39" width="623" height="623"/><path class="cls-4" d="M-31.81,278.71V305.2h-1.75V278.78a12.43,12.43,0,0,0-4.9-9.83,17.82,17.82,0,0,0-11.79-4.08,16.51,16.51,0,0,0-11,3.81,13,13,0,0,0-4.87,9.43V305.2H-68V262.77h1.89v8.92a14.19,14.19,0,0,1,3.25-4.05A18.39,18.39,0,0,1-50.25,263a19.5,19.5,0,0,1,13,4.6C-33.63,270.74-31.81,274.44-31.81,278.71Z" transform="translate(752.31 1407.83)"/><path class="cls-4" d="M22.17,282.5H-18A12.44,12.44,0,0,0-18,284a18.62,18.62,0,0,0,5.68,13.65A18.61,18.61,0,0,0,1.3,303.3a19.66,19.66,0,0,0,10-2.73,18.5,18.5,0,0,0,7.23-7.4h2a23.51,23.51,0,0,1-8.17,8.61,20.16,20.16,0,0,1-11,3.42,20.41,20.41,0,0,1-15-6.22,20.45,20.45,0,0,1-6.22-15,20.44,20.44,0,0,1,6.22-15,20.41,20.41,0,0,1,15-6.22,20.47,20.47,0,0,1,14.46,5.68,20.41,20.41,0,0,1,6.68,14.05ZM1.3,264.6a18.64,18.64,0,0,0-12.47,4.59,19,19,0,0,0-6.58,11.42H20.41a18.79,18.79,0,0,0-6.65-11.45A18.83,18.83,0,0,0,1.3,264.6Z" transform="translate(752.31 1407.83)"/><path class="cls-4" d="M53.23,305.2a21.22,21.22,0,0,1,0-42.43,21.22,21.22,0,1,1,0,42.43Zm13.71-7.57a19.24,19.24,0,0,0,0-27.33,19.27,19.27,0,0,0-27.33,0,19.35,19.35,0,0,0,13.65,33A18.68,18.68,0,0,0,66.94,297.63Z" transform="translate(752.31 1407.83)"/><path class="cls-4" d="M143.21,283.11a13,13,0,0,1,0,18,12.76,12.76,0,0,1-8.71,4.12H111.2v-1.9h22.56a11.21,11.21,0,1,0,0-22.42v-.07H120.18a8.45,8.45,0,0,1-6.18-2.74,8.85,8.85,0,0,1-2.53-6.31,9,9,0,0,1,9-9h19.32v1.83H120.45a6.81,6.81,0,0,0-5,2.09,6.91,6.91,0,0,0-2.09,5.07,7,7,0,0,0,2.09,5.1,6.8,6.8,0,0,0,5,2.12h14A12.73,12.73,0,0,1,143.21,283.11Z" transform="translate(752.31 1407.83)"/><path class="cls-4" d="M158.74,303.3v1.9h-1.89V249.66h1.89V303.3Z" transform="translate(752.31 1407.83)"/><path class="cls-4" d="M175.32,254.19c0-.63.29-.95.88-.95s1,.32,1,.95-.34.95-1,.95S175.32,254.82,175.32,254.19Zm1.89,25.67V305.2h-1.89V262.77h1.89Z" transform="translate(752.31 1407.83)"/><path class="cls-4" d="M234.42,249.66h1.82V305.2h-1.82V292.5A20.27,20.27,0,0,1,230,299a21.22,21.22,0,1,1,0-30,20.16,20.16,0,0,1,4.39,6.48ZM215,303.3a19.36,19.36,0,1,0-13.65-5.67A18.68,18.68,0,0,0,215,303.3Z" transform="translate(752.31 1407.83)"/><path class="cls-4" d="M290.93,282.5H250.8a12.44,12.44,0,0,0-.07,1.48,19.38,19.38,0,0,0,19.33,19.32,19.66,19.66,0,0,0,10-2.73,18.5,18.5,0,0,0,7.23-7.4h2a23.51,23.51,0,0,1-8.17,8.61,20.16,20.16,0,0,1-11,3.42,21.24,21.24,0,1,1,21.14-22.7Zm-20.87-17.9a18.64,18.64,0,0,0-12.47,4.59A19,19,0,0,0,251,280.61h38.16a19.49,19.49,0,0,0-19.11-16Z" transform="translate(752.31 1407.83)"/><rect class="cls-4" x="684.28" y="1712.91" width="1.89" height="46.9"/><rect class="cls-4" x="159.22" y="300.96" width="1.89" height="6.56" transform="translate(608.23 1872.25) rotate(-90)"/><rect class="cls-4" x="178.88" y="315.02" width="1.89" height="6.56" transform="translate(613.84 1905.96) rotate(-90)"/><rect class="cls-4" x="182.75" y="324.25" width="1.89" height="4.66" transform="translate(609.42 1918.12) rotate(-90)"/><rect class="cls-4" x="184.87" y="275.36" width="1.89" height="17.95" transform="translate(653.8 1877.98) rotate(-90)"/><rect class="cls-4" x="933.56" y="1725.3" width="1.89" height="12.71"/><rect class="cls-4" x="90.46" y="279.85" width="1.89" height="48.87" transform="translate(539.43 1803.53) rotate(-90)"/><rect class="cls-4" x="927.65" y="1699.85" width="1.89" height="46.9"/><rect class="cls-4" x="909.12" y="1628.69" width="1.89" height="46.9"/><rect class="cls-4" x="676.52" y="1733.3" width="9.11" height="1.45"/><rect class="cls-4" x="-79.67" y="329.3" width="9.11" height="1.45" transform="translate(347.17 1662.74) rotate(-90)"/><rect class="cls-4" x="-79.67" y="334.42" width="9.11" height="1.45" transform="translate(342.05 1667.86) rotate(-90)"/><path class="cls-5" d="M-33.14-173.59v26.48h-1.78v-26.41a12.34,12.34,0,0,0-4.94-9.83,18,18,0,0,0-11.9-4.09,16.74,16.74,0,0,0-11.12,3.82,12.88,12.88,0,0,0-4.91,9.42v27.09H-69.7v-42.42h1.91v8.92a13.87,13.87,0,0,1,3.28-4.06,18.7,18.7,0,0,1,12.75-4.59,19.82,19.82,0,0,1,13.09,4.59Q-33.13-180-33.14-173.59Z" transform="translate(752.31 1407.83)"/><path class="cls-5" d="M21.35-169.81H-19.16a12.64,12.64,0,0,0-.07,1.49,18.54,18.54,0,0,0,5.73,13.65A18.88,18.88,0,0,0,.28-149a19.91,19.91,0,0,0,10.09-2.74,18.53,18.53,0,0,0,7.3-7.39h2a23.65,23.65,0,0,1-8.25,8.61A20.58,20.58,0,0,1,.28-147.11a20.74,20.74,0,0,1-15.14-6.21,20.36,20.36,0,0,1-6.28-15,20.36,20.36,0,0,1,6.28-15A20.74,20.74,0,0,1,.28-189.53a20.8,20.8,0,0,1,14.6,5.67,20.36,20.36,0,0,1,6.75,14.05ZM.28-187.71a18.84,18.84,0,0,0-12.58,4.6,18.89,18.89,0,0,0-6.65,11.41H19.58a18.77,18.77,0,0,0-6.72-11.45A19.12,19.12,0,0,0,.28-187.71Z" transform="translate(752.31 1407.83)"/><path class="cls-5" d="M52.71-147.11a20.74,20.74,0,0,1-15.14-6.21,20.36,20.36,0,0,1-6.28-15,20.36,20.36,0,0,1,6.28-15,20.74,20.74,0,0,1,15.14-6.21,20.83,20.83,0,0,1,15.21,6.21,20.35,20.35,0,0,1,6.21,15,20.35,20.35,0,0,1-6.21,15A20.83,20.83,0,0,1,52.71-147.11Zm13.84-7.56a18.5,18.5,0,0,0,5.73-13.65A18.55,18.55,0,0,0,66.52-182a18.9,18.9,0,0,0-13.81-5.71A18.87,18.87,0,0,0,38.93-182a18.62,18.62,0,0,0-5.73,13.71,18.58,18.58,0,0,0,5.73,13.65A18.9,18.9,0,0,0,52.71-149,19,19,0,0,0,66.55-154.67Z" transform="translate(752.31 1407.83)"/><path class="cls-5" d="M143.56-169.2a12.58,12.58,0,0,1,3.61,9,12.54,12.54,0,0,1-3.61,9,12.94,12.94,0,0,1-8.8,4.12H111.23V-149H134a10.93,10.93,0,0,0,8-3.28,10.72,10.72,0,0,0,3.31-7.93,10.74,10.74,0,0,0-3.31-7.94,10.93,10.93,0,0,0-8-3.28v-.07H120.3a8.5,8.5,0,0,1-6.24-2.73,8.86,8.86,0,0,1-2.56-6.32,8.64,8.64,0,0,1,2.66-6.35,8.77,8.77,0,0,1,6.41-2.63h19.51v1.82H120.57a6.92,6.92,0,0,0-5,2.09,6.89,6.89,0,0,0-2.12,5.07,7,7,0,0,0,2.12,5.1,6.84,6.84,0,0,0,5,2.13h14.19A13,13,0,0,1,143.56-169.2Z" transform="translate(752.31 1407.83)"/><path class="cls-5" d="M159.23-149v1.89h-1.91v-55.53h1.91V-149Z" transform="translate(752.31 1407.83)"/><path class="cls-5" d="M176-198.11c0-.63.29-.95.88-.95s1,.32,1,.95-.34.94-1,.94S176-197.48,176-198.11Zm1.9,25.67v25.33H176v-42.42h1.9Z" transform="translate(752.31 1407.83)"/><path class="cls-5" d="M235.63-202.64h1.84v55.53h-1.84v-12.7a20,20,0,0,1-4.43,6.49A20.83,20.83,0,0,1,216-147.11a20.72,20.72,0,0,1-15.14-6.21,20.33,20.33,0,0,1-6.28-15,20.33,20.33,0,0,1,6.28-15A20.72,20.72,0,0,1,216-189.53a20.83,20.83,0,0,1,15.21,6.21,20,20,0,0,1,4.43,6.49ZM216-149a19,19,0,0,0,13.84-5.67,18.54,18.54,0,0,0,5.73-13.65A18.59,18.59,0,0,0,229.8-182,18.92,18.92,0,0,0,216-187.71,18.85,18.85,0,0,0,202.21-182a18.58,18.58,0,0,0-5.73,13.71,18.54,18.54,0,0,0,5.73,13.65A18.88,18.88,0,0,0,216-149Z" transform="translate(752.31 1407.83)"/><path class="cls-5" d="M292.68-169.81H252.17a12.64,12.64,0,0,0-.07,1.49,18.58,18.58,0,0,0,5.73,13.65A18.9,18.9,0,0,0,271.61-149a19.91,19.91,0,0,0,10.09-2.74,18.53,18.53,0,0,0,7.3-7.39h2a23.57,23.57,0,0,1-8.25,8.61,20.58,20.58,0,0,1-11.12,3.41,20.74,20.74,0,0,1-15.14-6.21,20.36,20.36,0,0,1-6.27-15,20.36,20.36,0,0,1,6.27-15,20.74,20.74,0,0,1,15.14-6.21,20.8,20.8,0,0,1,14.6,5.67A20.36,20.36,0,0,1,293-169.81Zm-21.07-17.9a18.86,18.86,0,0,0-12.58,4.6,18.89,18.89,0,0,0-6.65,11.41h38.53a18.81,18.81,0,0,0-6.71-11.45A19.17,19.17,0,0,0,271.61-187.71Z" transform="translate(752.31 1407.83)"/><rect class="cls-5" x="682.59" y="1260.6" width="1.91" height="46.9"/><rect class="cls-5" x="159.72" y="-151.37" width="1.89" height="6.62" transform="translate(1061.04 1420.44) rotate(-90)"/><rect class="cls-5" x="179.57" y="-137.32" width="1.89" height="6.62" transform="translate(1066.83 1454.34) rotate(-90)"/><rect class="cls-5" x="183.48" y="-128.07" width="1.89" height="4.71" transform="translate(1062.45 1466.54) rotate(-90)"/><rect class="cls-5" x="185.62" y="-177.03" width="1.89" height="18.12" transform="translate(1106.85 1426.43) rotate(-90)"/><rect class="cls-5" x="934.26" y="1272.99" width="1.91" height="12.71"/><rect class="cls-5" x="90.3" y="-172.69" width="1.89" height="49.34" transform="translate(991.58 1351.07) rotate(-90)"/><rect class="cls-5" x="928.3" y="1247.55" width="1.91" height="46.9"/><rect class="cls-5" x="909.59" y="1176.39" width="1.91" height="46.9"/><rect class="cls-5" x="674.76" y="1280.99" width="9.2" height="1.45"/><rect class="cls-5" x="-81.42" y="-123.02" width="9.11" height="1.46" transform="translate(797.73 1208.68) rotate(-90)"/><rect class="cls-5" x="-81.42" y="-117.89" width="9.11" height="1.46" transform="translate(792.6 1213.81) rotate(-90)"/><path class="cls-6" d="M-33.14-316.89v26.48h-1.78v-26.41a12.34,12.34,0,0,0-4.94-9.83,18,18,0,0,0-11.9-4.09,16.74,16.74,0,0,0-11.12,3.82,12.88,12.88,0,0,0-4.91,9.42v27.09H-69.7v-42.43h1.91v8.92A14,14,0,0,1-64.51-328a18.7,18.7,0,0,1,12.75-4.59A19.82,19.82,0,0,1-38.67-328Q-33.13-323.3-33.14-316.89Z" transform="translate(752.31 1407.83)"/><path class="cls-6" d="M21.35-313.11H-19.16a12.64,12.64,0,0,0-.07,1.49A18.5,18.5,0,0,0-13.5-298,18.85,18.85,0,0,0,.28-292.3,19.91,19.91,0,0,0,10.37-295a18.59,18.59,0,0,0,7.3-7.39h2a23.73,23.73,0,0,1-8.25,8.61A20.58,20.58,0,0,1,.28-290.41a20.74,20.74,0,0,1-15.14-6.21,20.38,20.38,0,0,1-6.28-15,20.35,20.35,0,0,1,6.28-15A20.74,20.74,0,0,1,.28-332.84a20.81,20.81,0,0,1,14.6,5.68,20.36,20.36,0,0,1,6.75,14.05ZM.28-331a18.88,18.88,0,0,0-12.58,4.59A18.94,18.94,0,0,0-18.95-315H19.58a18.77,18.77,0,0,0-6.72-11.45A19.12,19.12,0,0,0,.28-331Z" transform="translate(752.31 1407.83)"/><path class="cls-6" d="M52.71-290.41a20.74,20.74,0,0,1-15.14-6.21,20.38,20.38,0,0,1-6.28-15,20.35,20.35,0,0,1,6.28-15,20.74,20.74,0,0,1,15.14-6.22,20.84,20.84,0,0,1,15.21,6.22,20.35,20.35,0,0,1,6.21,15,20.35,20.35,0,0,1-6.21,15A20.83,20.83,0,0,1,52.71-290.41ZM66.55-298a18.47,18.47,0,0,0,5.73-13.64,18.52,18.52,0,0,0-5.76-13.68A18.9,18.9,0,0,0,52.71-331a18.9,18.9,0,0,0-13.78,5.67,18.66,18.66,0,0,0-5.73,13.72A18.54,18.54,0,0,0,38.93-298a18.87,18.87,0,0,0,13.78,5.68A18.92,18.92,0,0,0,66.55-298Z" transform="translate(752.31 1407.83)"/><path class="cls-6" d="M143.56-312.5a12.56,12.56,0,0,1,3.61,9,12.56,12.56,0,0,1-3.61,9,12.94,12.94,0,0,1-8.8,4.12H111.23v-1.89H134a10.93,10.93,0,0,0,8-3.28,10.74,10.74,0,0,0,3.31-7.94,10.73,10.73,0,0,0-3.31-7.93,10.93,10.93,0,0,0-8-3.28v-.07H120.3a8.5,8.5,0,0,1-6.24-2.73,8.86,8.86,0,0,1-2.56-6.32,8.63,8.63,0,0,1,2.66-6.35,8.78,8.78,0,0,1,6.41-2.64h19.51V-331H120.57a6.92,6.92,0,0,0-5,2.09,6.89,6.89,0,0,0-2.12,5.07,7,7,0,0,0,2.12,5.1,6.84,6.84,0,0,0,5,2.13h14.19A12.94,12.94,0,0,1,143.56-312.5Z" transform="translate(752.31 1407.83)"/><path class="cls-6" d="M159.23-292.3v1.89h-1.91v-55.53h1.91v53.64Z" transform="translate(752.31 1407.83)"/><path class="cls-6" d="M176-341.41c0-.64.29-.95.88-.95s1,.31,1,.95-.34.94-1,.94S176-340.78,176-341.41Zm1.9,25.67v25.33H176v-42.43h1.9Z" transform="translate(752.31 1407.83)"/><path class="cls-6" d="M235.63-345.94h1.84v55.53h-1.84v-12.7a20,20,0,0,1-4.43,6.49A20.83,20.83,0,0,1,216-290.41a20.72,20.72,0,0,1-15.14-6.21,20.34,20.34,0,0,1-6.28-15,20.31,20.31,0,0,1,6.28-15A20.73,20.73,0,0,1,216-332.84a20.84,20.84,0,0,1,15.21,6.22,20,20,0,0,1,4.43,6.49ZM216-292.3A18.92,18.92,0,0,0,229.83-298a18.5,18.5,0,0,0,5.73-13.64,18.56,18.56,0,0,0-5.76-13.68A18.92,18.92,0,0,0,216-331a18.88,18.88,0,0,0-13.78,5.67,18.62,18.62,0,0,0-5.73,13.72A18.5,18.5,0,0,0,202.21-298,18.85,18.85,0,0,0,216-292.3Z" transform="translate(752.31 1407.83)"/><path class="cls-6" d="M292.68-313.11H252.17a12.64,12.64,0,0,0-.07,1.49A18.54,18.54,0,0,0,257.83-298a18.87,18.87,0,0,0,13.78,5.68A19.91,19.91,0,0,0,281.7-295a18.59,18.59,0,0,0,7.3-7.39h2a23.65,23.65,0,0,1-8.25,8.61,20.58,20.58,0,0,1-11.12,3.41,20.74,20.74,0,0,1-15.14-6.21,20.37,20.37,0,0,1-6.27-15,20.34,20.34,0,0,1,6.27-15,20.74,20.74,0,0,1,15.14-6.22,20.81,20.81,0,0,1,14.6,5.68A20.36,20.36,0,0,1,293-313.11ZM271.61-331A18.9,18.9,0,0,0,259-326.42,18.94,18.94,0,0,0,252.38-315h38.53a18.81,18.81,0,0,0-6.71-11.45A19.17,19.17,0,0,0,271.61-331Z" transform="translate(752.31 1407.83)"/><rect class="cls-6" x="682.59" y="1117.3" width="1.91" height="46.9"/><rect class="cls-6" x="159.72" y="-294.67" width="1.89" height="6.62" transform="translate(1204.34 1277.14) rotate(-90)"/><rect class="cls-6" x="179.57" y="-280.62" width="1.89" height="6.62" transform="translate(1210.14 1311.04) rotate(-90)"/><rect class="cls-6" x="183.48" y="-271.37" width="1.89" height="4.71" transform="translate(1205.75 1323.24) rotate(-90)"/><rect class="cls-6" x="185.62" y="-320.34" width="1.89" height="18.12" transform="translate(1250.15 1283.12) rotate(-90)"/><rect class="cls-6" x="934.26" y="1129.69" width="1.91" height="12.71"/><rect class="cls-6" x="90.3" y="-315.99" width="1.89" height="49.34" transform="translate(1134.88 1207.76) rotate(-90)"/><rect class="cls-6" x="928.3" y="1104.25" width="1.91" height="46.9"/><rect class="cls-6" x="909.59" y="1033.09" width="1.91" height="46.9"/><rect class="cls-6" x="674.76" y="1137.69" width="9.2" height="1.45"/><rect class="cls-6" x="-81.42" y="-266.32" width="9.11" height="1.46" transform="translate(941.03 1065.38) rotate(-90)"/><rect class="cls-6" x="-81.42" y="-261.19" width="9.11" height="1.46" transform="translate(935.9 1070.51) rotate(-90)"/><rect class="cls-7" x="1894.89" width="5.61" height="1.92"/><path class="cls-8" d="M3956-1945.5" transform="translate(752.31 1407.83)"/><path d="M1975.9,349.3v-11a5,5,0,0,0-2-3.94,7.23,7.23,0,0,0-4.75-1.65,6.68,6.68,0,0,0-4.44,1.54,5.24,5.24,0,0,0-2,3.78V349.3h-1V331.64h1V335a6,6,0,0,1,1.12-1.3,7.72,7.72,0,0,1,5.27-1.92,8.17,8.17,0,0,1,5.4,1.92,5.92,5.92,0,0,1,2.29,4.64v11Z" transform="translate(752.31 1407.83)"/><path d="M1962.66,331.77v3.66a5.81,5.81,0,0,1,1.34-1.67,7.58,7.58,0,0,1,5.18-1.88,8,8,0,0,1,5.32,1.88,5.79,5.79,0,0,1,2.24,4.55v10.86H1976V338.34a5.11,5.11,0,0,0-2-4,7.33,7.33,0,0,0-4.83-1.67,6.79,6.79,0,0,0-4.52,1.56,5.36,5.36,0,0,0-2,3.87v11.11h-.77v-17.4h.77m.25-.25h-1.27v17.9h1.27V338.06a5.11,5.11,0,0,1,1.91-3.68,6.56,6.56,0,0,1,4.36-1.5,7,7,0,0,1,4.67,1.62,4.84,4.84,0,0,1,1.92,3.84v11.08H1977V338.31a6.05,6.05,0,0,0-2.33-4.74,8.29,8.29,0,0,0-5.48-1.94,7.79,7.79,0,0,0-5.35,1.95,7.08,7.08,0,0,0-.92,1v-3Z" transform="translate(752.31 1407.83)"/><path d="M1990.32,349.3a8.84,8.84,0,1,1,8.8-9.45V340h-16.59c0,.12,0,.28,0,.48a7.82,7.82,0,0,0,7.8,7.8,7.91,7.91,0,0,0,4-1.11,7.47,7.47,0,0,0,2.92-3l0-.07h1.09l-.1.19a9.82,9.82,0,0,1-3.39,3.58A8.49,8.49,0,0,1,1990.32,349.3ZM1998,339a7.82,7.82,0,0,0-15.35,0Z" transform="translate(752.31 1407.83)"/><path d="M1990.32,331.77a8.69,8.69,0,0,1,8.68,8.09h-16.58c0,.13,0,.33,0,.61a7.94,7.94,0,0,0,7.92,7.93,8,8,0,0,0,4.1-1.13,7.59,7.59,0,0,0,3-3h.8a9.58,9.58,0,0,1-3.35,3.53,8.64,8.64,0,1,1-4.52-16m-7.81,7.31h15.65a7.94,7.94,0,0,0-13-4.68,7.8,7.8,0,0,0-2.7,4.68m7.81-7.56a9,9,0,1,0,0,17.9A8.51,8.51,0,0,0,1995,348a9.91,9.91,0,0,0,3.44-3.62l.2-.37h-1.37l-.07.13a7.44,7.44,0,0,1-2.87,2.94,7.9,7.9,0,0,1-4,1.09,7.7,7.7,0,0,1-7.67-7.68v-.36h16.61l0-.27a8.91,8.91,0,0,0-8.92-8.32Zm-7.51,7.31a7.59,7.59,0,0,1,2.56-4.24,7.42,7.42,0,0,1,5-1.82,7.76,7.76,0,0,1,7.54,6.06Z" transform="translate(752.31 1407.83)"/><path d="M2011.63,349.3a8.79,8.79,0,1,1,6.26-2.59A8.51,8.51,0,0,1,2011.63,349.3Zm0-16.66a7.87,7.87,0,1,0,5.52,2.31A7.54,7.54,0,0,0,2011.63,332.64Z" transform="translate(752.31 1407.83)"/><path d="M2011.63,331.77a8.71,8.71,0,1,1-6.16,2.55,8.42,8.42,0,0,1,6.16-2.55m0,16.63a8,8,0,1,0-5.6-2.33,7.67,7.67,0,0,0,5.6,2.33m0-16.88a8.91,8.91,0,1,0,6.35,2.62,8.66,8.66,0,0,0-6.35-2.62Zm0,16.63a7.72,7.72,0,1,1,5.44-2.26,7.42,7.42,0,0,1-5.44,2.26Z" transform="translate(752.31 1407.83)"/><path d="M2035.28,349.3v-1h9.38a4.48,4.48,0,1,0,0-8.95h-.13v0h-5.44a3.6,3.6,0,0,1-2.63-1.16,3.78,3.78,0,0,1-1.07-2.68,3.82,3.82,0,0,1,3.81-3.81h8v1h-8a2.69,2.69,0,0,0-2,.82,2.73,2.73,0,0,0-.83,2,2.77,2.77,0,0,0,.83,2,2.66,2.66,0,0,0,2,.83H2045a5.44,5.44,0,0,1,3.67,1.73,5.5,5.5,0,0,1,0,7.55,5.43,5.43,0,0,1-3.66,1.73h-9.69Z" transform="translate(752.31 1407.83)"/><path d="M2047.12,331.77v.75h-7.92a2.76,2.76,0,0,0-2,.86,2.82,2.82,0,0,0-.86,2.07,2.91,2.91,0,0,0,.86,2.1,2.77,2.77,0,0,0,2,.87H2045a5.25,5.25,0,0,1,3.58,1.69,5.39,5.39,0,0,1-3.58,9.06h-9.56v-.77h9.26a4.6,4.6,0,1,0,0-9.2v0h-5.57a3.46,3.46,0,0,1-2.54-1.12,3.67,3.67,0,0,1-1-2.6,3.7,3.7,0,0,1,3.69-3.68h7.92m.25-.25h-8.17a3.94,3.94,0,0,0-3.94,3.93,3.94,3.94,0,0,0,1.11,2.77,3.74,3.74,0,0,0,2.71,1.2h5.33l.25,0a4.35,4.35,0,0,1,0,8.7h-9.51v1.27H2045a5.48,5.48,0,0,0,3.76-1.77,5.6,5.6,0,0,0,0-7.71,5.51,5.51,0,0,0-3.74-1.77h-5.78a2.51,2.51,0,0,1-1.87-.8,2.63,2.63,0,0,1-.79-1.92,2.57,2.57,0,0,1,.79-1.9,2.51,2.51,0,0,1,1.87-.78h8.17v-1.25Z" transform="translate(752.31 1407.83)"/><polygon points="2806.31 1757.13 2806.31 1734.1 2807.25 1734.1 2807.34 1734.22 2807.34 1757.13 2806.31 1757.13"/><path d="M2054.91,326.39v22.78h-.78V326.39h.78m.25-.25h-1.28v23.28h1.28V326.14Z" transform="translate(752.31 1407.83)"/><path d="M2061.58,349.3V331.64h1V349.3Zm.49-20.54a.51.51,0,0,1,0-1,.51.51,0,1,1,0,1Z" transform="translate(752.31 1407.83)"/><path d="M2062.07,327.86c.27,0,.41.13.41.39s-.14.39-.41.39-.36-.13-.36-.39.12-.39.36-.39m.41,3.91v17.4h-.77v-17.4h.77m-.41-4.16a.64.64,0,0,0,0,1.28.64.64,0,1,0,0-1.28Zm.66,3.91h-1.27v17.9h1.27v-17.9Z" transform="translate(752.31 1407.83)"/><path d="M2085.82,349.3v-4.77a8.48,8.48,0,0,1-1.58,2.18,8.83,8.83,0,1,1,0-12.48,8.48,8.48,0,0,1,1.58,2.18V326.27h1v23ZM2078,332.64a7.89,7.89,0,1,0,5.52,2.31A7.54,7.54,0,0,0,2078,332.64Z" transform="translate(752.31 1407.83)"/><path d="M2086.7,326.39v22.78H2086V344a8.24,8.24,0,0,1-1.8,2.66,8.7,8.7,0,1,1,0-12.3A8.24,8.24,0,0,1,2086,337V326.39h.75m-8.73,22a8,8,0,1,0-5.6-2.33,7.66,7.66,0,0,0,5.6,2.33m9-22.26h-1.25v9.77a8.82,8.82,0,0,0-1.38-1.77,9,9,0,1,0,0,12.66,8.82,8.82,0,0,0,1.38-1.77v4.39H2087V326.14Zm-9,22a7.7,7.7,0,1,1,5.45-2.26,7.4,7.4,0,0,1-5.45,2.26Z" transform="translate(752.31 1407.83)"/><path d="M2100.57,349.3a8.84,8.84,0,1,1,8.8-9.45V340h-16.6c0,.12,0,.28,0,.48a7.82,7.82,0,0,0,7.8,7.8,7.93,7.93,0,0,0,4-1.11,7.53,7.53,0,0,0,2.92-3l0-.07h1.09l-.1.19a9.77,9.77,0,0,1-3.4,3.58A8.43,8.43,0,0,1,2100.57,349.3Zm7.69-10.34a7.87,7.87,0,0,0-7.69-6.32,7.55,7.55,0,0,0-5,1.86,7.69,7.69,0,0,0-2.64,4.46Z" transform="translate(752.31 1407.83)"/><path d="M2100.57,331.77a8.68,8.68,0,0,1,8.67,8.09h-16.57a4.4,4.4,0,0,0,0,.61,8,8,0,0,0,7.93,7.93,8,8,0,0,0,4.1-1.13,7.66,7.66,0,0,0,3-3h.8a9.74,9.74,0,0,1-3.35,3.53,8.64,8.64,0,1,1-4.52-16m-7.82,7.31h15.66a7.94,7.94,0,0,0-12.95-4.68,7.86,7.86,0,0,0-2.71,4.68m7.82-7.56a9,9,0,1,0,0,17.9,8.51,8.51,0,0,0,4.65-1.44,9.91,9.91,0,0,0,3.44-3.62l.2-.37h-1.37l-.08.13a7.31,7.31,0,0,1-2.87,2.94,7.83,7.83,0,0,1-4,1.09,7.72,7.72,0,0,1-7.68-7.68c0-.15,0-.27,0-.36h16.61l0-.27a8.91,8.91,0,0,0-8.92-8.32Zm-7.51,7.31a7.59,7.59,0,0,1,2.56-4.24,7.41,7.41,0,0,1,5-1.82,7.76,7.76,0,0,1,7.54,6.06Z" transform="translate(752.31 1407.83)"/><rect x="2714.06" y="1756.83" width="1.03" height="19.49"/><path d="M1962.66,349.12v19.24h-.78V349.12h.78m.25-.25h-1.28v19.74h1.28V348.87Z" transform="translate(752.31 1407.83)"/><rect x="2806.33" y="1756.1" width="2.94" height="1.03"/><path d="M2056.84,348.39v.78h-2.69v-.78h2.69m.25-.25h-3.19v1.28h3.19v-1.28Z" transform="translate(752.31 1407.83)"/><rect x="2814.39" y="1761.87" width="2.94" height="1.03"/><path d="M2064.9,354.16v.77h-2.69v-.77h2.69m.25-.25H2062v1.27h3.19v-1.27Z" transform="translate(752.31 1407.83)"/><rect x="2816.37" y="1765.27" width="2.16" height="1.03"/><path d="M2066.1,357.56v.77h-1.91v-.77h1.91m.25-.25h-2.41v1.27h2.41v-1.27Z" transform="translate(752.31 1407.83)"/><rect x="2814.52" y="1747.93" width="7.61" height="1.03"/><path d="M2069.69,340.22V341h-7.36v-.78h7.36m.25-.25h-7.86v1.28h7.86V340Z" transform="translate(752.31 1407.83)"/><rect x="2816.32" y="1761.91" width="1.03" height="5.47"/><path d="M2064.92,354.2v5.22h-.78V354.2h.78m.25-.25h-1.28v5.72h1.28V354Z" transform="translate(752.31 1407.83)"/><rect x="2769.44" y="1756.12" width="20.3" height="1.03"/><path d="M2037.31,348.41v.78h-20v-.78h20m.25-.25H2017v1.28h20.55v-1.28Z" transform="translate(752.31 1407.83)"/><rect x="2813.9" y="1751.47" width="1.03" height="19.49"/><path d="M2062.49,343.77V363h-.77V343.77h.77m.25-.25h-1.27v19.73h1.27V343.52Z" transform="translate(752.31 1407.83)"/><rect x="2806.3" y="1728.31" width="1.03" height="13.46"/><path d="M2054.89,320.6v13.21h-.77V320.6h.77m.25-.25h-1.27v13.71h1.27V320.35Z" transform="translate(752.31 1407.83)"/><rect x="2710.88" y="1765.19" width="3.99" height="0.84"/><path d="M1962.44,357.49v.59h-3.74v-.59h3.74m.25-.25h-4.24v1.09h4.24v-1.09Z" transform="translate(752.31 1407.83)"/><rect x="2710.86" y="1765.19" width="0.84" height="3.99"/><path d="M1959.27,357.49v3.73h-.59v-3.73h.59m.25-.25h-1.09v4.23h1.09v-4.23Z" transform="translate(752.31 1407.83)"/><rect x="2710.86" y="1767.3" width="0.84" height="3.99"/><path d="M1959.27,359.59v3.73h-.59v-3.73h.59m.25-.25h-1.09v4.23h1.09v-4.23Z" transform="translate(752.31 1407.83)"/><path class="cls-3" d="M1314.93,329.23v-11a5,5,0,0,0-2-3.94,7.23,7.23,0,0,0-4.75-1.65,6.68,6.68,0,0,0-4.44,1.54,5.21,5.21,0,0,0-2,3.78v11.23h-1V311.58h1v3.32a5.76,5.76,0,0,1,1.12-1.3,7.71,7.71,0,0,1,5.27-1.91,8.18,8.18,0,0,1,5.4,1.91,5.92,5.92,0,0,1,2.29,4.64v11Z" transform="translate(752.31 1407.83)"/><path class="cls-3" d="M1301.69,311.7v3.66a5.9,5.9,0,0,1,1.33-1.66,7.56,7.56,0,0,1,5.19-1.89,8,8,0,0,1,5.32,1.89,5.8,5.8,0,0,1,2.24,4.54V329.1h-.72V318.27a5.07,5.07,0,0,0-2-4,7.29,7.29,0,0,0-4.83-1.68,6.74,6.74,0,0,0-4.52,1.57,5.32,5.32,0,0,0-2,3.86V329.1h-.77V311.7h.77m.25-.25h-1.27v17.9h1.27V318a5.08,5.08,0,0,1,1.91-3.67,6.57,6.57,0,0,1,4.36-1.51,7.06,7.06,0,0,1,4.67,1.62,4.87,4.87,0,0,1,1.92,3.84v11.08H1316V318.24a6,6,0,0,0-2.33-4.73,8.3,8.3,0,0,0-5.48-1.95,7.84,7.84,0,0,0-5.35,1.95,6.14,6.14,0,0,0-.92,1v-3.05Z" transform="translate(752.31 1407.83)"/><path class="cls-3" d="M1329.35,329.23a8.84,8.84,0,1,1,8.8-9.45v.14h-16.6c0,.12,0,.28,0,.48a7.82,7.82,0,0,0,7.8,7.8,8,8,0,0,0,4-1.1,7.56,7.56,0,0,0,2.92-3l0-.06h1.09l-.1.18a9.75,9.75,0,0,1-3.39,3.58A8.49,8.49,0,0,1,1329.35,329.23Zm7.69-10.34a7.81,7.81,0,0,0-12.72-4.46,7.69,7.69,0,0,0-2.63,4.46Z" transform="translate(752.31 1407.83)"/><path class="cls-3" d="M1329.35,311.7a8.68,8.68,0,0,1,8.67,8.09h-16.57a4.5,4.5,0,0,0,0,.61,8,8,0,0,0,7.93,7.93,8.13,8.13,0,0,0,4.1-1.12,7.68,7.68,0,0,0,3-3h.8a9.58,9.58,0,0,1-3.35,3.53,8.24,8.24,0,0,1-4.52,1.4,8.7,8.7,0,0,1,0-17.4m-7.81,7.32h15.65a7.94,7.94,0,0,0-13-4.69,7.8,7.8,0,0,0-2.7,4.69m7.81-7.57a9,9,0,1,0,4.65,16.47,10,10,0,0,0,3.44-3.63l.2-.37h-1.37l-.07.13a7.44,7.44,0,0,1-2.87,2.94,7.9,7.9,0,0,1-4,1.09,7.72,7.72,0,0,1-7.68-7.68c0-.15,0-.27,0-.36h16.61l0-.26a8.91,8.91,0,0,0-8.92-8.33Zm-7.51,7.32a7.61,7.61,0,0,1,2.56-4.25,7.42,7.42,0,0,1,4.95-1.82,7.75,7.75,0,0,1,7.54,6.07Z" transform="translate(752.31 1407.83)"/><path class="cls-3" d="M1350.65,329.23a8.79,8.79,0,1,1,6.27-2.59A8.54,8.54,0,0,1,1350.65,329.23Zm0-16.66a7.87,7.87,0,1,0,5.53,2.31A7.52,7.52,0,0,0,1350.65,312.57Z" transform="translate(752.31 1407.83)"/><path class="cls-3" d="M1350.65,311.7a8.71,8.71,0,1,1-6.15,2.55,8.4,8.4,0,0,1,6.15-2.55m0,16.63a7.94,7.94,0,0,0,0-15.88,7.94,7.94,0,0,0,0,15.88m0-16.88a8.91,8.91,0,1,0,6.36,2.62,8.64,8.64,0,0,0-6.36-2.62Zm0,16.63a7.72,7.72,0,1,1,5.45-2.26,7.42,7.42,0,0,1-5.45,2.26Z" transform="translate(752.31 1407.83)"/><path class="cls-3" d="M1374.31,329.23v-1h9.38a4.48,4.48,0,0,0,0-8.95h-.13v0h-5.44a3.53,3.53,0,0,1-2.63-1.16,3.77,3.77,0,0,1-1.07-2.67,3.81,3.81,0,0,1,3.81-3.81h8v1h-8a2.66,2.66,0,0,0-2,.83,2.7,2.7,0,0,0-.83,2,2.77,2.77,0,0,0,.83,2,2.63,2.63,0,0,0,2,.84H1384a5.5,5.5,0,0,1,3.67,9.27,5.43,5.43,0,0,1-3.66,1.73h-9.69Z" transform="translate(752.31 1407.83)"/><path class="cls-3" d="M1386.15,311.7v.75h-7.92a2.8,2.8,0,0,0-2,.86,2.83,2.83,0,0,0-.86,2.08,2.89,2.89,0,0,0,.86,2.09,2.77,2.77,0,0,0,2,.87H1384a5.25,5.25,0,0,1,3.58,1.69,5.39,5.39,0,0,1-3.58,9.06h-9.56v-.77h9.26a4.6,4.6,0,1,0,0-9.2v0h-5.57a3.46,3.46,0,0,1-2.54-1.12,3.66,3.66,0,0,1-1-2.59,3.69,3.69,0,0,1,3.69-3.69h7.92m.25-.25h-8.17a3.94,3.94,0,0,0-3.94,3.94,3.9,3.9,0,0,0,1.11,2.76,3.71,3.71,0,0,0,2.71,1.2h5.33l.25,0a4.35,4.35,0,1,1,0,8.7h-9.51v1.27H1384a5.64,5.64,0,0,0,0-11.25h-5.78a2.49,2.49,0,0,1-1.87-.8,2.7,2.7,0,0,1,0-3.82,2.55,2.55,0,0,1,1.87-.78h8.17v-1.25Z" transform="translate(752.31 1407.83)"/><polygon class="cls-3" points="2145.34 1737.06 2145.34 1714.03 2146.28 1714.03 2146.37 1714.16 2146.37 1737.06 2145.34 1737.06"/><path class="cls-3" d="M1393.93,306.32V329.1h-.77V306.32h.77m.25-.25h-1.27v23.28h1.27V306.07Z" transform="translate(752.31 1407.83)"/><path class="cls-3" d="M1400.61,329.23V311.58h1v17.65Zm.48-20.54a.51.51,0,0,1,0-1,.51.51,0,1,1,0,1Z" transform="translate(752.31 1407.83)"/><path class="cls-3" d="M1401.09,307.79q.42,0,.42.39t-.42.39q-.36,0-.36-.39t.36-.39m.42,3.91v17.4h-.78V311.7h.78m-.42-4.16a.64.64,0,0,0,0,1.28.64.64,0,1,0,0-1.28Zm.67,3.91h-1.28v17.9h1.28v-17.9Z" transform="translate(752.31 1407.83)"/><path class="cls-3" d="M1424.85,329.23v-4.77a8.29,8.29,0,0,1-1.59,2.18,8.82,8.82,0,1,1,0-12.48,8.29,8.29,0,0,1,1.59,2.18V306.2h1v23ZM1417,312.57a7.87,7.87,0,1,0,5.52,2.31A7.51,7.51,0,0,0,1417,312.57Z" transform="translate(752.31 1407.83)"/><path class="cls-3" d="M1425.73,306.32V329.1H1425v-5.21a8.24,8.24,0,0,1-1.8,2.66,8.7,8.7,0,1,1,0-12.3,8.24,8.24,0,0,1,1.8,2.66V306.32h.75m-8.73,22a8,8,0,1,0-5.6-2.33,7.67,7.67,0,0,0,5.6,2.33m9-22.26h-1.25v9.78a8.6,8.6,0,0,0-1.38-1.78,9,9,0,1,0,0,12.66,8.55,8.55,0,0,0,1.38-1.77v4.39H1426V306.07Zm-9,22a7.72,7.72,0,1,1,5.44-2.26,7.42,7.42,0,0,1-5.44,2.26Z" transform="translate(752.31 1407.83)"/><path class="cls-3" d="M1439.6,329.23a8.83,8.83,0,1,1,8.8-9.45v.14h-16.6c0,.12,0,.28,0,.48a7.82,7.82,0,0,0,7.8,7.8,8,8,0,0,0,4-1.1,7.53,7.53,0,0,0,2.91-3l0-.06h1.09l-.1.18a9.85,9.85,0,0,1-3.4,3.58A8.43,8.43,0,0,1,1439.6,329.23Zm7.69-10.34a7.9,7.9,0,0,0-7.69-6.32,7.53,7.53,0,0,0-5,1.86,7.7,7.7,0,0,0-2.64,4.46Z" transform="translate(752.31 1407.83)"/><path class="cls-3" d="M1439.6,311.7a8.68,8.68,0,0,1,8.67,8.09H1431.7a4.5,4.5,0,0,0,0,.61,8,8,0,0,0,7.93,7.93,8.16,8.16,0,0,0,4.1-1.12,7.59,7.59,0,0,0,3-3h.81a9.74,9.74,0,0,1-3.35,3.53,8.26,8.26,0,0,1-4.52,1.4,8.7,8.7,0,0,1,0-17.4m-7.82,7.32h15.66a7.95,7.95,0,0,0-13-4.69,7.85,7.85,0,0,0-2.7,4.69m7.82-7.57a9,9,0,1,0,4.65,16.47,10,10,0,0,0,3.44-3.63l.2-.37h-1.38l-.07.13a7.37,7.37,0,0,1-2.87,2.94,7.83,7.83,0,0,1-4,1.09,7.72,7.72,0,0,1-7.68-7.68c0-.15,0-.27,0-.36h16.61l0-.26a8.91,8.91,0,0,0-8.92-8.33Zm-7.51,7.32a7.61,7.61,0,0,1,2.56-4.25,7.41,7.41,0,0,1,4.95-1.82,7.75,7.75,0,0,1,7.54,6.07Z" transform="translate(752.31 1407.83)"/><rect class="cls-3" x="2053.09" y="1736.76" width="1.03" height="19.49"/><path class="cls-3" d="M1301.69,329.05v19.24h-.78V329.05h.78m.25-.25h-1.28v19.74h1.28V328.8Z" transform="translate(752.31 1407.83)"/><rect class="cls-3" x="2145.36" y="1736.03" width="2.94" height="1.03"/><path class="cls-3" d="M1395.87,328.32v.78h-2.69v-.78h2.69m.25-.25h-3.19v1.28h3.19v-1.28Z" transform="translate(752.31 1407.83)"/><rect class="cls-3" x="2153.42" y="1741.8" width="2.94" height="1.03"/><path class="cls-3" d="M1403.93,334.09v.78h-2.69v-.78h2.69m.25-.25H1401v1.28h3.19v-1.28Z" transform="translate(752.31 1407.83)"/><rect class="cls-3" x="2155.4" y="1745.2" width="2.16" height="1.03"/><path class="cls-3" d="M1405.13,337.49v.78h-1.92v-.78h1.92m.25-.25H1403v1.28h2.42v-1.28Z" transform="translate(752.31 1407.83)"/><rect class="cls-3" x="2153.54" y="1727.86" width="7.61" height="1.03"/><path class="cls-3" d="M1408.72,320.16v.77h-7.36v-.77h7.36m.25-.25h-7.86v1.27H1409v-1.27Z" transform="translate(752.31 1407.83)"/><rect class="cls-3" x="2155.35" y="1741.84" width="1.03" height="5.47"/><path class="cls-3" d="M1403.94,334.14v5.21h-.77v-5.21h.77m.25-.25h-1.27v5.71h1.27v-5.71Z" transform="translate(752.31 1407.83)"/><rect class="cls-3" x="2108.47" y="1736.05" width="20.3" height="1.03"/><path class="cls-3" d="M1376.34,328.34v.78h-20v-.78h20m.25-.25H1356v1.28h20.55v-1.28Z" transform="translate(752.31 1407.83)"/><rect class="cls-3" x="2152.93" y="1731.41" width="1.03" height="19.49"/><path class="cls-3" d="M1401.52,323.7v19.24h-.77V323.7h.77m.25-.25h-1.27v19.74h1.27V323.45Z" transform="translate(752.31 1407.83)"/><rect class="cls-3" x="2145.33" y="1708.24" width="1.03" height="13.46"/><path class="cls-3" d="M1393.92,300.53v13.22h-.77V300.53h.77m.25-.25h-1.27V314h1.27V300.28Z" transform="translate(752.31 1407.83)"/><rect class="cls-3" x="2049.91" y="1745.13" width="3.99" height="0.84"/><path class="cls-3" d="M1301.47,337.42V338h-3.74v-.59h3.74m.25-.25h-4.24v1.09h4.24v-1.09Z" transform="translate(752.31 1407.83)"/><rect class="cls-3" x="2049.89" y="1745.13" width="0.84" height="3.99"/><path class="cls-3" d="M1298.3,337.42v3.73h-.59v-3.73h.59m.25-.25h-1.09v4.23h1.09v-4.23Z" transform="translate(752.31 1407.83)"/><rect class="cls-3" x="2049.89" y="1747.23" width="0.84" height="3.99"/><path class="cls-3" d="M1298.3,339.52v3.74h-.59v-3.74h.59m.25-.25h-1.09v4.24h1.09v-4.24Z" transform="translate(752.31 1407.83)"/><path class="cls-3" d="M1389.73,234.44a2.78,2.78,0,0,1,2,.91l29.77,31.4,16.74-15.87-29.76-31.4a26,26,0,0,0-37.68,35.71l11.91,12.56a2.82,2.82,0,0,1,.8,2.06,2.9,2.9,0,0,1-4,2.61,2.73,2.73,0,0,1-1-.7c-3.28-3.42-6.61-6.8-9.9-10.21a5.46,5.46,0,0,1-1.39-2.09,6.15,6.15,0,0,1,.26-4.26l-17.89-18.87h0l-17.09-18A26,26,0,0,0,1294.83,254l12.62,13.17.07-.06,16.32,16.84,16.57-16.06-16.14-16.65h0l-12.69-13.12a2.72,2.72,0,0,1-.8-2.06,2.88,2.88,0,0,1,5-1.9l29.77,31.39h0l6.27,6.61h0a7.24,7.24,0,0,0-.3,2.88,7.5,7.5,0,0,0,1.57,3.83,88.2,88.2,0,0,0,8.7,8.75c3.44,3,5.22,4.56,8.1,5.86a25.92,25.92,0,0,0,10,2.22,26,26,0,0,0,19.53-43.79l-11.9-12.56a2.86,2.86,0,0,1,.11-4.08A2.79,2.79,0,0,1,1389.73,234.44Z" transform="translate(752.31 1407.83)"/><path class="cls-9" d="M1367.5,255.16a6.07,6.07,0,0,0-.26,4.26c.7,2,2.47,2.62,4.91,5.1a22,22,0,0,1,3,4l-14.82,17.59c-2.2-2.19-3.94-4.16-5.23-5.71-2.15-2.59-3-3.91-3.05-5.64a6.41,6.41,0,0,1,.55-2.9Z" transform="translate(752.31 1407.83)"/><path class="cls-10" d="M1332.56,272.78c-2.88-2.67-7.45-6.81-13.26-11.69-13.61-11.43-18.94-14.41-20.34-21.4-.17-.88-1.49-8,3-13.14,5-5.7,13.55-4.74,14.44-4.63a17.94,17.94,0,0,1,4.75,1.31c3,1.28,4.77,3,7.6,6,2.45,2.56,5.28,5.64,8.34,9.21" transform="translate(752.31 1407.83)"/><path class="cls-11" d="M1407.55,271.59c-2.88-2.67-7.45-6.82-13.26-11.7-13.63-11.45-19.26-14.47-20.33-21.39-.07-.41-1-7.11,3.37-12.28,5-5.94,13.28-5.41,14.11-5.35,4.28.32,7.8,2.25,20.93,14.49" transform="translate(752.31 1407.83)"/><path class="cls-2" d="M1030.27-187.21a7.69,7.69,0,0,0-5.62-2.34,7.58,7.58,0,0,0-5.59,2.33,7.66,7.66,0,0,0-2.33,5.62,7.64,7.64,0,0,0,2.33,5.6,7.62,7.62,0,0,0,5.59,2.33,7.68,7.68,0,0,0,5.63-2.33,7.64,7.64,0,0,0,2.33-5.6A7.65,7.65,0,0,0,1030.27-187.21Z" transform="translate(752.31 1407.83)"/><path class="cls-2" d="M1003.35-189.55a7.6,7.6,0,0,0-5.11,1.88,7.37,7.37,0,0,0-2.7,4.67h15.65a7.37,7.37,0,0,0-2.73-4.69A7.69,7.69,0,0,0,1003.35-189.55Z" transform="translate(752.31 1407.83)"/><path class="cls-2" d="M1091-189.55a7.6,7.6,0,0,0-5.6,2.33,7.66,7.66,0,0,0-2.33,5.62,7.64,7.64,0,0,0,2.33,5.6,7.64,7.64,0,0,0,5.6,2.33,7.67,7.67,0,0,0,5.62-2.33,7.64,7.64,0,0,0,2.33-5.6,7.65,7.65,0,0,0-2.34-5.61A7.65,7.65,0,0,0,1091-189.55Z" transform="translate(752.31 1407.83)"/><path class="cls-2" d="M1118.71-187.69a7.71,7.71,0,0,0-5.11-1.86,7.67,7.67,0,0,0-5.12,1.87,7.47,7.47,0,0,0-2.7,4.68h15.66A7.37,7.37,0,0,0,1118.71-187.69Z" transform="translate(752.31 1407.83)"/><path class="cls-3" d="M989-173v-10.73a5,5,0,0,0-2-3.94,7.27,7.27,0,0,0-4.77-1.64,6.46,6.46,0,0,0-4.36,1.53A4.83,4.83,0,0,0,976-184v11h-1v-17h1v2.9c0-.48.59-.91,1-1.3a7.6,7.6,0,0,1,5.22-1.91,8.24,8.24,0,0,1,5.43,1.91,6,6,0,0,1,2.32,4.64V-173Z" transform="translate(752.31 1407.83)"/><path class="cls-3" d="M976-190v3.36c0-.63.62-1.18,1.18-1.66a7.34,7.34,0,0,1,5.1-1.89,8.21,8.21,0,0,1,5.4,1.89,5.86,5.86,0,0,1,2.32,4.54V-173h-1v-10.73a5,5,0,0,0-2-4,7.27,7.27,0,0,0-4.83-1.68,6.3,6.3,0,0,0-4.35,1.57A4.83,4.83,0,0,0,976-184v11h-1v-17h1m0-1h-1v18h.94l.06.1V-184a4.75,4.75,0,0,1,1.88-3.67,6.52,6.52,0,0,1,4.34-1.51,7.31,7.31,0,0,1,4.77,1.62,5,5,0,0,1,2,3.84V-173h1v-10.76a6,6,0,0,0-2.32-4.73,8.3,8.3,0,0,0-5.48-1.95,7.75,7.75,0,0,0-5.31,1.95c-.35.3-.89.63-.89,1V-191Z" transform="translate(752.31 1407.83)"/><path class="cls-3" d="M1003.35-172.77a8.53,8.53,0,0,1-6.24-2.59,8.51,8.51,0,0,1-2.59-6.24,8.54,8.54,0,0,1,2.59-6.24,8.56,8.56,0,0,1,6.24-2.58,8.56,8.56,0,0,1,6,2.36,8.57,8.57,0,0,1,2.78,5.84v.14h-16.6c0,.12,0,.28,0,.48a7.54,7.54,0,0,0,2.29,5.51,7.54,7.54,0,0,0,5.51,2.29,8,8,0,0,0,4-1.1,7.56,7.56,0,0,0,2.92-3l0-.06h1.09l-.1.18a9.75,9.75,0,0,1-3.39,3.58A8.49,8.49,0,0,1,1003.35-172.77Zm7.69-10.34a7.56,7.56,0,0,0-2.66-4.47,7.61,7.61,0,0,0-5-1.85,7.55,7.55,0,0,0-5,1.86,7.69,7.69,0,0,0-2.63,4.46Z" transform="translate(752.31 1407.83)"/><path class="cls-3" d="M1003.35-190.3a8.4,8.4,0,0,1,5.93,2.33,8.34,8.34,0,0,1,2.74,5.76H995.45a4.4,4.4,0,0,0,0,.61,7.64,7.64,0,0,0,2.33,5.6,7.64,7.64,0,0,0,5.6,2.33,8.13,8.13,0,0,0,4.1-1.12,7.68,7.68,0,0,0,3-3h.8a9.58,9.58,0,0,1-3.35,3.53,8.24,8.24,0,0,1-4.52,1.4,8.38,8.38,0,0,1-6.15-2.55,8.37,8.37,0,0,1-2.55-6.15,8.38,8.38,0,0,1,2.55-6.15,8.38,8.38,0,0,1,6.15-2.55M995.54-183h15.65a7.68,7.68,0,0,0-2.73-4.7,7.7,7.7,0,0,0-5.11-1.87,7.65,7.65,0,0,0-5.11,1.88,7.8,7.8,0,0,0-2.7,4.69m7.81-7.57a8.66,8.66,0,0,0-6.33,2.62,8.66,8.66,0,0,0-2.62,6.33,8.66,8.66,0,0,0,2.62,6.33,8.66,8.66,0,0,0,6.33,2.62,8.51,8.51,0,0,0,4.65-1.44,9.91,9.91,0,0,0,3.44-3.62l.2-.37h-1.37l-.07.13a7.44,7.44,0,0,1-2.87,2.94,7.9,7.9,0,0,1-4,1.09,7.4,7.4,0,0,1-5.42-2.26,7.4,7.4,0,0,1-2.26-5.42c0-.15,0-.27,0-.36h16.61l0-.26a8.7,8.7,0,0,0-2.82-5.94,8.71,8.71,0,0,0-6.1-2.39Zm-7.51,7.32a7.61,7.61,0,0,1,2.56-4.25,7.42,7.42,0,0,1,5-1.82,7.52,7.52,0,0,1,4.95,1.81,7.48,7.48,0,0,1,2.59,4.26Z" transform="translate(752.31 1407.83)"/><path class="cls-3" d="M1024.65-172.77a8.54,8.54,0,0,1-6.24-2.59,8.54,8.54,0,0,1-2.58-6.24,8.57,8.57,0,0,1,2.58-6.24,8.57,8.57,0,0,1,6.24-2.58,8.57,8.57,0,0,1,6.27,2.58,8.53,8.53,0,0,1,2.56,6.24,8.53,8.53,0,0,1-2.56,6.24A8.54,8.54,0,0,1,1024.65-172.77Zm0-16.66a7.56,7.56,0,0,0-5.51,2.3,7.57,7.57,0,0,0-2.29,5.53,7.54,7.54,0,0,0,2.29,5.51,7.55,7.55,0,0,0,5.51,2.29,7.57,7.57,0,0,0,5.54-2.29,7.54,7.54,0,0,0,2.29-5.51,7.56,7.56,0,0,0-2.3-5.52A7.58,7.58,0,0,0,1024.65-189.43Z" transform="translate(752.31 1407.83)"/><path class="cls-3" d="M1024.65-190.3a8.4,8.4,0,0,1,6.18,2.55,8.38,8.38,0,0,1,2.53,6.15,8.38,8.38,0,0,1-2.53,6.15,8.4,8.4,0,0,1-6.18,2.55,8.38,8.38,0,0,1-6.15-2.55,8.37,8.37,0,0,1-2.55-6.15,8.38,8.38,0,0,1,2.55-6.15,8.38,8.38,0,0,1,6.15-2.55m0,16.63a7.68,7.68,0,0,0,5.63-2.33,7.64,7.64,0,0,0,2.33-5.6,7.65,7.65,0,0,0-2.34-5.61,7.69,7.69,0,0,0-5.62-2.34,7.58,7.58,0,0,0-5.59,2.33,7.66,7.66,0,0,0-2.33,5.62,7.64,7.64,0,0,0,2.33,5.6,7.62,7.62,0,0,0,5.59,2.33m0-16.88a8.64,8.64,0,0,0-6.32,2.62,8.67,8.67,0,0,0-2.63,6.33,8.67,8.67,0,0,0,2.63,6.33,8.62,8.62,0,0,0,6.32,2.62,8.7,8.7,0,0,0,6.36-2.62,8.66,8.66,0,0,0,2.6-6.33,8.69,8.69,0,0,0-2.6-6.33,8.7,8.7,0,0,0-6.36-2.62Zm0,16.63a7.42,7.42,0,0,1-5.42-2.26,7.43,7.43,0,0,1-2.25-5.42,7.48,7.48,0,0,1,2.25-5.45,7.45,7.45,0,0,1,5.42-2.25,7.43,7.43,0,0,1,5.44,2.27,7.45,7.45,0,0,1,2.27,5.43,7.4,7.4,0,0,1-2.26,5.42,7.44,7.44,0,0,1-5.45,2.26Z" transform="translate(752.31 1407.83)"/><path class="cls-3" d="M1050-173v-1h-2v.22l.43-.22h9.26a4.22,4.22,0,0,0,3.16-1.21,4.19,4.19,0,0,0,1.31-3.11,4.54,4.54,0,0,0-1.31-3.27,4.4,4.4,0,0,0-3.16-1.41h-5.57a3.43,3.43,0,0,1-2.63-1.05,3.64,3.64,0,0,1-1.07-2.62,3.16,3.16,0,0,1,1.11-2.45,3.52,3.52,0,0,1,2.7-.88H1060v1h-7.77a2.49,2.49,0,0,0-2,.61,2.49,2.49,0,0,0-.83,1.88,2.41,2.41,0,0,0,.83,1.84,2.49,2.49,0,0,0,2,.67H1058a5.16,5.16,0,0,1,3.67,1.84,5.5,5.5,0,0,1,1.5,3.83,5.17,5.17,0,0,1-1.5,3.69A4.94,4.94,0,0,1,1058-173h-8Z" transform="translate(752.31 1407.83)"/><path class="cls-3" d="M1060-190h-7.77a3,3,0,0,0-2,1.08,3.12,3.12,0,0,0-.86,2.19,2.64,2.64,0,0,0,.86,2,2.66,2.66,0,0,0,2,.75H1058a5.06,5.06,0,0,1,3.58,1.87,5.37,5.37,0,0,1,1.47,3.77,5.18,5.18,0,0,1-1.47,3.68A4.88,4.88,0,0,1,1058-173h-8v-1h7.69a4.27,4.27,0,0,0,3.25-1.18,4.25,4.25,0,0,0,1.35-3.17,4.21,4.21,0,0,0-1.19-3.22,4.49,4.49,0,0,0-3.1-1.3V-183h-5.88a3.34,3.34,0,0,1-2.54-1.07,3.6,3.6,0,0,1-1-2.57,3.2,3.2,0,0,1,1.08-2.44,3.42,3.42,0,0,1,2.61-.92H1060m0-1h-7.77a4,4,0,0,0-2.78,1.38,4.05,4.05,0,0,0-1.16,2.89,3.67,3.67,0,0,0,1.11,2.65,3.52,3.52,0,0,0,2.71,1.08h5.33l.25.2a4.27,4.27,0,0,1,3.08,1.36,4.29,4.29,0,0,1,1.27,3.12,4.16,4.16,0,0,1-1.27,3.07,4.16,4.16,0,0,1-3.08,1.25H1048v.58l.43.42H1050v0h8a5,5,0,0,0,3.76-1.59,5.25,5.25,0,0,0,1.54-3.77,5.48,5.48,0,0,0-1.54-3.87A5.16,5.16,0,0,0,1058-184h-5.78a2.44,2.44,0,0,1-1.87-.75,2.56,2.56,0,0,1-.79-1.89,2.25,2.25,0,0,1,.78-1.74,2.41,2.41,0,0,1,1.88-.62H1060v-2Z" transform="translate(752.31 1407.83)"/><polygon class="cls-3" points="1819.31 1234.83 1819.31 1219.83 1820.31 1219.83 1820.31 1211.83 1820.36 1211.83 1820.31 1212.16 1820.31 1233.83 1819.31 1233.83 1819.31 1234.83 1820.31 1234.83 1820.31 1235.06 1820.24 1234.83 1819.31 1234.83"/><path class="cls-3" d="M1068-196v22h-1v1h0v-15h1v-8h0m0,0h0v7h-1v16h1v-.15l-.07.15h.07v-23Z" transform="translate(752.31 1407.83)"/><polygon class="cls-3" points="1827.31 1234.83 1827.31 1217.83 1828.31 1217.83 1828.31 1225.83 1827.31 1225.83 1827.31 1226.83 1828.31 1226.83 1828.31 1229.83 1827.31 1229.83 1827.31 1234.83 1827.31 1234.83"/><path class="cls-3" d="M1076-190v8h-1v1h1v3h-1v5h0v-17h1m0-1h-2v18h1l0,.1V-178h1v-3h0v-1h0v-9Z" transform="translate(752.31 1407.83)"/><path class="cls-3" d="M1075.09-193.31a.45.45,0,0,1-.48-.51.45.45,0,0,1,.48-.51.47.47,0,0,1,.54.51A.47.47,0,0,1,1075.09-193.31Z" transform="translate(752.31 1407.83)"/><path class="cls-3" d="M1075.09-194.21q.42,0,.42.39t-.42.39q-.36,0-.36-.39t.36-.39m0-.25a.58.58,0,0,0-.61.64.58.58,0,0,0,.61.64.6.6,0,0,0,.67-.64.6.6,0,0,0-.67-.64Z" transform="translate(752.31 1407.83)"/><path class="cls-3" d="M1098.85-172.77v-4.76a8.41,8.41,0,0,1-1.59,2.17,8.54,8.54,0,0,1-6.26,2.59,8.51,8.51,0,0,1-6.24-2.59,8.51,8.51,0,0,1-2.57-5.7v-.13h.41v-.53h-.42v-.13a8.54,8.54,0,0,1,2.58-6,8.54,8.54,0,0,1,6.24-2.58,8.57,8.57,0,0,1,6.26,2.58,8.29,8.29,0,0,1,1.59,2.18V-195.8h1v23ZM1091-189.43a7.55,7.55,0,0,0-5.51,2.3,7.57,7.57,0,0,0-2.29,5.53,7.54,7.54,0,0,0,2.29,5.51,7.54,7.54,0,0,0,5.51,2.29,7.57,7.57,0,0,0,5.53-2.29,7.54,7.54,0,0,0,2.29-5.51,7.56,7.56,0,0,0-2.3-5.52A7.57,7.57,0,0,0,1091-189.43Z" transform="translate(752.31 1407.83)"/><path class="cls-3" d="M1099.73-195.68v22.78H1099v-5.21a8.24,8.24,0,0,1-1.8,2.66,8.42,8.42,0,0,1-6.18,2.55,8.35,8.35,0,0,1-6.15-2.55,8.3,8.3,0,0,1-2.53-5.62h.4v-.77h-.41a8.29,8.29,0,0,1,2.54-5.91,8.35,8.35,0,0,1,6.15-2.55,8.42,8.42,0,0,1,6.18,2.55,8.24,8.24,0,0,1,1.8,2.66v-10.59h.75m-8.73,22a7.67,7.67,0,0,0,5.62-2.33,7.64,7.64,0,0,0,2.33-5.6,7.65,7.65,0,0,0-2.34-5.61,7.65,7.65,0,0,0-5.61-2.34,7.6,7.6,0,0,0-5.6,2.33,7.66,7.66,0,0,0-2.33,5.62,7.64,7.64,0,0,0,2.33,5.6,7.64,7.64,0,0,0,5.6,2.33m9-22.26h-1.25v9.78a8.6,8.6,0,0,0-1.38-1.78,8.69,8.69,0,0,0-6.35-2.62,8.66,8.66,0,0,0-6.33,2.62,8.59,8.59,0,0,0-2.61,6.08v.26h.42v.27h-.42l0,.27a8.58,8.58,0,0,0,2.6,5.78,8.66,8.66,0,0,0,6.33,2.62,8.69,8.69,0,0,0,6.35-2.62,8.55,8.55,0,0,0,1.38-1.77v4.39H1100v-23.28Zm-9,22a7.42,7.42,0,0,1-5.43-2.26,7.43,7.43,0,0,1-2.25-5.42,7.48,7.48,0,0,1,2.25-5.45,7.45,7.45,0,0,1,5.43-2.25,7.41,7.41,0,0,1,5.43,2.27,7.41,7.41,0,0,1,2.27,5.43,7.4,7.4,0,0,1-2.26,5.42,7.41,7.41,0,0,1-5.44,2.26Z" transform="translate(752.31 1407.83)"/><path class="cls-3" d="M1113.6-172.77a8.51,8.51,0,0,1-6.24-2.59,8.51,8.51,0,0,1-2.59-6.24,8.54,8.54,0,0,1,2.59-6.24,8.54,8.54,0,0,1,6.24-2.58,8.53,8.53,0,0,1,6,2.36,8.54,8.54,0,0,1,2.79,5.84v.14h-16.6c0,.12,0,.28,0,.48a7.54,7.54,0,0,0,2.29,5.51,7.54,7.54,0,0,0,5.51,2.29,8,8,0,0,0,4-1.1,7.53,7.53,0,0,0,2.91-3l0-.06h1.09l-.1.18a9.85,9.85,0,0,1-3.4,3.58A8.43,8.43,0,0,1,1113.6-172.77Zm7.69-10.34a7.61,7.61,0,0,0-2.66-4.47,7.61,7.61,0,0,0-5-1.85,7.53,7.53,0,0,0-5,1.86,7.7,7.7,0,0,0-2.64,4.46Z" transform="translate(752.31 1407.83)"/><path class="cls-3" d="M1113.6-190.3a8.42,8.42,0,0,1,5.93,2.33,8.38,8.38,0,0,1,2.74,5.76H1105.7a4.4,4.4,0,0,0,0,.61A7.64,7.64,0,0,0,1108-176a7.64,7.64,0,0,0,5.6,2.33,8.13,8.13,0,0,0,4.1-1.12,7.59,7.59,0,0,0,3-3h.81a9.74,9.74,0,0,1-3.35,3.53,8.26,8.26,0,0,1-4.52,1.4,8.35,8.35,0,0,1-6.15-2.55,8.37,8.37,0,0,1-2.55-6.15,8.38,8.38,0,0,1,2.55-6.15,8.35,8.35,0,0,1,6.15-2.55m-7.82,7.32h15.66a7.68,7.68,0,0,0-2.73-4.7,7.72,7.72,0,0,0-5.11-1.87,7.68,7.68,0,0,0-5.12,1.88,7.85,7.85,0,0,0-2.7,4.69m7.82-7.57a8.66,8.66,0,0,0-6.33,2.62,8.66,8.66,0,0,0-2.62,6.33,8.66,8.66,0,0,0,2.62,6.33,8.66,8.66,0,0,0,6.33,2.62,8.54,8.54,0,0,0,4.65-1.44,9.91,9.91,0,0,0,3.44-3.62l.2-.37h-1.38l-.07.13a7.37,7.37,0,0,1-2.87,2.94,7.83,7.83,0,0,1-4,1.09,7.4,7.4,0,0,1-5.42-2.26,7.4,7.4,0,0,1-2.26-5.42c0-.15,0-.27,0-.36h16.61l0-.26a8.7,8.7,0,0,0-2.82-5.94,8.73,8.73,0,0,0-6.1-2.39Zm-7.51,7.32a7.61,7.61,0,0,1,2.56-4.25,7.41,7.41,0,0,1,4.95-1.82,7.52,7.52,0,0,1,5,1.81,7.53,7.53,0,0,1,2.59,4.26Z" transform="translate(752.31 1407.83)"/><polygon class="cls-3" points="1727.31 1253.83 1727.31 1243.83 1727.31 1243.83 1727.31 1243.83 1727.31 1243.83 1727.31 1234.83 1728.31 1234.83 1728.31 1253.83 1727.31 1253.83"/><path class="cls-3" d="M976-173v19h-1v-10h0v-1h0v-8h1m0,0h-1.33l.33.05V-164h0v11h1v-20Z" transform="translate(752.31 1407.83)"/><rect class="cls-3" x="1819.31" y="1233.83" width="3" height="1"/><path class="cls-3" d="M1070-174v1h-3v-1h3m0,0h-3v1h3v-1Z" transform="translate(752.31 1407.83)"/><polygon class="cls-3" points="1827.31 1240.83 1827.31 1239.83 1830.31 1239.83 1830.31 1240.05 1830.24 1239.83 1829.31 1239.83 1829.31 1240.83 1827.31 1240.83"/><path class="cls-3" d="M1078-168h-1v1h-1v-1h2m-.07,0H1075v1h2v-1h1v-.11l-.07.11Z" transform="translate(752.31 1407.83)"/><rect class="cls-3" x="1830.13" y="1243.2" width="1.43" height="1.03"/><path class="cls-3" d="M1079.13-164.51v.78h-1.19v-.78h1.19m.25-.25h-1.69v1.28h1.69v-1.28Z" transform="translate(752.31 1407.83)"/><rect class="cls-3" x="1827.31" y="1225.83" width="8" height="1"/><path class="cls-3" d="M1083-182v1h-8v-1h8m0,0h-8v1h8v-1Z" transform="translate(752.31 1407.83)"/><polygon class="cls-3" points="1829.31 1244.83 1829.31 1239.83 1830.36 1239.83 1830.31 1239.97 1830.31 1244.83 1829.31 1244.83"/><path class="cls-3" d="M1078-168v5h-1v-5h1m0,0h-1v6h1v-6Z" transform="translate(752.31 1407.83)"/><polygon class="cls-3" points="1782.31 1234.83 1782.31 1233.83 1802.31 1233.83 1802.31 1235.06 1802.64 1234.83 1782.31 1234.83"/><path class="cls-3" d="M1050-174v1h-20v-1h20m1,0h-21v1h21v-1Z" transform="translate(752.31 1407.83)"/><polygon class="cls-3" points="1827.31 1248.83 1827.31 1229.83 1827.94 1229.83 1828.31 1229.53 1828.31 1248.83 1827.31 1248.83"/><path class="cls-3" d="M1076-178v19h-1v-19h1m0-1h-2v20h2v-20Z" transform="translate(752.31 1407.83)"/><polygon class="cls-3" points="1819.34 1219.83 1819.31 1219.58 1819.31 1205.83 1820.31 1205.83 1820.31 1219.83 1819.34 1219.83"/><path class="cls-3" d="M1068-201v13h-1v-13h1m0-1h-1v14h1v-14Z" transform="translate(752.31 1407.83)"/><rect class="cls-3" x="1724.31" y="1242.83" width="4" height="1"/><path class="cls-3" d="M975-165v1h-3v-1h3m1,0h-4v1h4v-1Z" transform="translate(752.31 1407.83)"/><rect class="cls-3" x="1724.31" y="1242.83" height="3"/><path class="cls-3" d="M972-165v3h0v-3h0m1,0h-1.52l-.48.42V-162h2v-3Z" transform="translate(752.31 1407.83)"/><rect class="cls-3" x="1724.31" y="1244.83" height="4"/><path class="cls-3" d="M972-162v3h0v-3h0m1-1h-2v5h2v-5Z" transform="translate(752.31 1407.83)"/><path class="cls-3" d="M1041.1-243.08a3.29,3.29,0,0,0,.14.5C1041.18-242.75,1041.14-242.92,1041.1-243.08Z" transform="translate(752.31 1407.83)"/><path class="cls-3" d="M1041-243.48c0,.06,0,.13,0,.18S1041-243.42,1041-243.48Z" transform="translate(752.31 1407.83)"/><path class="cls-3" d="M1068.29-242.11c-13.63-11.45-19.26-14.47-20.33-21.39-.07-.41-1-7.11,3.37-12.28,5-5.94,13.28-5.41,14.11-5.35,4.28.32,7.8,2.25,20.93,14.49l-2.54,19.08,11.68,12.31,16.74-15.87-29.76-31.4a25,25,0,0,0-18.14-8.07,25,25,0,0,0-18.55,7.09,25,25,0,0,0-8.08,18.14,25,25,0,0,0,7.09,18.55l11.91,12.56a2.82,2.82,0,0,1,.8,2.06,2.78,2.78,0,0,1-.91,2,2.79,2.79,0,0,1-2.06.8,2.8,2.8,0,0,1-1-.21,2.73,2.73,0,0,1-1-.7q-1.83-1.91-3.67-3.79c.12.18.24.37.34.54l-14.82,17.59c-2.2-2.19-3.94-4.16-5.23-5.71-2.15-2.59-3-3.91-3.05-5.64a6.41,6.41,0,0,1,.55-2.9l14.85-16.65-17.89-18.87h0l-17.09-18a25,25,0,0,0-18.14-8.07,25,25,0,0,0-18.56,7.09,25,25,0,0,0-8.07,18.15A25,25,0,0,0,968.83-248l12.62,13.17.07-.06,16.32,16.84,16.57-16.06-6.35-6.55-1.5,11.45c-2.88-2.67-7.45-6.81-13.26-11.69-13.61-11.43-18.94-14.41-20.34-21.4-.17-.88-1.49-8,3-13.14,5-5.7,13.55-4.74,14.44-4.63a17.94,17.94,0,0,1,4.75,1.31c3,1.28,4.77,3,7.6,6,2.45,2.56,5.28,5.64,8.34,9.21l-2.1,16,10.57,11.14h0l6.27,6.61h0a7.24,7.24,0,0,0-.3,2.88,7.5,7.5,0,0,0,1.57,3.83,88.2,88.2,0,0,0,8.7,8.75c3.44,3,5.22,4.56,8.1,5.86a25.92,25.92,0,0,0,10,2.22,25,25,0,0,0,18.55-7.09,25,25,0,0,0,8.06-17.92C1077.65-234,1073.47-237.76,1068.29-242.11Z" transform="translate(752.31 1407.83)"/><path class="cls-12" d="M1041.05-243.3c0,.08,0,.15,0,.22S1041.07-243.22,1041.05-243.3Z" transform="translate(752.31 1407.83)"/><path class="cls-13" d="M1041-243.48a6.8,6.8,0,0,1,.47-3.36A6.6,6.6,0,0,0,1041-243.48Z" transform="translate(752.31 1407.83)"/><path class="cls-3" d="M1026.1-227.29c.08,1.73.9,3,3.05,5.64,1.29,1.55,3,3.52,5.23,5.71l14.82-17.59c-.1-.17-.22-.36-.34-.54l-6.23-6.42a5.46,5.46,0,0,1-1.39-2.09,3.29,3.29,0,0,1-.14-.5c0-.07,0-.14,0-.22s0-.12,0-.18a6.6,6.6,0,0,1,.47-3.36l-14.85,16.65A6.41,6.41,0,0,0,1026.1-227.29Z" transform="translate(752.31 1407.83)"/><path class="cls-14" d="M1026.1-227.29c.08,1.73.9,3,3.05,5.64,1.29,1.55,3,3.52,5.23,5.71l14.82-17.59c-.1-.17-.22-.36-.34-.54l-6.23-6.42a5.46,5.46,0,0,1-1.39-2.09,3.29,3.29,0,0,1-.14-.5c0-.07,0-.14,0-.22s0-.12,0-.18a6.6,6.6,0,0,1,.47-3.36l-14.85,16.65A6.41,6.41,0,0,0,1026.1-227.29Z" transform="translate(752.31 1407.83)"/><path class="cls-3" d="M1002.72-272.79c-2.83-3-4.65-4.7-7.6-6a17.94,17.94,0,0,0-4.75-1.31c-.89-.11-9.46-1.07-14.44,4.63-4.46,5.1-3.14,12.26-3,13.14,1.4,7,6.73,10,20.34,21.4,5.81,4.88,10.38,9,13.26,11.69l1.5-11.45-9.79-10.1h0l-12.69-13.12a2.72,2.72,0,0,1-.8-2.06,2.76,2.76,0,0,1,.91-2,2.76,2.76,0,0,1,2.06-.8,2.74,2.74,0,0,1,2,.91L1009-247.6l2.1-16C1008-267.15,1005.17-270.23,1002.72-272.79Z" transform="translate(752.31 1407.83)"/><path class="cls-15" d="M1002.72-272.79c-2.83-3-4.65-4.7-7.6-6a17.94,17.94,0,0,0-4.75-1.31c-.89-.11-9.46-1.07-14.44,4.63-4.46,5.1-3.14,12.26-3,13.14,1.4,7,6.73,10,20.34,21.4,5.81,4.88,10.38,9,13.26,11.69l1.5-11.45-9.79-10.1h0l-12.69-13.12a2.72,2.72,0,0,1-.8-2.06,2.76,2.76,0,0,1,.91-2,2.76,2.76,0,0,1,2.06-.8,2.74,2.74,0,0,1,2,.91L1009-247.6l2.1-16C1008-267.15,1005.17-270.23,1002.72-272.79Z" transform="translate(752.31 1407.83)"/><path class="cls-3" d="M1065.44-281.13c-.83-.06-9.09-.59-14.11,5.35-4.37,5.17-3.44,11.87-3.37,12.28,1.07,6.92,6.7,9.94,20.33,21.39,5.18,4.35,9.36,8.12,12.25,10.77,0-.08,0-.15,0-.23a25,25,0,0,0-7.1-18.55l-11.9-12.56a2.76,2.76,0,0,1-.8-2.06,2.78,2.78,0,0,1,.91-2,2.79,2.79,0,0,1,2.06-.8,2.78,2.78,0,0,1,2,.91l18.09,19.09,2.54-19.08C1073.24-278.88,1069.72-280.81,1065.44-281.13Z" transform="translate(752.31 1407.83)"/><path class="cls-16" d="M1065.44-281.13c-.83-.06-9.09-.59-14.11,5.35-4.37,5.17-3.44,11.87-3.37,12.28,1.07,6.92,6.7,9.94,20.33,21.39,5.18,4.35,9.36,8.12,12.25,10.77,0-.08,0-.15,0-.23a25,25,0,0,0-7.1-18.55l-11.9-12.56a2.76,2.76,0,0,1-.8-2.06,2.78,2.78,0,0,1,.91-2,2.79,2.79,0,0,1,2.06-.8,2.78,2.78,0,0,1,2,.91l18.09,19.09,2.54-19.08C1073.24-278.88,1069.72-280.81,1065.44-281.13Z" transform="translate(752.31 1407.83)"/><path d="M1985.86,225.19h.8a25,25,0,0,1,18.14,8.07l17.09,18h0l17.89,18.87a6.2,6.2,0,0,0-.27,4.26,5.47,5.47,0,0,0,1.4,2.09c3.29,3.41,6.62,6.79,9.9,10.21a2.76,2.76,0,0,0,1,.7,2.8,2.8,0,0,0,1,.21h.09a2.78,2.78,0,0,0,2-.8,2.83,2.83,0,0,0,.92-2,2.79,2.79,0,0,0-.81-2.06l-11.9-12.56a25.93,25.93,0,0,1,18.73-43.79h.8a25,25,0,0,1,18.14,8.07l29.77,31.4-16.75,15.87L2064,250.35a2.82,2.82,0,0,0-2-.91h-.08a2.92,2.92,0,0,0-2.89,2.82,2.79,2.79,0,0,0,.8,2.06l11.91,12.56a25.94,25.94,0,0,1-18.73,43.8h-.8a25.88,25.88,0,0,1-10-2.22c-2.88-1.3-4.66-2.84-8.11-5.86a88.28,88.28,0,0,1-8.69-8.75,7.33,7.33,0,0,1-1.57-3.83,7.46,7.46,0,0,1,.29-2.88h0l-6.26-6.61h0l-29.76-31.39a2.78,2.78,0,0,0-2-.91H1986a2.89,2.89,0,0,0-2.09,4.88l12.69,13.12h0l16.14,16.65-16.56,16.06-16.33-16.84-.06.06L1967.13,269a25.94,25.94,0,0,1,18.73-43.8m0-3A29,29,0,0,0,1965,271.05l12.63,13.19,2.07,2.15.07-.07L1994,301l2.09,2.15,2.16-2.08L2014.79,285l1.65-1.6,1.26,1.34,0,0,3.13,3.31a11.08,11.08,0,0,0,0,2.23,10.42,10.42,0,0,0,2.2,5.4l0,.06,0,.05a92.46,92.46,0,0,0,9,9c3.45,3,5.54,4.84,8.84,6.34a29.16,29.16,0,0,0,11.2,2.48h.88a29,29,0,0,0,23.38-45.91l15.21,16,2.07,2.18,2.18-2.06,16.74-15.87,2.18-2.07-2.07-2.18L2083,232.42a28,28,0,0,0-20.24-9h-.88A28.89,28.89,0,0,0,2033,251.56a29.58,29.58,0,0,0,.82,7.95l-9.75-10.29-2.07-2.17h0l-15-15.85a28,28,0,0,0-20.24-9Z" transform="translate(752.31 1407.83)"/><path class="cls-17" d="M2039.8,270.16a6.15,6.15,0,0,0-.27,4.26c.71,2,2.48,2.62,4.91,5.1a21.69,21.69,0,0,1,3.06,4l-14.82,17.59c-2.21-2.19-3.94-4.16-5.23-5.71-2.15-2.59-3-3.91-3.06-5.64a6.69,6.69,0,0,1,.55-2.9Z" transform="translate(752.31 1407.83)"/><path class="cls-18" d="M2004.85,287.78c-2.88-2.67-7.45-6.81-13.26-11.69-13.6-11.43-18.93-14.41-20.33-21.4-.17-.88-1.49-8,3-13.14,5-5.7,13.55-4.74,14.44-4.63a18.13,18.13,0,0,1,4.75,1.31c2.95,1.28,4.77,3,7.6,6,2.45,2.56,5.27,5.64,8.33,9.21" transform="translate(752.31 1407.83)"/><path class="cls-19" d="M2079.85,286.59c-2.88-2.67-7.45-6.82-13.26-11.7-13.64-11.45-19.26-14.47-20.34-21.39-.06-.41-1-7.11,3.38-12.28,5-5.94,13.28-5.41,14.1-5.35,4.28.32,7.8,2.25,20.94,14.49" transform="translate(752.31 1407.83)"/><path d="M735.9-169.7v-11a5,5,0,0,0-2-3.94,7.23,7.23,0,0,0-4.75-1.65,6.68,6.68,0,0,0-4.44,1.54,5.24,5.24,0,0,0-2,3.78v11.23h-1v-17.66h1V-184a6,6,0,0,1,1.12-1.3,7.72,7.72,0,0,1,5.27-1.92,8.17,8.17,0,0,1,5.4,1.92,5.92,5.92,0,0,1,2.29,4.64v11Z" transform="translate(752.31 1407.83)"/><path d="M722.66-187.23v3.66a5.81,5.81,0,0,1,1.34-1.67,7.58,7.58,0,0,1,5.18-1.88,8,8,0,0,1,5.32,1.88,5.79,5.79,0,0,1,2.24,4.55v10.86H736v-10.83a5.11,5.11,0,0,0-2-4,7.33,7.33,0,0,0-4.83-1.67,6.79,6.79,0,0,0-4.52,1.56,5.36,5.36,0,0,0-2,3.87v11.11h-.77v-17.4h.77m.25-.25h-1.27v17.9h1.27v-11.36a5.11,5.11,0,0,1,1.91-3.68,6.56,6.56,0,0,1,4.36-1.5,7,7,0,0,1,4.67,1.62,4.84,4.84,0,0,1,1.92,3.84v11.08H737v-11.11a6.05,6.05,0,0,0-2.33-4.74,8.29,8.29,0,0,0-5.48-1.94,7.79,7.79,0,0,0-5.35,2,7.08,7.08,0,0,0-.92,1v-3Z" transform="translate(752.31 1407.83)"/><path d="M750.32-169.7a8.54,8.54,0,0,1-6.24-2.59,8.56,8.56,0,0,1-2.59-6.24,8.58,8.58,0,0,1,2.59-6.24,8.54,8.54,0,0,1,6.24-2.59,8.6,8.6,0,0,1,6,2.36,8.55,8.55,0,0,1,2.78,5.85v.14H742.54c0,.12,0,.28,0,.48a7.55,7.55,0,0,0,2.29,5.51,7.55,7.55,0,0,0,5.51,2.29,7.91,7.91,0,0,0,4-1.11,7.47,7.47,0,0,0,2.92-3l0-.07h1.09l-.1.19a9.82,9.82,0,0,1-3.39,3.58A8.49,8.49,0,0,1,750.32-169.7ZM758-180a7.59,7.59,0,0,0-2.66-4.48,7.64,7.64,0,0,0-5-1.84,7.55,7.55,0,0,0-5,1.86,7.66,7.66,0,0,0-2.63,4.46Z" transform="translate(752.31 1407.83)"/><path d="M750.32-187.23a8.36,8.36,0,0,1,5.93,2.33,8.39,8.39,0,0,1,2.75,5.76H742.42c0,.13,0,.33,0,.61a7.63,7.63,0,0,0,2.32,5.6,7.66,7.66,0,0,0,5.6,2.33,8,8,0,0,0,4.1-1.13,7.59,7.59,0,0,0,3-3h.8a9.58,9.58,0,0,1-3.35,3.53,8.32,8.32,0,0,1-4.52,1.4,8.38,8.38,0,0,1-6.15-2.55,8.38,8.38,0,0,1-2.55-6.15,8.38,8.38,0,0,1,2.55-6.15,8.38,8.38,0,0,1,6.15-2.55m-7.81,7.31h15.65a7.66,7.66,0,0,0-2.73-4.69,7.7,7.7,0,0,0-5.11-1.87,7.6,7.6,0,0,0-5.11,1.88,7.8,7.8,0,0,0-2.7,4.68m7.81-7.56a8.66,8.66,0,0,0-6.33,2.62,8.66,8.66,0,0,0-2.62,6.33A8.66,8.66,0,0,0,744-172.2a8.66,8.66,0,0,0,6.33,2.62A8.51,8.51,0,0,0,755-171a9.91,9.91,0,0,0,3.44-3.62l.2-.37h-1.37l-.07.13a7.44,7.44,0,0,1-2.87,2.94,7.9,7.9,0,0,1-4,1.09,7.42,7.42,0,0,1-5.42-2.26,7.41,7.41,0,0,1-2.25-5.42v-.36h16.61l0-.27a8.63,8.63,0,0,0-2.82-5.93,8.65,8.65,0,0,0-6.1-2.39Zm-7.51,7.31a7.59,7.59,0,0,1,2.56-4.24,7.42,7.42,0,0,1,5-1.82,7.52,7.52,0,0,1,4.95,1.81,7.49,7.49,0,0,1,2.59,4.25Z" transform="translate(752.31 1407.83)"/><path d="M771.63-169.7a8.51,8.51,0,0,1-6.24-2.59,8.53,8.53,0,0,1-2.59-6.24,8.54,8.54,0,0,1,2.59-6.24,8.51,8.51,0,0,1,6.24-2.59,8.54,8.54,0,0,1,6.26,2.59,8.53,8.53,0,0,1,2.56,6.24,8.53,8.53,0,0,1-2.56,6.24A8.54,8.54,0,0,1,771.63-169.7Zm0-16.66a7.54,7.54,0,0,0-5.51,2.29,7.56,7.56,0,0,0-2.3,5.54,7.52,7.52,0,0,0,2.3,5.51,7.54,7.54,0,0,0,5.51,2.29,7.57,7.57,0,0,0,5.53-2.29,7.54,7.54,0,0,0,2.29-5.51,7.55,7.55,0,0,0-2.3-5.52A7.57,7.57,0,0,0,771.63-186.36Z" transform="translate(752.31 1407.83)"/><path d="M771.63-187.23a8.42,8.42,0,0,1,6.18,2.55,8.37,8.37,0,0,1,2.52,6.15,8.37,8.37,0,0,1-2.52,6.15,8.42,8.42,0,0,1-6.18,2.55,8.39,8.39,0,0,1-6.16-2.55,8.38,8.38,0,0,1-2.55-6.15,8.38,8.38,0,0,1,2.55-6.15,8.39,8.39,0,0,1,6.16-2.55m0,16.63a7.67,7.67,0,0,0,5.62-2.33,7.64,7.64,0,0,0,2.33-5.6,7.65,7.65,0,0,0-2.34-5.61,7.65,7.65,0,0,0-5.61-2.34,7.63,7.63,0,0,0-5.6,2.32,7.69,7.69,0,0,0-2.33,5.63,7.64,7.64,0,0,0,2.33,5.6,7.64,7.64,0,0,0,5.6,2.33m0-16.88a8.66,8.66,0,0,0-6.33,2.62,8.67,8.67,0,0,0-2.63,6.33,8.67,8.67,0,0,0,2.63,6.33,8.64,8.64,0,0,0,6.33,2.62A8.69,8.69,0,0,0,778-172.2a8.66,8.66,0,0,0,2.6-6.33,8.67,8.67,0,0,0-2.6-6.33,8.69,8.69,0,0,0-6.35-2.62Zm0,16.63a7.42,7.42,0,0,1-5.43-2.26,7.45,7.45,0,0,1-2.25-5.42A7.48,7.48,0,0,1,766.2-184a7.45,7.45,0,0,1,5.43-2.25,7.44,7.44,0,0,1,5.43,2.26,7.45,7.45,0,0,1,2.27,5.44,7.4,7.4,0,0,1-2.26,5.42,7.43,7.43,0,0,1-5.44,2.26Z" transform="translate(752.31 1407.83)"/><path d="M795.28-169.7v-1h9.38a4.34,4.34,0,0,0,3.17-1.31,4.33,4.33,0,0,0,1.3-3.16,4.34,4.34,0,0,0-1.3-3.17,4.34,4.34,0,0,0-3.17-1.31h-.13v0h-5.44a3.6,3.6,0,0,1-2.63-1.16,3.78,3.78,0,0,1-1.07-2.68,3.69,3.69,0,0,1,1.12-2.69,3.68,3.68,0,0,1,2.69-1.12h8v1h-8a2.69,2.69,0,0,0-2,.82,2.73,2.73,0,0,0-.83,2,2.77,2.77,0,0,0,.83,2,2.66,2.66,0,0,0,2,.83H805a5.44,5.44,0,0,1,3.67,1.73,5.34,5.34,0,0,1,1.5,3.78,5.31,5.31,0,0,1-1.5,3.77A5.43,5.43,0,0,1,805-169.7h-9.69Z" transform="translate(752.31 1407.83)"/><path d="M807.12-187.23v.75H799.2a2.76,2.76,0,0,0-2.05.86,2.82,2.82,0,0,0-.86,2.07,2.91,2.91,0,0,0,.86,2.1,2.77,2.77,0,0,0,2.05.87H805a5.25,5.25,0,0,1,3.58,1.69A5.17,5.17,0,0,1,810-175.2a5.16,5.16,0,0,1-1.47,3.68,5.21,5.21,0,0,1-3.58,1.69H795.4v-.77h9.26a4.41,4.41,0,0,0,3.25-1.35,4.41,4.41,0,0,0,1.35-3.25,4.43,4.43,0,0,0-1.35-3.26,4.4,4.4,0,0,0-3.25-1.34v0h-5.57a3.46,3.46,0,0,1-2.54-1.12,3.67,3.67,0,0,1-1-2.6,3.52,3.52,0,0,1,1.09-2.6,3.53,3.53,0,0,1,2.6-1.08h7.92m.25-.25H799.2a3.81,3.81,0,0,0-2.78,1.15,3.8,3.8,0,0,0-1.16,2.78,3.94,3.94,0,0,0,1.11,2.77,3.74,3.74,0,0,0,2.71,1.2h5.33l.25,0a4.14,4.14,0,0,1,3.08,1.27A4.17,4.17,0,0,1,809-175.2a4.16,4.16,0,0,1-1.27,3.07,4.15,4.15,0,0,1-3.08,1.28h-9.51v1.27H805a5.48,5.48,0,0,0,3.76-1.77,5.42,5.42,0,0,0,1.54-3.85,5.44,5.44,0,0,0-1.54-3.86,5.51,5.51,0,0,0-3.74-1.77H799.2a2.51,2.51,0,0,1-1.87-.8,2.63,2.63,0,0,1-.79-1.92,2.57,2.57,0,0,1,.79-1.9,2.51,2.51,0,0,1,1.87-.78h8.17v-1.25Z" transform="translate(752.31 1407.83)"/><polygon points="1566.31 1238.13 1566.31 1215.1 1567.25 1215.1 1567.34 1215.22 1567.34 1238.13 1566.31 1238.13"/><path d="M814.91-192.61v22.78h-.78v-22.78h.78m.25-.25h-1.28v23.28h1.28v-23.28Z" transform="translate(752.31 1407.83)"/><path d="M821.58-169.7v-17.66h1v17.66Zm.49-20.54a.45.45,0,0,1-.49-.51.45.45,0,0,1,.49-.51.48.48,0,0,1,.54.51A.48.48,0,0,1,822.07-190.24Z" transform="translate(752.31 1407.83)"/><path d="M822.07-191.14c.27,0,.41.13.41.39s-.14.39-.41.39-.36-.13-.36-.39.12-.39.36-.39m.41,3.91v17.4h-.77v-17.4h.77m-.41-4.16a.57.57,0,0,0-.61.64.57.57,0,0,0,.61.64.6.6,0,0,0,.66-.64.6.6,0,0,0-.66-.64Zm.66,3.91h-1.27v17.9h1.27v-17.9Z" transform="translate(752.31 1407.83)"/><path d="M845.82-169.7v-4.77a8.48,8.48,0,0,1-1.58,2.18A8.58,8.58,0,0,1,838-169.7a8.51,8.51,0,0,1-6.24-2.59,8.51,8.51,0,0,1-2.59-6.24,8.54,8.54,0,0,1,2.59-6.24,8.51,8.51,0,0,1,6.24-2.59,8.58,8.58,0,0,1,6.27,2.59,8.48,8.48,0,0,1,1.58,2.18v-10.14h1v23ZM838-186.36a7.54,7.54,0,0,0-5.51,2.29,7.59,7.59,0,0,0-2.29,5.54,7.55,7.55,0,0,0,2.29,5.51,7.54,7.54,0,0,0,5.51,2.29A7.57,7.57,0,0,0,843.5-173a7.51,7.51,0,0,0,2.3-5.51,7.56,7.56,0,0,0-2.31-5.52A7.57,7.57,0,0,0,838-186.36Z" transform="translate(752.31 1407.83)"/><path d="M846.7-192.61v22.78H846V-175a8.24,8.24,0,0,1-1.8,2.66,8.42,8.42,0,0,1-6.18,2.55,8.37,8.37,0,0,1-6.15-2.55,8.38,8.38,0,0,1-2.55-6.15,8.38,8.38,0,0,1,2.55-6.15,8.37,8.37,0,0,1,6.15-2.55,8.42,8.42,0,0,1,6.18,2.55A8.24,8.24,0,0,1,846-182v-10.59h.75m-8.73,22a7.66,7.66,0,0,0,5.62-2.33,7.6,7.6,0,0,0,2.33-5.6,7.65,7.65,0,0,0-2.34-5.61,7.65,7.65,0,0,0-5.61-2.34,7.63,7.63,0,0,0-5.6,2.32,7.69,7.69,0,0,0-2.33,5.63,7.64,7.64,0,0,0,2.33,5.6,7.64,7.64,0,0,0,5.6,2.33m9-22.26H845.7v9.77a8.82,8.82,0,0,0-1.38-1.77,8.69,8.69,0,0,0-6.35-2.62,8.66,8.66,0,0,0-6.33,2.62,8.66,8.66,0,0,0-2.62,6.33,8.66,8.66,0,0,0,2.62,6.33,8.66,8.66,0,0,0,6.33,2.62,8.67,8.67,0,0,0,6.35-2.62A8.82,8.82,0,0,0,845.7-174v4.39H847v-23.28Zm-9,22a7.4,7.4,0,0,1-5.42-2.26,7.42,7.42,0,0,1-2.26-5.42,7.45,7.45,0,0,1,2.26-5.45,7.43,7.43,0,0,1,5.42-2.25A7.44,7.44,0,0,1,843.4-184a7.45,7.45,0,0,1,2.27,5.44,7.43,7.43,0,0,1-2.25,5.42,7.45,7.45,0,0,1-5.45,2.26Z" transform="translate(752.31 1407.83)"/><path d="M860.57-169.7a8.51,8.51,0,0,1-6.24-2.59,8.53,8.53,0,0,1-2.59-6.24,8.54,8.54,0,0,1,2.59-6.24,8.51,8.51,0,0,1,6.24-2.59,8.58,8.58,0,0,1,6,2.36,8.56,8.56,0,0,1,2.79,5.85v.14h-16.6c0,.12,0,.28,0,.48a7.55,7.55,0,0,0,2.29,5.51,7.54,7.54,0,0,0,5.51,2.29,7.93,7.93,0,0,0,4-1.11,7.53,7.53,0,0,0,2.92-3l0-.07h1.09l-.1.19a9.77,9.77,0,0,1-3.4,3.58A8.43,8.43,0,0,1,860.57-169.7ZM868.26-180a7.64,7.64,0,0,0-2.66-4.48,7.65,7.65,0,0,0-5-1.84,7.55,7.55,0,0,0-5,1.86A7.69,7.69,0,0,0,852.9-180Z" transform="translate(752.31 1407.83)"/><path d="M860.57-187.23a8.36,8.36,0,0,1,5.93,2.33,8.34,8.34,0,0,1,2.74,5.76H852.67a4.4,4.4,0,0,0,0,.61,7.64,7.64,0,0,0,2.33,5.6,7.64,7.64,0,0,0,5.6,2.33,8,8,0,0,0,4.1-1.13,7.66,7.66,0,0,0,3-3h.8a9.74,9.74,0,0,1-3.35,3.53,8.32,8.32,0,0,1-4.52,1.4,8.38,8.38,0,0,1-6.15-2.55,8.38,8.38,0,0,1-2.55-6.15,8.38,8.38,0,0,1,2.55-6.15,8.38,8.38,0,0,1,6.15-2.55m-7.82,7.31h15.66a7.66,7.66,0,0,0-2.73-4.69,7.72,7.72,0,0,0-5.11-1.87,7.6,7.6,0,0,0-5.11,1.88,7.86,7.86,0,0,0-2.71,4.68m7.82-7.56a8.66,8.66,0,0,0-6.33,2.62,8.66,8.66,0,0,0-2.62,6.33,8.66,8.66,0,0,0,2.62,6.33,8.66,8.66,0,0,0,6.33,2.62,8.51,8.51,0,0,0,4.65-1.44,9.91,9.91,0,0,0,3.44-3.62l.2-.37h-1.37l-.08.13a7.31,7.31,0,0,1-2.87,2.94,7.83,7.83,0,0,1-4,1.09,7.4,7.4,0,0,1-5.42-2.26,7.42,7.42,0,0,1-2.26-5.42c0-.15,0-.27,0-.36h16.61l0-.27a8.67,8.67,0,0,0-2.82-5.93,8.67,8.67,0,0,0-6.1-2.39Zm-7.51,7.31a7.59,7.59,0,0,1,2.56-4.24,7.41,7.41,0,0,1,5-1.82,7.52,7.52,0,0,1,4.95,1.81,7.49,7.49,0,0,1,2.59,4.25Z" transform="translate(752.31 1407.83)"/><rect x="1474.06" y="1237.83" width="1.03" height="19.49"/><path d="M722.66-169.88v19.24h-.78v-19.24h.78m.25-.25h-1.28v19.74h1.28v-19.74Z" transform="translate(752.31 1407.83)"/><rect x="1566.33" y="1237.1" width="2.94" height="1.03"/><path d="M816.84-170.61v.78h-2.69v-.78h2.69m.25-.25H813.9v1.28h3.19v-1.28Z" transform="translate(752.31 1407.83)"/><rect x="1574.39" y="1242.87" width="2.94" height="1.03"/><path d="M824.9-164.84v.77h-2.69v-.77h2.69m.25-.25H822v1.27h3.19v-1.27Z" transform="translate(752.31 1407.83)"/><rect x="1576.37" y="1246.27" width="2.16" height="1.03"/><path d="M826.1-161.44v.77h-1.91v-.77h1.91m.25-.25h-2.41v1.27h2.41v-1.27Z" transform="translate(752.31 1407.83)"/><rect x="1574.52" y="1228.93" width="7.61" height="1.03"/><path d="M829.69-178.78v.78h-7.36v-.78h7.36m.25-.25h-7.86v1.28h7.86V-179Z" transform="translate(752.31 1407.83)"/><rect x="1576.32" y="1242.91" width="1.03" height="5.47"/><path d="M824.92-164.8v5.22h-.78v-5.22h.78m.25-.25h-1.28v5.72h1.28V-165Z" transform="translate(752.31 1407.83)"/><rect x="1529.44" y="1237.12" width="20.3" height="1.03"/><path d="M797.31-170.59v.78h-20v-.78h20m.25-.25H777v1.28h20.55v-1.28Z" transform="translate(752.31 1407.83)"/><rect x="1573.9" y="1232.47" width="1.03" height="19.49"/><path d="M822.49-175.23V-156h-.77v-19.23h.77m.25-.25h-1.27v19.73h1.27v-19.73Z" transform="translate(752.31 1407.83)"/><rect x="1566.3" y="1209.31" width="1.03" height="13.46"/><path d="M814.89-198.4v13.21h-.77V-198.4h.77m.25-.25h-1.27v13.71h1.27v-13.71Z" transform="translate(752.31 1407.83)"/><rect x="1470.88" y="1246.19" width="3.99" height="0.84"/><path d="M722.44-161.51v.59H718.7v-.59h3.74m.25-.25h-4.24v1.09h4.24v-1.09Z" transform="translate(752.31 1407.83)"/><rect x="1470.86" y="1246.19" width="0.84" height="3.99"/><path d="M719.27-161.51v3.73h-.59v-3.73h.59m.25-.25h-1.09v4.23h1.09v-4.23Z" transform="translate(752.31 1407.83)"/><rect x="1470.86" y="1248.3" width="0.84" height="3.99"/><path d="M719.27-159.41v3.73h-.59v-3.73h.59m.25-.25h-1.09v4.23h1.09v-4.23Z" transform="translate(752.31 1407.83)"/><path d="M745.86-293.81h.8a25,25,0,0,1,18.14,8.07l17.09,18h0l17.89,18.87a6.2,6.2,0,0,0-.27,4.26,5.47,5.47,0,0,0,1.4,2.09c3.29,3.41,6.62,6.79,9.9,10.21a2.76,2.76,0,0,0,1,.7,2.8,2.8,0,0,0,1,.21h.09a2.78,2.78,0,0,0,2-.8,2.83,2.83,0,0,0,.92-2,2.79,2.79,0,0,0-.81-2.06l-11.9-12.56A25,25,0,0,1,796-267.36a25,25,0,0,1,8.07-18.14,24.91,24.91,0,0,1,17.75-7.1h.8a25,25,0,0,1,18.14,8.07l29.77,31.4L853.8-237.25,824-268.65a2.82,2.82,0,0,0-2-.91h-.08a2.82,2.82,0,0,0-2,.8,2.82,2.82,0,0,0-.91,2,2.79,2.79,0,0,0,.8,2.06l11.91,12.56a25,25,0,0,1,7.09,18.55,25,25,0,0,1-8.07,18.15,25,25,0,0,1-17.75,7.1h-.8a25.88,25.88,0,0,1-10-2.22c-2.88-1.3-4.66-2.84-8.11-5.86a88.28,88.28,0,0,1-8.69-8.75,7.33,7.33,0,0,1-1.57-3.83,7.46,7.46,0,0,1,.29-2.88h0l-6.26-6.61h0l-29.76-31.39a2.78,2.78,0,0,0-2-.91H746a2.79,2.79,0,0,0-2,.81,2.8,2.8,0,0,0-.91,2,2.79,2.79,0,0,0,.8,2.06l12.69,13.12h0l16.14,16.65-16.56,16.06L739.81-236.9l-.06.06L727.13-250A25,25,0,0,1,720-268.56a25,25,0,0,1,8.07-18.15,25,25,0,0,1,17.75-7.1m0-3a27.93,27.93,0,0,0-19.81,7.93,28,28,0,0,0-9,20.24A28,28,0,0,0,725-247.95l12.63,13.19,2.07,2.15.07-.07L754-218l2.09,2.15,2.16-2.08L774.79-234l1.65-1.6,1.27,1.35,0,0,3.12,3.3a11.08,11.08,0,0,0,0,2.23,10.42,10.42,0,0,0,2.2,5.4l.05.06,0,.05a92.46,92.46,0,0,0,9,9c3.45,3,5.54,4.84,8.84,6.34a29.16,29.16,0,0,0,11.2,2.48H813a27.94,27.94,0,0,0,19.81-7.93,28,28,0,0,0,9-20.24,27.87,27.87,0,0,0-5.44-17.74l15.21,16,2.07,2.18,2.18-2.06,16.74-15.87,2.18-2.07-2.07-2.18L843-286.58a28,28,0,0,0-20.24-9h-.88A27.93,27.93,0,0,0,802-287.68a28,28,0,0,0-9,20.24,29.58,29.58,0,0,0,.82,7.95l-9.75-10.29L782-271.95h0l-15-15.85a28,28,0,0,0-20.24-9Z" transform="translate(752.31 1407.83)"/><path class="cls-20" d="M799.8-248.84a6.15,6.15,0,0,0-.27,4.26c.71,2,2.48,2.62,4.91,5.1a21.69,21.69,0,0,1,3.06,3.95l-14.82,17.59c-2.21-2.19-3.94-4.16-5.23-5.71-2.15-2.59-3-3.91-3.06-5.64a6.69,6.69,0,0,1,.55-2.9Z" transform="translate(752.31 1407.83)"/><path class="cls-21" d="M764.85-231.22c-2.88-2.67-7.45-6.81-13.26-11.69-13.6-11.43-18.93-14.41-20.33-21.4-.17-.88-1.49-8,3-13.14,5-5.7,13.55-4.74,14.44-4.63a18.13,18.13,0,0,1,4.75,1.31c3,1.28,4.77,3,7.6,6,2.45,2.56,5.27,5.64,8.33,9.21" transform="translate(752.31 1407.83)"/><path class="cls-22" d="M839.85-232.41c-2.88-2.67-7.45-6.82-13.26-11.7-13.64-11.45-19.26-14.47-20.34-21.39-.06-.41-1-7.11,3.38-12.28,5-5.94,13.28-5.41,14.1-5.35,4.28.32,7.8,2.25,20.94,14.49" transform="translate(752.31 1407.83)"/><path class="cls-4" d="M677.94,346.2v-11a5,5,0,0,0-2-3.94,7.23,7.23,0,0,0-4.75-1.65,6.68,6.68,0,0,0-4.44,1.54,5.22,5.22,0,0,0-1.95,3.78V346.2h-1V328.54h1v3.33a5.76,5.76,0,0,1,1.12-1.3,7.71,7.71,0,0,1,5.27-1.91,8.18,8.18,0,0,1,5.4,1.91,5.92,5.92,0,0,1,2.29,4.64v11Z" transform="translate(752.31 1407.83)"/><path class="cls-4" d="M664.7,328.67v3.66a5.94,5.94,0,0,1,1.34-1.67,7.58,7.58,0,0,1,5.18-1.88,8,8,0,0,1,5.32,1.88,5.82,5.82,0,0,1,2.24,4.55v10.86h-.72V335.24a5.11,5.11,0,0,0-2-4,7.33,7.33,0,0,0-4.83-1.67,6.79,6.79,0,0,0-4.52,1.56,5.36,5.36,0,0,0-2,3.87v11.11h-.77v-17.4h.77m.25-.25h-1.27v17.9H665V335a5.11,5.11,0,0,1,1.91-3.68,6.56,6.56,0,0,1,4.36-1.5,7,7,0,0,1,4.67,1.62,4.84,4.84,0,0,1,1.92,3.84v11.08H679V335.21a6.05,6.05,0,0,0-2.33-4.74,8.29,8.29,0,0,0-5.48-1.94,7.84,7.84,0,0,0-5.35,2,7.08,7.08,0,0,0-.92,1v-3Z" transform="translate(752.31 1407.83)"/><path class="cls-4" d="M692.36,346.2a8.84,8.84,0,1,1,8.8-9.45v.14H684.58a3.25,3.25,0,0,0,0,.48,7.82,7.82,0,0,0,7.8,7.8,8,8,0,0,0,4-1.1,7.56,7.56,0,0,0,2.92-3l0-.07h1.09l-.1.19a9.82,9.82,0,0,1-3.39,3.58A8.49,8.49,0,0,1,692.36,346.2Zm7.69-10.34a7.82,7.82,0,0,0-15.35,0Z" transform="translate(752.31 1407.83)"/><path class="cls-4" d="M692.36,328.67a8.68,8.68,0,0,1,8.67,8.09H684.46a4.4,4.4,0,0,0,0,.61,8,8,0,0,0,7.93,7.93,8,8,0,0,0,4.1-1.13,7.59,7.59,0,0,0,3-3h.8a9.58,9.58,0,0,1-3.35,3.53,8.24,8.24,0,0,1-4.52,1.4,8.7,8.7,0,0,1,0-17.4M684.55,336H700.2a7.94,7.94,0,0,0-13-4.68,7.8,7.8,0,0,0-2.7,4.68m7.81-7.56a9,9,0,1,0,0,17.9,8.51,8.51,0,0,0,4.65-1.44,9.91,9.91,0,0,0,3.44-3.62l.2-.37h-1.37l-.07.13a7.44,7.44,0,0,1-2.87,2.94,7.9,7.9,0,0,1-4,1.09,7.72,7.72,0,0,1-7.68-7.68c0-.15,0-.27,0-.36H701.3l0-.27a8.91,8.91,0,0,0-8.92-8.32Zm-7.51,7.31a7.59,7.59,0,0,1,2.56-4.24,7.42,7.42,0,0,1,5-1.82,7.76,7.76,0,0,1,7.54,6.06Z" transform="translate(752.31 1407.83)"/><path class="cls-4" d="M713.66,346.2a8.79,8.79,0,1,1,6.27-2.59A8.5,8.5,0,0,1,713.66,346.2Zm0-16.66a7.87,7.87,0,1,0,5.53,2.31A7.57,7.57,0,0,0,713.66,329.54Z" transform="translate(752.31 1407.83)"/><path class="cls-4" d="M713.66,328.67a8.71,8.71,0,1,1-6.15,2.55,8.4,8.4,0,0,1,6.15-2.55m0,16.63a7.94,7.94,0,0,0,0-15.88,7.94,7.94,0,0,0,0,15.88m0-16.88A8.91,8.91,0,1,0,720,331a8.64,8.64,0,0,0-6.36-2.62Zm0,16.63a7.72,7.72,0,1,1,5.45-2.26,7.42,7.42,0,0,1-5.45,2.26Z" transform="translate(752.31 1407.83)"/><path class="cls-4" d="M737.32,346.2v-1h9.38a4.47,4.47,0,0,0,4.47-4.47,4.46,4.46,0,0,0-4.47-4.48h-.13v0h-5.44A3.6,3.6,0,0,1,738.5,335a3.78,3.78,0,0,1-1.07-2.68,3.81,3.81,0,0,1,3.81-3.81h8v1h-8a2.69,2.69,0,0,0-2,.82,2.73,2.73,0,0,0-.83,2,2.77,2.77,0,0,0,.83,2,2.67,2.67,0,0,0,2,.84H747a5.51,5.51,0,0,1,5.17,5.5,5.31,5.31,0,0,1-1.5,3.77A5.43,5.43,0,0,1,747,346.2h-9.69Z" transform="translate(752.31 1407.83)"/><path class="cls-4" d="M749.16,328.67v.75h-7.92a2.76,2.76,0,0,0-2,.86,2.82,2.82,0,0,0-.86,2.07,2.91,2.91,0,0,0,.86,2.1,2.77,2.77,0,0,0,2,.87H747a5.25,5.25,0,0,1,3.58,1.69,5.39,5.39,0,0,1-3.58,9.06h-9.56v-.77h9.26a4.6,4.6,0,1,0,0-9.2v0h-5.57a3.46,3.46,0,0,1-2.54-1.12,3.67,3.67,0,0,1-1-2.6,3.69,3.69,0,0,1,3.69-3.68h7.92m.25-.25h-8.17a3.94,3.94,0,0,0-3.94,3.93,3.94,3.94,0,0,0,1.11,2.77,3.74,3.74,0,0,0,2.71,1.2h5.33l.25,0a4.35,4.35,0,0,1,0,8.7h-9.51v1.27H747a5.48,5.48,0,0,0,3.76-1.77,5.6,5.6,0,0,0,0-7.71,5.51,5.51,0,0,0-3.74-1.77h-5.78a2.49,2.49,0,0,1-1.87-.8,2.61,2.61,0,0,1-.79-1.92,2.57,2.57,0,0,1,.79-1.9,2.51,2.51,0,0,1,1.87-.78h8.17v-1.25Z" transform="translate(752.31 1407.83)"/><polygon class="cls-4" points="1508.35 1754.03 1508.35 1731 1509.29 1731 1509.38 1731.13 1509.38 1754.03 1508.35 1754.03"/><path class="cls-4" d="M756.94,323.29v22.78h-.77V323.29h.77m.25-.25h-1.27v23.28h1.27V323Z" transform="translate(752.31 1407.83)"/><path class="cls-4" d="M763.62,346.2V328.54h1V346.2Zm.49-20.54a.51.51,0,0,1,0-1,.51.51,0,1,1,0,1Z" transform="translate(752.31 1407.83)"/><path class="cls-4" d="M764.11,324.76c.27,0,.41.13.41.39s-.14.39-.41.39-.36-.13-.36-.39.11-.39.36-.39m.41,3.91v17.4h-.77v-17.4h.77m-.41-4.16a.64.64,0,0,0,0,1.28.64.64,0,1,0,0-1.28Zm.66,3.91H763.5v17.9h1.27v-17.9Z" transform="translate(752.31 1407.83)"/><path class="cls-4" d="M787.86,346.2v-4.77a8.48,8.48,0,0,1-1.58,2.18,8.84,8.84,0,1,1,0-12.48,8.29,8.29,0,0,1,1.59,2.18V323.17h1v23ZM780,329.54a7.87,7.87,0,1,0,5.52,2.31A7.54,7.54,0,0,0,780,329.54Z" transform="translate(752.31 1407.83)"/><path class="cls-4" d="M788.74,323.29v22.78H788v-5.21a8.24,8.24,0,0,1-1.8,2.66,8.7,8.7,0,1,1,0-12.3,8.24,8.24,0,0,1,1.8,2.66V323.29h.75m-8.73,22a8,8,0,1,0-5.6-2.33,7.66,7.66,0,0,0,5.6,2.33M789,323h-1.25v9.78a8.6,8.6,0,0,0-1.38-1.78,9,9,0,1,0,0,12.66,8.82,8.82,0,0,0,1.38-1.77v4.39H789V323Zm-9,22a7.7,7.7,0,1,1,5.45-2.26,7.44,7.44,0,0,1-5.45,2.26Z" transform="translate(752.31 1407.83)"/><path class="cls-4" d="M802.61,346.2a8.84,8.84,0,1,1,8.8-9.45v.14h-16.6c0,.12,0,.28,0,.48a7.82,7.82,0,0,0,7.8,7.8,8,8,0,0,0,4-1.1,7.6,7.6,0,0,0,2.91-3l0-.07h1.09l-.1.19a9.85,9.85,0,0,1-3.4,3.58A8.46,8.46,0,0,1,802.61,346.2Zm7.69-10.34a7.87,7.87,0,0,0-7.69-6.32,7.53,7.53,0,0,0-5,1.86,7.67,7.67,0,0,0-2.64,4.46Z" transform="translate(752.31 1407.83)"/><path class="cls-4" d="M802.61,328.67a8.68,8.68,0,0,1,8.67,8.09H794.71a4.4,4.4,0,0,0,0,.61,8,8,0,0,0,7.93,7.93,8,8,0,0,0,4.1-1.13,7.56,7.56,0,0,0,3-3h.81a9.74,9.74,0,0,1-3.35,3.53,8.26,8.26,0,0,1-4.52,1.4,8.7,8.7,0,0,1,0-17.4M794.79,336h15.66a7.94,7.94,0,0,0-13-4.68,7.81,7.81,0,0,0-2.71,4.68m7.82-7.56a9,9,0,1,0,0,17.9,8.51,8.51,0,0,0,4.65-1.44,9.91,9.91,0,0,0,3.44-3.62l.2-.37h-1.38l-.07.13a7.31,7.31,0,0,1-2.87,2.94,7.83,7.83,0,0,1-4,1.09,7.72,7.72,0,0,1-7.68-7.68c0-.15,0-.27,0-.36h16.61l0-.27a8.91,8.91,0,0,0-8.92-8.32Zm-7.51,7.31a7.59,7.59,0,0,1,2.56-4.24,7.41,7.41,0,0,1,5-1.82,7.76,7.76,0,0,1,7.54,6.06Z" transform="translate(752.31 1407.83)"/><rect class="cls-4" x="1416.1" y="1753.73" width="1.03" height="19.49"/><path class="cls-4" d="M664.7,346v19.24h-.78V346h.78m.25-.25h-1.28v19.74H665V345.77Z" transform="translate(752.31 1407.83)"/><rect class="cls-4" x="1508.37" y="1753" width="2.94" height="1.03"/><path class="cls-4" d="M758.88,345.29v.78h-2.69v-.78h2.69m.25-.25h-3.19v1.28h3.19V345Z" transform="translate(752.31 1407.83)"/><rect class="cls-4" x="1516.43" y="1758.76" width="2.94" height="1.03"/><path class="cls-4" d="M766.94,351.06v.77h-2.69v-.77h2.69m.25-.25H764v1.27h3.19v-1.27Z" transform="translate(752.31 1407.83)"/><rect class="cls-4" x="1518.41" y="1762.17" width="2.16" height="1.03"/><path class="cls-4" d="M768.14,354.46v.77h-1.91v-.77h1.91m.25-.25H766v1.27h2.41v-1.27Z" transform="translate(752.31 1407.83)"/><rect class="cls-4" x="1516.55" y="1744.83" width="7.61" height="1.03"/><path class="cls-4" d="M771.73,337.12v.78h-7.36v-.78h7.36m.25-.25h-7.86v1.28H772v-1.28Z" transform="translate(752.31 1407.83)"/><rect class="cls-4" x="1518.36" y="1758.81" width="1.03" height="5.46"/><path class="cls-4" d="M767,351.1v5.22h-.78V351.1H767m.25-.25h-1.28v5.72h1.28v-5.72Z" transform="translate(752.31 1407.83)"/><rect class="cls-4" x="1471.48" y="1753.02" width="20.3" height="1.03"/><path class="cls-4" d="M739.35,345.31v.78H719.3v-.78h20.05m.25-.25H719.05v1.28H739.6v-1.28Z" transform="translate(752.31 1407.83)"/><rect class="cls-4" x="1515.94" y="1748.38" width="1.03" height="19.49"/><path class="cls-4" d="M764.53,340.67V359.9h-.77V340.67h.77m.25-.25h-1.27v19.73h1.27V340.42Z" transform="translate(752.31 1407.83)"/><rect class="cls-4" x="1508.34" y="1725.21" width="1.03" height="13.46"/><path class="cls-4" d="M756.93,317.5v13.21h-.77V317.5h.77m.25-.25h-1.27V331h1.27V317.25Z" transform="translate(752.31 1407.83)"/><rect class="cls-4" x="1412.92" y="1762.1" width="3.99" height="0.84"/><path class="cls-4" d="M664.48,354.39V355h-3.74v-.59h3.74m.25-.25h-4.24v1.09h4.24v-1.09Z" transform="translate(752.31 1407.83)"/><rect class="cls-4" x="1412.9" y="1762.1" width="0.84" height="3.99"/><path class="cls-4" d="M661.31,354.39v3.73h-.59v-3.73h.59m.25-.25h-1.09v4.23h1.09v-4.23Z" transform="translate(752.31 1407.83)"/><rect class="cls-4" x="1412.9" y="1764.2" width="0.84" height="3.99"/><path class="cls-4" d="M661.31,356.49v3.73h-.59v-3.73h.59m.25-.25h-1.09v4.23h1.09v-4.23Z" transform="translate(752.31 1407.83)"/><path class="cls-4" d="M762.74,248.44a2.82,2.82,0,0,1,2,.91l29.76,31.4,16.74-15.87-29.76-31.4a26,26,0,0,0-37.68,35.71l11.91,12.56a2.82,2.82,0,0,1,.8,2.06,2.9,2.9,0,0,1-4,2.61,2.73,2.73,0,0,1-1-.7c-3.28-3.42-6.6-6.8-9.9-10.21a5.46,5.46,0,0,1-1.39-2.09,6.15,6.15,0,0,1,.26-4.26l-17.89-18.87h0l-17.09-18A26,26,0,0,0,667.84,268l12.62,13.17.07-.06,16.32,16.84,16.57-16.06-16.14-16.65h0l-12.69-13.12a2.72,2.72,0,0,1-.8-2.06,2.88,2.88,0,0,1,5-1.9l29.77,31.39h0l6.27,6.61h0a7.24,7.24,0,0,0-.3,2.88,7.5,7.5,0,0,0,1.57,3.83,88.2,88.2,0,0,0,8.7,8.75c3.45,3,5.22,4.56,8.1,5.86a25.92,25.92,0,0,0,10,2.22,26,26,0,0,0,19.53-43.79l-11.9-12.56a2.86,2.86,0,0,1,.11-4.08A2.79,2.79,0,0,1,762.74,248.44Z" transform="translate(752.31 1407.83)"/><path class="cls-23" d="M740.51,269.16a6.07,6.07,0,0,0-.26,4.26c.7,2,2.47,2.62,4.91,5.1a21.55,21.55,0,0,1,3.05,4l-14.82,17.59c-2.2-2.19-3.94-4.16-5.23-5.71-2.14-2.59-3-3.91-3-5.64a6.55,6.55,0,0,1,.55-2.9Z" transform="translate(752.31 1407.83)"/><path class="cls-24" d="M706.57,287.78c-2.88-2.67-7.45-6.81-13.26-11.69-13.61-11.43-18.94-14.41-20.33-21.4-.18-.88-1.5-8,3-13.14,5-5.7,13.55-4.74,14.44-4.63a17.94,17.94,0,0,1,4.75,1.31c3,1.28,4.77,3,7.61,6,2.44,2.56,5.27,5.64,8.33,9.21" transform="translate(752.31 1407.83)"/><path class="cls-25" d="M780.56,286.59c-2.88-2.67-7.45-6.82-13.26-11.7C753.67,263.44,748,260.42,747,253.5c-.07-.41-1-7.11,3.37-12.28,5-5.94,13.28-5.41,14.11-5.35,4.28.32,7.8,2.25,20.93,14.49" transform="translate(752.31 1407.83)"/><path d="M686.57,224.19h.81a25,25,0,0,1,18.14,8.07l17.09,18h0l17.89,18.87a6.15,6.15,0,0,0-.26,4.26,5.46,5.46,0,0,0,1.39,2.09c3.3,3.41,6.62,6.79,9.9,10.21a2.73,2.73,0,0,0,1,.7,2.8,2.8,0,0,0,1,.21h.09a2.92,2.92,0,0,0,2.88-2.82,2.82,2.82,0,0,0-.8-2.06l-11.91-12.56a25.94,25.94,0,0,1,18.73-43.79h.81a25,25,0,0,1,18.14,8.07l29.76,31.4-16.74,15.87-29.76-31.4a2.82,2.82,0,0,0-2-.91h-.08a2.92,2.92,0,0,0-2.89,2.82,2.76,2.76,0,0,0,.8,2.06l11.9,12.56a25.94,25.94,0,0,1-18.72,43.8h-.81a25.92,25.92,0,0,1-10-2.22c-2.88-1.3-4.65-2.84-8.1-5.86a88.2,88.2,0,0,1-8.7-8.75,7.5,7.5,0,0,1-1.57-3.83,7.24,7.24,0,0,1,.3-2.88h0l-6.27-6.61h0l-29.77-31.39a2.74,2.74,0,0,0-2-.91h-.09a2.94,2.94,0,0,0-2.88,2.82,2.72,2.72,0,0,0,.8,2.06l12.69,13.12h0l16.14,16.65-16.57,16.06L680.53,281.1l-.07.06L667.84,268a25.94,25.94,0,0,1,18.73-43.8m0-5h0a31,31,0,0,0-22.36,52.24l12.64,13.19,3.44,3.59.09-.08,12.88,13.29,3.48,3.59,3.59-3.48,16.57-16.06.19-.18,1.26,1.32h0l1.15,1.2a10.7,10.7,0,0,0,0,1.7,12.32,12.32,0,0,0,2.62,6.44l.07.09.07.09a94.34,94.34,0,0,0,9.19,9.24c3.59,3.14,5.76,5,9.34,6.65a31,31,0,0,0,12,2.66h.94a30.91,30.91,0,0,0,30.81-30.12,31.58,31.58,0,0,0-.71-7.79l7,7.42,3.44,3.63,3.63-3.44,16.74-15.87,3.63-3.44-3.44-3.63L785.13,230a30,30,0,0,0-21.64-9.63h-.94a30.91,30.91,0,0,0-30.82,30.11c0,.72,0,1.43,0,2.13l-5.49-5.79-3.44-3.63h0l-13.65-14.4a30,30,0,0,0-21.64-9.63Z" transform="translate(752.31 1407.83)"/><path class="cls-4" d="M464.22-178.8v-11a5,5,0,0,0-2-3.94,7.23,7.23,0,0,0-4.76-1.65,6.7,6.7,0,0,0-4.44,1.54,5.22,5.22,0,0,0-1.95,3.78v11.23h-1v-17.66h1v3.33a6.07,6.07,0,0,1,1.13-1.3,7.71,7.71,0,0,1,5.26-1.91,8.16,8.16,0,0,1,5.4,1.91,5.92,5.92,0,0,1,2.29,4.64v11Z" transform="translate(752.31 1407.83)"/><path class="cls-4" d="M451-196.33v3.66a5.91,5.91,0,0,1,1.33-1.67,7.58,7.58,0,0,1,5.18-1.88,8,8,0,0,1,5.32,1.88,5.8,5.8,0,0,1,2.25,4.55v10.86h-.72v-10.83a5.11,5.11,0,0,0-2-4,7.34,7.34,0,0,0-4.84-1.67,6.81,6.81,0,0,0-4.52,1.56,5.35,5.35,0,0,0-2,3.87v11.11h-.78v-17.4H451m.25-.25H450v17.9h1.28V-190a5.11,5.11,0,0,1,1.91-3.68,6.53,6.53,0,0,1,4.35-1.5,7.07,7.07,0,0,1,4.68,1.62,4.87,4.87,0,0,1,1.92,3.84v11.08h1.22v-11.11a6.06,6.06,0,0,0-2.34-4.74,8.27,8.27,0,0,0-5.48-1.94,7.83,7.83,0,0,0-5.34,1.95,6,6,0,0,0-.92,1v-3Z" transform="translate(752.31 1407.83)"/><path class="cls-4" d="M478.65-178.8a8.51,8.51,0,0,1-6.24-2.59,8.51,8.51,0,0,1-2.59-6.24,8.54,8.54,0,0,1,2.59-6.24,8.51,8.51,0,0,1,6.24-2.59,8.54,8.54,0,0,1,6,2.37,8.49,8.49,0,0,1,2.78,5.84v.14H470.86c0,.12,0,.28,0,.48a7.56,7.56,0,0,0,2.3,5.51,7.54,7.54,0,0,0,5.51,2.29,7.87,7.87,0,0,0,4-1.11,7.47,7.47,0,0,0,2.92-3l0-.07h1.09l-.1.19a9.94,9.94,0,0,1-3.4,3.58A8.46,8.46,0,0,1,478.65-178.8Zm7.69-10.34a7.64,7.64,0,0,0-2.66-4.48,7.65,7.65,0,0,0-5-1.84,7.57,7.57,0,0,0-5,1.86,7.74,7.74,0,0,0-2.63,4.46Z" transform="translate(752.31 1407.83)"/><path class="cls-4" d="M478.65-196.33a8.38,8.38,0,0,1,5.93,2.33,8.38,8.38,0,0,1,2.74,5.76H470.75a4.4,4.4,0,0,0,0,.61,7.64,7.64,0,0,0,2.33,5.6,7.64,7.64,0,0,0,5.6,2.33,8.07,8.07,0,0,0,4.1-1.13,7.56,7.56,0,0,0,3-3h.81a9.69,9.69,0,0,1-3.36,3.53,8.21,8.21,0,0,1-4.51,1.4,8.39,8.39,0,0,1-6.16-2.55,8.38,8.38,0,0,1-2.55-6.15,8.38,8.38,0,0,1,2.55-6.15,8.39,8.39,0,0,1,6.16-2.55M470.83-189h15.66a7.71,7.71,0,0,0-2.73-4.69,7.72,7.72,0,0,0-5.11-1.87,7.68,7.68,0,0,0-5.12,1.88,7.8,7.8,0,0,0-2.7,4.68m7.82-7.56a8.66,8.66,0,0,0-6.33,2.62,8.67,8.67,0,0,0-2.63,6.33,8.67,8.67,0,0,0,2.63,6.33,8.66,8.66,0,0,0,6.33,2.62,8.54,8.54,0,0,0,4.65-1.44,10,10,0,0,0,3.44-3.62l.2-.37h-1.38l-.07.13a7.37,7.37,0,0,1-2.87,2.94,7.86,7.86,0,0,1-4,1.09,7.42,7.42,0,0,1-5.43-2.26,7.45,7.45,0,0,1-2.25-5.42c0-.15,0-.27,0-.36h16.61l0-.27a8.69,8.69,0,0,0-2.82-5.93,8.69,8.69,0,0,0-6.1-2.39Zm-7.51,7.31a7.59,7.59,0,0,1,2.56-4.24,7.41,7.41,0,0,1,4.95-1.82,7.54,7.54,0,0,1,5,1.81,7.53,7.53,0,0,1,2.58,4.25Z" transform="translate(752.31 1407.83)"/><path class="cls-4" d="M500-178.8a8.51,8.51,0,0,1-6.24-2.59,8.51,8.51,0,0,1-2.59-6.24,8.54,8.54,0,0,1,2.59-6.24,8.53,8.53,0,0,1,6.24-2.59,8.58,8.58,0,0,1,6.27,2.59,8.53,8.53,0,0,1,2.56,6.24,8.53,8.53,0,0,1-2.56,6.24A8.58,8.58,0,0,1,500-178.8Zm0-16.66a7.54,7.54,0,0,0-5.51,2.29,7.59,7.59,0,0,0-2.29,5.54,7.55,7.55,0,0,0,2.29,5.51,7.54,7.54,0,0,0,5.51,2.29,7.59,7.59,0,0,0,5.54-2.29,7.54,7.54,0,0,0,2.29-5.51,7.56,7.56,0,0,0-2.31-5.52A7.57,7.57,0,0,0,500-195.46Z" transform="translate(752.31 1407.83)"/><path class="cls-4" d="M500-196.33a8.42,8.42,0,0,1,6.18,2.55,8.37,8.37,0,0,1,2.52,6.15,8.37,8.37,0,0,1-2.52,6.15,8.42,8.42,0,0,1-6.18,2.55,8.38,8.38,0,0,1-6.15-2.55,8.38,8.38,0,0,1-2.55-6.15,8.38,8.38,0,0,1,2.55-6.15,8.38,8.38,0,0,1,6.15-2.55m0,16.63a7.66,7.66,0,0,0,5.62-2.33,7.6,7.6,0,0,0,2.33-5.6,7.65,7.65,0,0,0-2.34-5.61,7.65,7.65,0,0,0-5.61-2.34,7.6,7.6,0,0,0-5.6,2.33,7.66,7.66,0,0,0-2.33,5.62,7.64,7.64,0,0,0,2.33,5.6,7.64,7.64,0,0,0,5.6,2.33m0-16.88a8.66,8.66,0,0,0-6.33,2.62,8.66,8.66,0,0,0-2.62,6.33,8.66,8.66,0,0,0,2.62,6.33,8.66,8.66,0,0,0,6.33,2.62,8.7,8.7,0,0,0,6.36-2.62,8.65,8.65,0,0,0,2.59-6.33,8.66,8.66,0,0,0-2.59-6.33,8.7,8.7,0,0,0-6.36-2.62Zm0,16.63a7.4,7.4,0,0,1-5.42-2.26,7.42,7.42,0,0,1-2.26-5.42,7.45,7.45,0,0,1,2.26-5.45,7.43,7.43,0,0,1,5.42-2.25,7.41,7.41,0,0,1,5.43,2.27,7.41,7.41,0,0,1,2.27,5.43,7.43,7.43,0,0,1-2.25,5.42,7.45,7.45,0,0,1-5.45,2.26Z" transform="translate(752.31 1407.83)"/><path class="cls-4" d="M523.6-178.8v-1H533a4.33,4.33,0,0,0,3.17-1.31,4.3,4.3,0,0,0,1.31-3.16,4.33,4.33,0,0,0-1.31-3.17,4.33,4.33,0,0,0-3.17-1.31h-.12v0h-5.45a3.58,3.58,0,0,1-2.62-1.16,3.75,3.75,0,0,1-1.08-2.68,3.69,3.69,0,0,1,1.12-2.69,3.69,3.69,0,0,1,2.69-1.12h8.05v1h-8.05a2.72,2.72,0,0,0-2,.82,2.76,2.76,0,0,0-.82,2,2.8,2.8,0,0,0,.82,2,2.69,2.69,0,0,0,2,.83h5.77a5.39,5.39,0,0,1,3.66,1.73,5.35,5.35,0,0,1,1.51,3.78,5.32,5.32,0,0,1-1.51,3.77,5.39,5.39,0,0,1-3.66,1.73H523.6Z" transform="translate(752.31 1407.83)"/><path class="cls-4" d="M535.45-196.33v.75h-7.93a2.77,2.77,0,0,0-2,.86,2.82,2.82,0,0,0-.86,2.07,2.91,2.91,0,0,0,.86,2.1,2.78,2.78,0,0,0,2,.87h5.77a5.25,5.25,0,0,1,3.57,1.69,5.18,5.18,0,0,1,1.47,3.69,5.16,5.16,0,0,1-1.47,3.68,5.2,5.2,0,0,1-3.57,1.69h-9.56v-.77H533a4.43,4.43,0,0,0,3.26-1.35,4.44,4.44,0,0,0,1.34-3.25,4.46,4.46,0,0,0-1.34-3.26A4.42,4.42,0,0,0,533-188.9v0h-5.57a3.46,3.46,0,0,1-2.53-1.12,3.62,3.62,0,0,1-1-2.6,3.55,3.55,0,0,1,1.08-2.6,3.55,3.55,0,0,1,2.6-1.08h7.93m.25-.25h-8.18a3.83,3.83,0,0,0-2.78,1.15,3.83,3.83,0,0,0-1.15,2.78,3.9,3.9,0,0,0,1.11,2.77,3.71,3.71,0,0,0,2.71,1.2h5.32l.25,0a4.13,4.13,0,0,1,3.08,1.27,4.13,4.13,0,0,1,1.27,3.08,4.12,4.12,0,0,1-1.27,3.07,4.14,4.14,0,0,1-3.08,1.28h-9.5v1.27h9.81a5.44,5.44,0,0,0,3.75-1.77,5.42,5.42,0,0,0,1.54-3.85,5.44,5.44,0,0,0-1.54-3.86,5.47,5.47,0,0,0-3.74-1.77h-5.78a2.51,2.51,0,0,1-1.87-.8,2.61,2.61,0,0,1-.79-1.92,2.57,2.57,0,0,1,.79-1.9,2.52,2.52,0,0,1,1.87-.78h8.18v-1.25Z" transform="translate(752.31 1407.83)"/><polygon class="cls-4" points="1294.64 1229.03 1294.64 1206 1295.58 1206 1295.66 1206.13 1295.66 1229.03 1294.64 1229.03"/><path class="cls-4" d="M543.23-201.71v22.78h-.78v-22.78h.78m.25-.25H542.2v23.28h1.28V-202Z" transform="translate(752.31 1407.83)"/><path class="cls-4" d="M549.91-178.8v-17.66h1v17.66Zm.48-20.54a.45.45,0,0,1-.48-.51.45.45,0,0,1,.48-.51.47.47,0,0,1,.54.51A.47.47,0,0,1,550.39-199.34Z" transform="translate(752.31 1407.83)"/><path class="cls-4" d="M550.39-200.24q.42,0,.42.39t-.42.39q-.36,0-.36-.39t.36-.39m.42,3.91v17.4H550v-17.4h.78m-.42-4.16a.58.58,0,0,0-.61.64.58.58,0,0,0,.61.64.6.6,0,0,0,.67-.64.6.6,0,0,0-.67-.64Zm.67,3.91h-1.28v17.9h1.28v-17.9Z" transform="translate(752.31 1407.83)"/><path class="cls-4" d="M574.15-178.8v-4.77a8.52,8.52,0,0,1-1.59,2.18,8.56,8.56,0,0,1-6.27,2.59,8.54,8.54,0,0,1-6.24-2.59,8.54,8.54,0,0,1-2.58-6.24,8.57,8.57,0,0,1,2.58-6.24,8.54,8.54,0,0,1,6.24-2.59,8.58,8.58,0,0,1,6.27,2.59,8.52,8.52,0,0,1,1.59,2.18v-10.14h1v23Zm-7.86-16.66a7.55,7.55,0,0,0-5.51,2.29,7.59,7.59,0,0,0-2.29,5.54,7.55,7.55,0,0,0,2.29,5.51,7.55,7.55,0,0,0,5.51,2.29,7.57,7.57,0,0,0,5.54-2.29,7.54,7.54,0,0,0,2.29-5.51,7.59,7.59,0,0,0-2.3-5.52A7.58,7.58,0,0,0,566.29-195.46Z" transform="translate(752.31 1407.83)"/><path class="cls-4" d="M575-201.71v22.78h-.75v-5.21a7.94,7.94,0,0,1-1.8,2.66,8.42,8.42,0,0,1-6.18,2.55,8.38,8.38,0,0,1-6.15-2.55,8.38,8.38,0,0,1-2.55-6.15,8.38,8.38,0,0,1,2.55-6.15,8.38,8.38,0,0,1,6.15-2.55,8.42,8.42,0,0,1,6.18,2.55,7.94,7.94,0,0,1,1.8,2.66v-10.59H575m-8.73,22a7.69,7.69,0,0,0,5.63-2.33,7.63,7.63,0,0,0,2.32-5.6,7.61,7.61,0,0,0-2.34-5.61,7.65,7.65,0,0,0-5.61-2.34,7.62,7.62,0,0,0-5.6,2.33,7.65,7.65,0,0,0-2.32,5.62,7.63,7.63,0,0,0,2.32,5.6,7.66,7.66,0,0,0,5.6,2.33m9-22.26H574v9.78a8.9,8.9,0,0,0-1.37-1.78,8.7,8.7,0,0,0-6.36-2.62A8.66,8.66,0,0,0,560-194a8.66,8.66,0,0,0-2.62,6.33A8.66,8.66,0,0,0,560-181.3a8.66,8.66,0,0,0,6.33,2.62,8.7,8.7,0,0,0,6.36-2.62,9.14,9.14,0,0,0,1.37-1.77v4.39h1.25V-202Zm-9,22a7.42,7.42,0,0,1-5.42-2.26,7.41,7.41,0,0,1-2.25-5.42,7.44,7.44,0,0,1,2.25-5.45,7.45,7.45,0,0,1,5.42-2.25,7.45,7.45,0,0,1,5.44,2.27,7.44,7.44,0,0,1,2.26,5.43,7.39,7.39,0,0,1-2.25,5.42,7.45,7.45,0,0,1-5.45,2.26Z" transform="translate(752.31 1407.83)"/><path class="cls-4" d="M588.89-178.8a8.54,8.54,0,0,1-6.24-2.59,8.54,8.54,0,0,1-2.58-6.24,8.57,8.57,0,0,1,2.58-6.24,8.54,8.54,0,0,1,6.24-2.59,8.55,8.55,0,0,1,6,2.37,8.53,8.53,0,0,1,2.78,5.84v.14H581.11c0,.12,0,.28,0,.48a7.55,7.55,0,0,0,2.29,5.51,7.55,7.55,0,0,0,5.51,2.29,7.88,7.88,0,0,0,4-1.11,7.47,7.47,0,0,0,2.92-3l0-.07H597l-.1.19a9.82,9.82,0,0,1-3.39,3.58A8.49,8.49,0,0,1,588.89-178.8Zm7.69-10.34a7.62,7.62,0,0,0-2.65-4.48,7.66,7.66,0,0,0-5-1.84,7.55,7.55,0,0,0-5,1.86,7.71,7.71,0,0,0-2.63,4.46Z" transform="translate(752.31 1407.83)"/><path class="cls-4" d="M588.89-196.33a8.36,8.36,0,0,1,5.93,2.33,8.35,8.35,0,0,1,2.75,5.76H581a4.4,4.4,0,0,0,0,.61,7.63,7.63,0,0,0,2.32,5.6,7.66,7.66,0,0,0,5.6,2.33,8,8,0,0,0,4.1-1.13,7.53,7.53,0,0,0,3-3h.8a9.58,9.58,0,0,1-3.35,3.53,8.21,8.21,0,0,1-4.52,1.4,8.38,8.38,0,0,1-6.15-2.55,8.38,8.38,0,0,1-2.55-6.15,8.38,8.38,0,0,1,2.55-6.15,8.38,8.38,0,0,1,6.15-2.55M581.08-189h15.65a7.69,7.69,0,0,0-2.72-4.69,7.74,7.74,0,0,0-5.12-1.87,7.65,7.65,0,0,0-5.11,1.88,7.8,7.8,0,0,0-2.7,4.68m7.81-7.56a8.62,8.62,0,0,0-6.32,2.62,8.63,8.63,0,0,0-2.63,6.33,8.63,8.63,0,0,0,2.63,6.33,8.62,8.62,0,0,0,6.32,2.62,8.57,8.57,0,0,0,4.66-1.44,10,10,0,0,0,3.43-3.62l.2-.37h-1.37l-.07.13a7.44,7.44,0,0,1-2.87,2.94,7.9,7.9,0,0,1-4,1.09,7.42,7.42,0,0,1-5.42-2.26,7.45,7.45,0,0,1-2.25-5.42V-188h16.62l0-.27a8.66,8.66,0,0,0-2.83-5.93,8.65,8.65,0,0,0-6.1-2.39Zm-7.51,7.31a7.59,7.59,0,0,1,2.56-4.24,7.42,7.42,0,0,1,4.95-1.82,7.57,7.57,0,0,1,5,1.81,7.53,7.53,0,0,1,2.58,4.25Z" transform="translate(752.31 1407.83)"/><rect class="cls-4" x="1202.39" y="1228.73" width="1.03" height="19.49"/><path class="cls-4" d="M451-179v19.24h-.77V-179H451m.25-.25H450v19.74h1.27v-19.74Z" transform="translate(752.31 1407.83)"/><rect class="cls-4" x="1294.65" y="1228" width="2.94" height="1.03"/><path class="cls-4" d="M545.16-179.71v.78h-2.69v-.78h2.69m.25-.25h-3.19v1.28h3.19V-180Z" transform="translate(752.31 1407.83)"/><rect class="cls-4" x="1302.72" y="1233.77" width="2.94" height="1.03"/><path class="cls-4" d="M553.23-173.94v.77h-2.69v-.77h2.69m.25-.25h-3.19v1.27h3.19v-1.27Z" transform="translate(752.31 1407.83)"/><rect class="cls-4" x="1304.69" y="1237.17" width="2.16" height="1.03"/><path class="cls-4" d="M554.42-170.54v.77h-1.91v-.77h1.91m.25-.25h-2.41v1.27h2.41v-1.27Z" transform="translate(752.31 1407.83)"/><rect class="cls-4" x="1302.84" y="1219.83" width="7.61" height="1.03"/><path class="cls-4" d="M558-187.88v.78h-7.36v-.78H558m.25-.25h-7.86v1.28h7.86v-1.28Z" transform="translate(752.31 1407.83)"/><rect class="cls-4" x="1304.65" y="1233.81" width="1.03" height="5.47"/><path class="cls-4" d="M553.24-173.9v5.22h-.78v-5.22h.78m.25-.25h-1.28v5.72h1.28v-5.72Z" transform="translate(752.31 1407.83)"/><rect class="cls-4" x="1257.77" y="1228.02" width="20.3" height="1.03"/><path class="cls-4" d="M525.63-179.69v.78h-20v-.78h20m.25-.25H505.34v1.28h20.54v-1.28Z" transform="translate(752.31 1407.83)"/><rect class="cls-4" x="1302.22" y="1223.37" width="1.03" height="19.49"/><path class="cls-4" d="M550.82-184.33v19.23H550v-19.23h.78m.25-.25h-1.28v19.73h1.28v-19.73Z" transform="translate(752.31 1407.83)"/><rect class="cls-4" x="1294.62" y="1200.21" width="1.03" height="13.46"/><path class="cls-4" d="M543.22-207.5v13.21h-.78V-207.5h.78m.25-.25h-1.28V-194h1.28v-13.71Z" transform="translate(752.31 1407.83)"/><rect class="cls-4" x="1199.21" y="1237.1" width="3.99" height="0.84"/><path class="cls-4" d="M450.76-170.61v.59H447v-.59h3.73m.25-.25h-4.23v1.09H451v-1.09Z" transform="translate(752.31 1407.83)"/><rect class="cls-4" x="1199.19" y="1237.1" width="0.84" height="3.99"/><path class="cls-4" d="M447.6-170.61v3.73H447v-3.73h.6m.25-.25h-1.1v4.23h1.1v-4.23Z" transform="translate(752.31 1407.83)"/><rect class="cls-4" x="1199.19" y="1239.2" width="0.84" height="3.99"/><path class="cls-4" d="M447.6-168.51v3.73H447v-3.73h.6m.25-.25h-1.1v4.23h1.1v-4.23Z" transform="translate(752.31 1407.83)"/><path class="cls-4" d="M597.55-260.12l-29.77-31.4a25,25,0,0,0-18.14-8.07,25,25,0,0,0-18.55,7.09A25,25,0,0,0,523-274.36a25,25,0,0,0,7.09,18.55L542-243.25a2.79,2.79,0,0,1,.81,2.06,2.83,2.83,0,0,1-.92,2,2.76,2.76,0,0,1-2.06.8,2.8,2.8,0,0,1-1-.21,2.76,2.76,0,0,1-1-.7q-1.83-1.91-3.68-3.79c.12.18.25.37.35.54l-14.82,17.59c-2.21-2.19-3.94-4.16-5.23-5.71-2.15-2.59-3-3.91-3.06-5.64a6.69,6.69,0,0,1,.55-2.9l14.86-16.65-17.89-18.87h0l-17.09-18a25,25,0,0,0-18.14-8.07,25,25,0,0,0-18.55,7.09A25,25,0,0,0,447-275.56,25,25,0,0,0,454.13-257l12.62,13.17.06-.06,16.33,16.84,16.56-16.06-5.35-5.52-1.5,11.42c-2.88-2.67-7.45-6.81-13.26-11.69-13.6-11.43-18.93-14.41-20.33-21.4-.17-.88-1.49-8,3-13.14,5-5.7,13.55-4.74,14.44-4.63a18.13,18.13,0,0,1,4.75,1.31c2.95,1.28,4.77,3,7.6,6,2.45,2.56,5.27,5.64,8.33,9.21l-2.1,16,9.57,10.09h0l6.26,6.61h0a7.46,7.46,0,0,0-.29,2.88,7.33,7.33,0,0,0,1.57,3.83,88.28,88.28,0,0,0,8.69,8.75c3.45,3,5.23,4.56,8.11,5.86a25.88,25.88,0,0,0,10,2.22,25,25,0,0,0,18.55-7.09,24.89,24.89,0,0,0,8-17c-2.88-2.66-7-6.4-12.2-10.73-13.64-11.45-19.26-14.47-20.34-21.39-.06-.41-1-7.11,3.38-12.28,5-5.94,13.28-5.41,14.1-5.35,4.28.32,7.8,2.25,20.94,14.49l-2.43,18.2,11.56,12.19Z" transform="translate(752.31 1407.83)"/><path class="cls-4" d="M526.39-252.08a5.07,5.07,0,0,0,.14.5C526.47-251.75,526.43-251.92,526.39-252.08Z" transform="translate(752.31 1407.83)"/><path class="cls-4" d="M526.32-252.48c0,.06,0,.13,0,.18Z" transform="translate(752.31 1407.83)"/><path class="cls-26" d="M526.35-252.3c0,.08,0,.15,0,.22S526.36-252.22,526.35-252.3Z" transform="translate(752.31 1407.83)"/><path class="cls-27" d="M526.32-252.48a6.83,6.83,0,0,1,.48-3.36A6.7,6.7,0,0,0,526.32-252.48Z" transform="translate(752.31 1407.83)"/><path class="cls-4" d="M511.39-236.29c.09,1.73.91,3,3.06,5.64,1.29,1.55,3,3.52,5.23,5.71l14.82-17.59c-.1-.17-.23-.36-.35-.54l-6.22-6.42a5.47,5.47,0,0,1-1.4-2.09,5.07,5.07,0,0,1-.14-.5c0-.07,0-.14,0-.22s0-.12,0-.18a6.7,6.7,0,0,1,.48-3.36l-14.86,16.65A6.69,6.69,0,0,0,511.39-236.29Z" transform="translate(752.31 1407.83)"/><path class="cls-28" d="M511.39-236.29c.09,1.73.91,3,3.06,5.64,1.29,1.55,3,3.52,5.23,5.71l14.82-17.59c-.1-.17-.23-.36-.35-.54l-6.22-6.42a5.47,5.47,0,0,1-1.4-2.09,5.07,5.07,0,0,1-.14-.5c0-.07,0-.14,0-.22s0-.12,0-.18a6.7,6.7,0,0,1,.48-3.36l-14.86,16.65A6.69,6.69,0,0,0,511.39-236.29Z" transform="translate(752.31 1407.83)"/><path class="cls-4" d="M489-280.79c-2.83-3-4.65-4.7-7.6-6a18.13,18.13,0,0,0-4.75-1.31c-.89-.11-9.47-1.07-14.44,4.63-4.46,5.1-3.14,12.26-3,13.14,1.4,7,6.73,10,20.33,21.4,5.81,4.88,10.38,9,13.26,11.69l1.5-11.42-10.79-11.13h0l-12.69-13.12a2.79,2.79,0,0,1-.8-2.06,2.8,2.8,0,0,1,.91-2,2.75,2.75,0,0,1,2.06-.8,2.78,2.78,0,0,1,2,.91l20.19,21.3,2.1-16C494.29-275.15,491.47-278.23,489-280.79Z" transform="translate(752.31 1407.83)"/><path class="cls-29" d="M489-280.79c-2.83-3-4.65-4.7-7.6-6a18.13,18.13,0,0,0-4.75-1.31c-.89-.11-9.47-1.07-14.44,4.63-4.46,5.1-3.14,12.26-3,13.14,1.4,7,6.73,10,20.33,21.4,5.81,4.88,10.38,9,13.26,11.69l1.5-11.42-10.79-11.13h0l-12.69-13.12a2.79,2.79,0,0,1-.8-2.06,2.8,2.8,0,0,1,.91-2,2.75,2.75,0,0,1,2.06-.8,2.78,2.78,0,0,1,2,.91l20.19,21.3,2.1-16C494.29-275.15,491.47-278.23,489-280.79Z" transform="translate(752.31 1407.83)"/><path class="cls-4" d="M550.73-289.13c-.82-.06-9.08-.59-14.1,5.35-4.38,5.17-3.44,11.87-3.38,12.28,1.08,6.92,6.7,9.94,20.34,21.39,5.15,4.33,9.32,8.07,12.2,10.73,0-.39.05-.79.06-1.19a25,25,0,0,0-7.09-18.55l-11.91-12.56a2.79,2.79,0,0,1-.8-2.06,2.82,2.82,0,0,1,.91-2,2.82,2.82,0,0,1,2.06-.8,2.82,2.82,0,0,1,2,.91l18.2,19.21,2.43-18.2C558.53-286.88,555-288.81,550.73-289.13Z" transform="translate(752.31 1407.83)"/><path class="cls-30" d="M550.73-289.13c-.82-.06-9.08-.59-14.1,5.35-4.38,5.17-3.44,11.87-3.38,12.28,1.08,6.92,6.7,9.94,20.34,21.39,5.15,4.33,9.32,8.07,12.2,10.73,0-.39.05-.79.06-1.19a25,25,0,0,0-7.09-18.55l-11.91-12.56a2.79,2.79,0,0,1-.8-2.06,2.82,2.82,0,0,1,.91-2,2.82,2.82,0,0,1,2.06-.8,2.82,2.82,0,0,1,2,.91l18.2,19.21,2.43-18.2C558.53-286.88,555-288.81,550.73-289.13Z" transform="translate(752.31 1407.83)"/></g></g></svg>